<?xml version="1.0" encoding="UTF-8"?>
<svg id="Layer_2" data-name="Layer 2" xmlns="http://www.w3.org/2000/svg" viewBox="0 0 808.29 721.08">
  <defs>
    <style>
      .cls-1 {
        fill: #fff;
      }
    </style>
  </defs>
  <g id="Layer_1-2" data-name="Layer 1">
    <g id="Artwork_3" data-name="Artwork 3">
      <g>
        <path class="cls-1" d="m404.84,411.76c-9.23,0-17.81,5.99-20.79,11.8l-30.8,75.88h23.87c1.98,0,4.02-.89,4.36-2.17,10.36-45.84,19.03-72.31,23.36-72.31s13.01,26.46,23.36,72.31c.36,1.29,2.39,2.17,4.37,2.17h23.87l-30.8-75.87c-2.98-5.81-11.56-11.8-20.79-11.8"/>
        <path class="cls-1" d="m460.35,499.45c-.45-.26-1.19-1.79-1.19-1.79l-32.69-80.48c-3.14-6.16-12.13-12.35-21.64-12.35s-18.5,6.2-21.64,12.35l-32.68,80.48s-.74,1.53-1.19,1.79h2.89l6.22-15.32,24.75-60.95c1.06-2.08,2.8-4.16,4.98-6,4.3-3.63,10.36-6.35,16.66-6.35,7.13,0,13.98,3.49,18.27,7.83,1.43,1.45,2.59,2.99,3.37,4.53l30.98,76.27h2.89v-.02Z"/>
        <path class="cls-1" d="m549.74,418.41c1.14,0,2.07.74,1.95,1.58-1.53,9.57-1.94,11.59-18.45,11.51,10.15.17,12.89.08,15.2,0,5.98-.18,7.42-5.22,8.2-12.89.09-.88-.81-1.64-1.95-1.64l-52.81-.15c-8.34,0-17.54.55-25.14,3.15,6.46-1.38,13.59-1.72,20.2-1.72l52.81.15h0Z"/>
        <path class="cls-1" d="m467.63,497.1l36.56.15c9.13,0,22.23-.77,32.7-4.42,11.95-4.17,18-11.14,17.99-20.74v-.7c.09-5.44.28-18.18-34.24-22.69l-21.61-3.02c-17.27-2.93-21.36-3.62-21.29-8.19.06-3.57,1.75-5.83,10.22-6.82,3.27-.39,7.41-.57,12.64-.57h.48c19.83,0,32.05.49,32.16.49,6.25,0,10.15-.18,12.69-1.15,3.01-1.15,4.18-3.47,4.81-9.53,0-.06-.02-.14-.09-.21-.15-.17-.47-.34-.93-.34l-52.81-.15c-8.21,0-15.09.09-24.34,2.52-7.12,3.56-12.04,9.61-12.04,19.85,0,21.66,26.73,23.63,54.74,27.55,11.74,2.25,19.55,2.18,19.7,9.07.23,7.31-10.86,7.04-17.58,7.44l-54.86.32c-1.83,0-3.12,1.38-2.54,2.73l2.13,5.09c.71,1.38,1.08,2.44,1.51,3.25l1.09.02c.84.04,1.79.06,2.89.06"/>
        <path class="cls-1" d="m525.7,447.4c-8.33-1.21-21.59-3.13-21.59-3.13-17.03-2.99-20.55-3.72-20.49-7.52.03-2.12.54-3.95,4.47-5.16-2.51.29-4.35.7-5.7,1.19-.36.13-.7.26-.99.4-.23.12-.45.23-.64.36-.39.24-.71.49-.97.76-.13.13-.25.27-.34.41-.61.84-.74,1.78-.76,2.79-.02.92.2,1.65.78,2.28.2.21.47.42.77.61.43.28.97.55,1.64.8.88.34,1.96.65,3.32.98,3.11.74,7.6,1.51,13.98,2.59,0,0,.29.05.78.11,2.87.4,13.23,1.85,20.37,2.85.15.02.31.04.45.06.32.05.63.09.96.13,35.82,4.94,34.1,19,34.09,24.18,0,4.55-1.3,8.32-3.51,11.45-.51.73-1.06,1.42-1.67,2.07-.06.06-.11.13-.17.2-.96,1-2.02,1.91-3.18,2.78-.67.5-1.38.97-2.12,1.42-.46.28-.92.55-1.4.81-4.32,2.37-9.45,4.02-14.81,5.13-1.42.29-2.85.55-4.29.78-2.16.34-4.32.6-6.46.81-1.42.13-2.84.25-4.22.34-3.47.22-6.79.3-9.79.3l-36.41-.15h-.15c-1.31,0-2.4-.03-3.34-.08,1.05,1.11,2.96,1.51,8.28,1.51l36.56.15c19.18,0,51.64-3.34,51.62-27.03.02-5.41,1.79-20.19-35.04-25.18"/>
        <path class="cls-1" d="m255.02,491.78v-5.89c0-1.49.8-2.94,2.27-4.08l61.71-45.25c2.84-2.22.44-5.61-3.96-5.61-.51,0-1.05-.02-1.57-.02,1.96,1.19,2.49,3.35.53,4.93l-63.97,46.76c-1.46,1.18-2.27,2.67-2.27,4.21v6.09c0,3.61,4.3,6.53,9.6,6.53l78.86-.12c3.8-.02,5.72-.51,6.88-1.34l-78.47.11c-5.3,0-9.6-2.82-9.6-6.31"/>
        <path class="cls-1" d="m348.42,427.19c1.19-1.11,1.83-2.45,1.83-3.83,0-1.64-.91-3.12-2.37-4.26l-2.08.02h-85.2c-.46,0-.78.18-.93.34-.07.08-.1.15-.09.21.66,6.41,1.95,8.7,5.48,9.77,2.57.78,6.36.94,12.05.94,2.79-.1,17.7-.43,30.09-.43,2.21,0,4.33,0,6.29.03h.37c.41,0,.82.02,1.21.02,2.86,0,5.25,1.33,5.93,3.31.49,1.42-.03,2.91-1.41,3.98l-61.74,45.27c-1.21.94-1.89,2.13-1.89,3.33v5.89c0,2.92,3.96,5.38,8.64,5.38l78.17-.11,1.3-.06c.43-.58.76-1.24,1.15-1.98l.84-1.85,2.13-5.09c.59-1.34-.7-2.73-2.54-2.73l-57.36.19c-4.19,0-6.59-3.25-4.11-5.54l64.23-52.78h0Z"/>
        <path class="cls-1" d="m347.9,419.09c-.17-.13-.38-.26-.59-.4.2.13.38.26.55.4h.03,0Z"/>
        <path class="cls-1" d="m260.42,427.05c-.06-.1-.11-.23-.17-.33-.06-.11-.1-.22-.15-.34-.74-1.62-1.19-3.74-1.48-6.6-.13-.85.81-1.59,1.95-1.59h85.86c-1.61-.84-3.6-1.35-5.78-1.35h-87.35c-1.14,0-2.04.77-1.95,1.64.82,8.25,2.65,12.06,9.69,12.84.78.09,7.67.03,12.19,0-8.1-.13-11.27-1.34-12.82-4.26"/>
        <path class="cls-1" d="m568.09,204.71l-96.26-166.72C461.45,19.92,440.1,1,408.69.05V0c-.81-.02-1.57.02-2.36.02-.79,0-1.56-.05-2.36-.02v.05c-31.41.95-52.75,19.86-63.14,37.94l-96.26,166.72c-4.01,6.77,4.01,15.13,10.93,10.52,22.87-14.18,70.13-43.11,150.84-43.72,80.71.61,127.96,29.55,150.84,43.72,6.93,4.61,14.94-3.75,10.93-10.52"/>
        <path class="cls-1" d="m539.87,720.88l192.51.21c20.85.06,47.91-8.93,64.46-35.64l.04.02c.42-.69.77-1.37,1.16-2.06s.81-1.33,1.2-2.03l-.04-.02c14.91-27.66,9.24-55.61-1.2-73.66l-96.08-166.82c-3.85-6.86-15.09-4.11-14.57,4.19.81,26.9,2.18,82.29-37.72,152.44-40.96,69.55-89.67,95.95-113.39,108.65-7.46,3.68-4.25,14.79,3.63,14.72"/>
        <path class="cls-1" d="m268.42,720.88l-192.51.21c-20.85.06-47.92-8.93-64.46-35.64l-.05.02c-.42-.69-.77-1.37-1.16-2.06-.4-.69-.82-1.33-1.2-2.03l.05-.02c-14.91-27.66-9.24-55.61,1.2-73.66l96.08-166.82c3.85-6.86,15.09-4.11,14.57,4.19-.81,26.9-2.18,82.29,37.72,152.44,40.96,69.55,89.67,95.95,113.4,108.65,7.46,3.68,4.24,14.79-3.63,14.72"/>
      </g>
    </g>
  </g>
</svg>