<svg xmlns="http://www.w3.org/2000/svg" viewBox="0 0 351.52 351.56"><defs><style>.cls-1{fill:#fff;}</style></defs><g id="Layer_2" data-name="Layer 2"><g id="Layer_1-2" data-name="Layer 1"><path class="cls-1" d="M124.05,167.71a1.41,1.41,0,0,1,1.55,1.63l-3.1,9.44a4.33,4.33,0,0,1-3.78,3.59L93.3,185.24a1.4,1.4,0,0,1-1.55-1.62l3.1-9.45a4.33,4.33,0,0,1,3.78-3.59Z"/><path class="cls-1" d="M128.24,338.49,126.81,344a.58.58,0,0,1-.76.42c-67.69-20-118.49-79.7-125.26-152a.58.58,0,0,1,.53-.64L7,191.36a.58.58,0,0,1,.6.53c6.61,69.39,55.34,126.65,120.24,145.88a.58.58,0,0,1,.41.72"/><path class="cls-1" d="M111.43,292.18l2.31-9a4.23,4.23,0,0,1,4-3.25l25.38-.57a1.4,1.4,0,0,1,1.4,1.74l-2.31,9a4.27,4.27,0,0,1-4,3.21l-25.38.56a1.38,1.38,0,0,1-1.4-1.73"/><path class="cls-1" d="M92.32,151.36l55.41-12.2a.41.41,0,0,1,.49.41v3a3.11,3.11,0,0,1-2.49,3.06l-55.68,12a.39.39,0,0,1-.49-.42l.19-2.91a3.29,3.29,0,0,1,2.57-2.94"/><path class="cls-1" d="M160.12,276.8l6.39,7.14a1.41,1.41,0,0,1,0,2.19s-4.31,3.82-6,5.67-3.1.23-3.1.23-7.36-6-6.12-8.47,8.84-6.76,8.84-6.76"/><path class="cls-1" d="M138.44,187.05a2.39,2.39,0,0,0,.23-.41l-.19.23a3.58,3.58,0,0,1,.41-.8,7.92,7.92,0,0,1,.68-.94,3.24,3.24,0,0,1,1.06-.76,3.09,3.09,0,0,1,1.51-.22,1.42,1.42,0,0,1,.91.37,1.1,1.1,0,0,1,.34.76.22.22,0,0,0,0,.15s0,.15-.11.34a.55.55,0,0,1,0,.23c0,.07,0,.15,0,.22a5.2,5.2,0,0,0-.19.83c0,.31-.08.57-.15.91a5.47,5.47,0,0,0-.08.76,3.6,3.6,0,0,0,0,.64V190a2.25,2.25,0,0,0,.57,1.1,3.22,3.22,0,0,0,1.51.71s.08,0,.26,0a12,12,0,0,0,2.65-.42,2.93,2.93,0,0,0,1.47-.91,7,7,0,0,0,1.17-1.58,12.45,12.45,0,0,0,.76-1.85,8.82,8.82,0,0,0,.34-1.67l2.45-1.73a1.6,1.6,0,0,1,1.63-.27c.56.23.87.57.87,1.06,0,.08,0,.11,0,.15a.14.14,0,0,0,0,.11V185a2.78,2.78,0,0,0-.07.57v.53a5.1,5.1,0,0,0,0,.64l.12.68a1.85,1.85,0,0,0,.9,1.48,4.21,4.21,0,0,0,2,1h.22a3,3,0,0,0,1.59-.91,3.83,3.83,0,0,0,1-1.7,7.25,7.25,0,0,0,.34-1.93V185a.82.82,0,0,1,.15-.41,1,1,0,0,1,.34-.42l2.49-1.73a1.71,1.71,0,0,1,1.59-.23,1.08,1.08,0,0,1,.83,1.09,1.2,1.2,0,0,1,0,.38c0,.12,0,.27,0,.38-.08.94-.23,2.08-.38,3.36a24,24,0,0,1-.79,3.86,18,18,0,0,1-1.55,3.58,7.9,7.9,0,0,1-2.53,2.69,7.74,7.74,0,0,1-1.85.9,8.07,8.07,0,0,1-2.2.3,15.68,15.68,0,0,1-3-.41,12.78,12.78,0,0,1-1.7-.87,10.58,10.58,0,0,1-1.28-.91,12.13,12.13,0,0,1-3.67,2.69,13.63,13.63,0,0,1-4.46,1.28h-.3a13.08,13.08,0,0,1-3.36-.57,6.5,6.5,0,0,1-2.27-1.24,4.46,4.46,0,0,1-1.28-1.74,6.69,6.69,0,0,1-.57-2.08,2.31,2.31,0,0,1-.07-.49v-.57a11.43,11.43,0,0,1,.11-1.51,7.92,7.92,0,0,1,.45-1.66c.23-.6.42-1.17.57-1.7s.34-1,.53-1.4v0a.49.49,0,0,1,.08-.23.35.35,0,0,1,.11-.27"/><path class="cls-1" d="M87.41,210.89c3.4-8.12,13-18.74,31.54-21.95,0,0,4.68-.79,6.65-1s4.64-.68,4,4.19-2.08,27-2.08,27-1.55,4.76,4.31,4,12.54-1.92,19.68-8,5,2.91,5,2.91l-.61,2a20.58,20.58,0,0,0,9.63-4.72c2.61-2.45,4.61-4.38,5.71-5.44a.6.6,0,0,1,1,.38,26.45,26.45,0,0,1-13.45,24.21s-4.65,4.46-15.94,1.1c0,0-3.66-1.17-8.16,2S121,240.35,121,240.35s-4.39,1-3.25-4l1.92-29s1.25-5.25-4.23-3.48-9.59,2.8-11.59,4.42,2.07,1.29,2.07,1.29l6.31-.57s4-1.1,3.74,3.59a50.56,50.56,0,0,1-.56,5.89s-.87,6.76-9.79,7.78-13.22-.79-15-2.26-6.68-5-3.28-13.11"/><path class="cls-1" d="M150.6,92.47c-.71-5.82-1.73-23,11.26-29,9.93-4.53,12.62,6.76,12.62,6.76a80.08,80.08,0,0,1-4.54,16,.7.7,0,0,1-1.32,0c-1-2.61-3.13-7.07-6.53-5.67-3,1.17-8,8.76-10.17,12.12a.71.71,0,0,1-1.32-.26"/><path class="cls-1" d="M142.29,87.48c-4.12,10.73-5.51,19.76,2.42,25.2,6.87,4.68,23.19,0,31.58-6.65s9.63-5.36,9.63-5.36c-4.31,16.54-25.31,49.44-25.31,49.44-3-6.46-1.58-7.89-1.58-7.89,6.42-11,6.53-14.4,6.53-14.62,0,0-24.78,10-32.26-11.14-6.27-17.65,4.61-27,8.35-29.54a.45.45,0,0,1,.64.56"/><path class="cls-1" d="M196.31,77.93a1.33,1.33,0,0,0,.23-.38l-.19.23a3.58,3.58,0,0,1,.41-.8,7.92,7.92,0,0,1,.68-.94,3.59,3.59,0,0,1,1.06-.76,3.07,3.07,0,0,1,1.51-.22,1.42,1.42,0,0,1,.91.37,1.12,1.12,0,0,1,.34.76c0,.08,0,.11,0,.15s0,.15-.11.34v.23a.43.43,0,0,0,0,.22,3.3,3.3,0,0,0-.22.83c0,.31-.08.57-.15.91a5.47,5.47,0,0,0-.08.76,3.39,3.39,0,0,0,0,.64v.64a2.25,2.25,0,0,0,.57,1.1,3.43,3.43,0,0,0,1.51.71s.08,0,.26,0a12,12,0,0,0,2.65-.42,3.22,3.22,0,0,0,1.51-.91,8.28,8.28,0,0,0,1.13-1.58,9.9,9.9,0,0,0,.76-1.85,8.62,8.62,0,0,0,.34-1.7l2.45-1.7a1.62,1.62,0,0,1,1.63-.27,1.12,1.12,0,0,1,.87,1.06.21.21,0,0,1,0,.15.12.12,0,0,0,0,.08v.38a2.6,2.6,0,0,0-.07.56V77c0,.19,0,.38,0,.64l.12.68a1.85,1.85,0,0,0,.9,1.48,4.24,4.24,0,0,0,2,1h.23a3.17,3.17,0,0,0,1.59-.91,5.11,5.11,0,0,0,1.06-1.74l-.08,0a7.25,7.25,0,0,0,.34-1.93v-.37a.74.74,0,0,1,.19-.46,1.14,1.14,0,0,1,.3-.38l2.49-1.73a1.73,1.73,0,0,1,1.59-.23,1.08,1.08,0,0,1,.83,1.1,1.17,1.17,0,0,1,0,.37V75c-.11,1-.22,2.08-.41,3.36a22.73,22.73,0,0,1-.79,3.82A15.5,15.5,0,0,1,223,85.78a7.9,7.9,0,0,1-2.53,2.69,7.81,7.81,0,0,1-1.86.9,8,8,0,0,1-2.19.3,15.68,15.68,0,0,1-3-.41,12.78,12.78,0,0,1-1.7-.87,10.58,10.58,0,0,1-1.28-.91,11,11,0,0,1-3.67,2.65,12.57,12.57,0,0,1-4.46,1.32h-.26a13.11,13.11,0,0,1-3.4-.57,6.31,6.31,0,0,1-2.23-1.24,4.46,4.46,0,0,1-1.32-1.74,7,7,0,0,1-.57-2.08,2.35,2.35,0,0,1-.07-.53v-.53a11.43,11.43,0,0,1,.11-1.51,7.92,7.92,0,0,1,.45-1.66c.23-.6.42-1.17.57-1.7s.34-1,.53-1.4v0a.49.49,0,0,1,.08-.23.47.47,0,0,1,.11-.3"/><path class="cls-1" d="M146.41,266.42a83.71,83.71,0,0,1-24.7-8.13.56.56,0,0,1,.15-1.05l33.5-6.12a10.76,10.76,0,0,1,1.89-.27c2.65-.22,11.33-1.58,13.75-8.95a15.77,15.77,0,0,1,11.48-10.39c5.44-1.09,6.69-2.68,6.69-2.68a52.05,52.05,0,0,0-8.54-.41c-3.32.26-2.15-1.93-2-2.5s2.91-6.61,2.91-6.61c3.21-7.67,12.84-9.89,12.84-9.89,16.36-3.22,11.67,15.48,11.67,15.48l5.37-1.06c3.77-.33,4-4.68,4-4.68l1-34.15a11.59,11.59,0,0,1,3.55-8l10-9.63a.39.39,0,0,1,.64.3l-3,48.13a4.66,4.66,0,0,1-1,2.91l-8.35,13.33c-1.73,3.7-8.12,5.4-8.12,5.4s-24.28,7-30.18,8.42-6.27,5.67-6.27,5.67l-1.28,3.14c-4.91,10.69-11.48,13.86-26,11.71"/><path class="cls-1" d="M249.46,169.15a.39.39,0,0,1,.67.3l-2.45,59a4,4,0,0,1-1.06,2.56l-10,10.85a.43.43,0,0,1-.72-.31L237.67,185a11.54,11.54,0,0,1,3.55-8Z"/><path class="cls-1" d="M234.8,73a1.47,1.47,0,0,1-1.59-1.93L236.12,62a4.85,4.85,0,0,1,4-3.36l23.6-3.21a1.45,1.45,0,0,1,1.63,1.77l-2,8.73a4.89,4.89,0,0,1-4.08,3.74Z"/><path class="cls-1" d="M248,100.93l4.49,2.3s9.37,4.61,5.14,18.17-16.24,14.81-18.7,15.26-11.74,1.55-14.43,1.82-6.83-.08-7.29-3.44-2.45-4.5-2.45-4.5-2-.18-2.61,5.1-5,5.1-5,5.1-11.6,1.59-19.23-2.07a25.34,25.34,0,0,1-9.82-8.09.74.74,0,0,1,.45-1.13c3.93-.79,18-2.72,22.29-3.44,4.87-.79,9.37-2.49,10.2-7.29s2.3-8.5,4.72-9.29,5.71,4.49,5.82,8.38c.11,3.52,4.19,2.91,4.19,2.91,13.45.12,17-3.51,17-3.51S241,115,234.5,115.62s-6.12-3.55-6.12-3.55c.07-12.65,15.18-29.57,26.36-30.18,8.09-.41,10.39,5.71,11,9.11a6.26,6.26,0,0,1-.53,3.81l-3.7,7.56a1,1,0,0,1-1.47.37l-3.14-2.15c-4.19-4.57-8.91.34-8.91.34"/><path class="cls-1" d="M6.35,181.12l-5.63.34a.62.62,0,0,1-.64-.6C0,179.2,0,177.5,0,175.8,0,78.87,78.83,0,175.76,0A174.85,174.85,0,0,1,279.49,34a.65.65,0,0,1,.11.87l-3.48,4.45a.59.59,0,0,1-.83.12A167.9,167.9,0,0,0,175.76,6.87C82.61,6.87,6.84,82.65,6.84,175.8c0,1.58,0,3.13.07,4.72a.6.6,0,0,1-.56.6"/><path class="cls-1" d="M329.87,259a.57.57,0,0,1,.23.83,175.78,175.78,0,0,1-192.91,87.49.62.62,0,0,1-.45-.76l1.43-5.44a.62.62,0,0,1,.72-.45,167.25,167.25,0,0,0,36.87,4.08,169.07,169.07,0,0,0,148.26-88,.57.57,0,0,1,.79-.27Z"/><path class="cls-1" d="M351.52,175.8a174.55,174.55,0,0,1-16.24,73.73.58.58,0,0,1-.8.27l-5.06-2.53a.53.53,0,0,1-.26-.76A168.79,168.79,0,0,0,284.28,46.42a.58.58,0,0,1-.07-.79l3.47-4.46a.57.57,0,0,1,.83-.11,175.46,175.46,0,0,1,63,134.74"/><path class="cls-1" d="M351.52,175.8a174.55,174.55,0,0,1-16.24,73.73.58.58,0,0,1-.8.27l-5.06-2.53a.53.53,0,0,1-.26-.76A168.79,168.79,0,0,0,284.28,46.42a.58.58,0,0,1-.07-.79l3.47-4.46a.57.57,0,0,1,.83-.11,175.46,175.46,0,0,1,63,134.74"/><path class="cls-1" d="M279.6,34.83l-3.48,4.45a.59.59,0,0,1-.83.12A167.9,167.9,0,0,0,175.76,6.87C82.61,6.87,6.84,82.65,6.84,175.8c0,1.58,0,3.13.07,4.72a.6.6,0,0,1-.56.6l-5.63.34a.62.62,0,0,1-.64-.6C0,179.2,0,177.5,0,175.8,0,78.87,78.83,0,175.76,0A174.8,174.8,0,0,1,279.48,34a.64.64,0,0,1,.12.87"/><path class="cls-1" d="M330.1,259.81a175.79,175.79,0,0,1-192.91,87.48.62.62,0,0,1-.45-.76l1.44-5.44a.6.6,0,0,1,.71-.45,167.25,167.25,0,0,0,36.87,4.08,169.07,169.07,0,0,0,148.26-88,.58.58,0,0,1,.79-.27l5.06,2.53a.58.58,0,0,1,.23.84"/><path class="cls-1" d="M128.24,338.49,126.81,344a.58.58,0,0,1-.76.42c-67.69-20-118.49-79.7-125.26-152a.58.58,0,0,1,.53-.64L7,191.36a.58.58,0,0,1,.6.53c6.61,69.39,55.34,126.65,120.24,145.88a.58.58,0,0,1,.41.72"/><path class="cls-1" d="M265.36,57.15l-2,8.73a4.89,4.89,0,0,1-4.08,3.74L234.8,73a1.47,1.47,0,0,1-1.59-1.93L236.12,62a4.86,4.86,0,0,1,4-3.36l23.61-3.21a1.45,1.45,0,0,1,1.63,1.77"/><path class="cls-1" d="M174.47,70.26a79.84,79.84,0,0,1-4.53,16,.7.7,0,0,1-1.32,0c-1-2.6-3.14-7.06-6.54-5.66-3,1.17-8,8.76-10.16,12.12a.71.71,0,0,1-1.32-.26c-.72-5.82-1.74-23,11.26-29,9.93-4.54,12.61,6.76,12.61,6.76"/><path class="cls-1" d="M185.92,100.67c-4.31,16.54-25.31,49.44-25.31,49.44-3-6.46-1.58-7.89-1.58-7.89,6.42-11,6.53-14.39,6.53-14.62,0,0-24.78,10-32.26-11.14-6.27-17.64,4.61-27,8.35-29.54a.45.45,0,0,1,.64.56c-4.11,10.73-5.51,19.76,2.42,25.2,6.87,4.68,23.19,0,31.58-6.65s9.63-5.36,9.63-5.36"/><path class="cls-1" d="M148.22,139.57v3a3.11,3.11,0,0,1-2.49,3.06l-55.68,12a.39.39,0,0,1-.49-.42l.19-2.91a3.29,3.29,0,0,1,2.57-2.94l55.41-12.2a.41.41,0,0,1,.49.41"/><path class="cls-1" d="M144.56,281.11l-2.31,9a4.27,4.27,0,0,1-4,3.21l-25.38.56a1.38,1.38,0,0,1-1.4-1.73l2.31-9a4.23,4.23,0,0,1,4-3.25l25.38-.57a1.4,1.4,0,0,1,1.4,1.74"/><path class="cls-1" d="M125.6,169.34l-3.1,9.44a4.33,4.33,0,0,1-3.78,3.59L93.3,185.24a1.4,1.4,0,0,1-1.55-1.62l3.1-9.45a4.33,4.33,0,0,1,3.78-3.59l25.42-2.87a1.41,1.41,0,0,1,1.55,1.63"/><path class="cls-1" d="M166.5,286.13s-4.3,3.82-6,5.67-3.1.23-3.1.23-7.36-6-6.12-8.46,8.84-6.77,8.84-6.77,5.21,5.82,6.38,7.14a1.4,1.4,0,0,1,0,2.19"/><path class="cls-1" d="M225.77,74.23a1.17,1.17,0,0,1,0,.37V75c-.11,1-.22,2.08-.41,3.36a21.81,21.81,0,0,1-.8,3.82A15.06,15.06,0,0,1,223,85.78a7.92,7.92,0,0,1-2.54,2.69,7.56,7.56,0,0,1-1.85.9,8,8,0,0,1-2.19.3,15.68,15.68,0,0,1-3-.41,12.78,12.78,0,0,1-1.7-.87,11.6,11.6,0,0,1-1.29-.91,10.84,10.84,0,0,1-3.66,2.65,12.57,12.57,0,0,1-4.46,1.32h-.26a13.11,13.11,0,0,1-3.4-.57,6.31,6.31,0,0,1-2.23-1.24,4.46,4.46,0,0,1-1.32-1.74,7,7,0,0,1-.57-2.08,1.89,1.89,0,0,1-.07-.53v-.53a10,10,0,0,1,.11-1.51,7.92,7.92,0,0,1,.45-1.66c.23-.6.42-1.17.57-1.7s.34-1,.53-1.4v0a.62.62,0,0,1,.07-.23.48.48,0,0,1,.12-.3,1.15,1.15,0,0,0,.22-.38l-.18.23a3.58,3.58,0,0,1,.41-.8,7.92,7.92,0,0,1,.68-.94,3.59,3.59,0,0,1,1.06-.76,3.07,3.07,0,0,1,1.51-.22,1.42,1.42,0,0,1,.91.37,1.12,1.12,0,0,1,.34.76,1.3,1.3,0,0,0,0,.15s0,.15-.11.34v.23a.43.43,0,0,0,0,.22,3.3,3.3,0,0,0-.22.83,8.32,8.32,0,0,1-.16.91,7.4,7.4,0,0,0-.07.76,3.39,3.39,0,0,0,0,.64v.64a2.25,2.25,0,0,0,.57,1.1,3.43,3.43,0,0,0,1.51.71s.07,0,.26,0a12,12,0,0,0,2.65-.42,3.27,3.27,0,0,0,1.51-.91,8.74,8.74,0,0,0,1.13-1.58,9.9,9.9,0,0,0,.76-1.85,8.62,8.62,0,0,0,.34-1.7l2.45-1.7a1.62,1.62,0,0,1,1.63-.27,1.12,1.12,0,0,1,.87,1.06.21.21,0,0,1,0,.15.12.12,0,0,0,0,.08v.38a2.61,2.61,0,0,0-.08.56V77c0,.19,0,.38,0,.64l.12.68a1.85,1.85,0,0,0,.9,1.48,4.24,4.24,0,0,0,2,1h.23a3.17,3.17,0,0,0,1.59-.91,5.11,5.11,0,0,0,1.06-1.74l-.08,0a7.25,7.25,0,0,0,.34-1.93v-.37a.74.74,0,0,1,.19-.46,1.14,1.14,0,0,1,.3-.38l2.49-1.73a1.72,1.72,0,0,1,1.59-.23,1.08,1.08,0,0,1,.83,1.1"/><path class="cls-1" d="M167.9,183.31a1.58,1.58,0,0,1,0,.38c0,.12,0,.27,0,.38-.08.94-.23,2.08-.38,3.36a23.71,23.71,0,0,1-.79,3.85,17.86,17.86,0,0,1-1.55,3.59,8.1,8.1,0,0,1-4.38,3.59,8,8,0,0,1-2.19.3,15.66,15.66,0,0,1-3-.41,12.78,12.78,0,0,1-1.7-.87,11.81,11.81,0,0,1-1.28-.91,11.94,11.94,0,0,1-3.67,2.68,13.43,13.43,0,0,1-4.45,1.29h-.31a13.53,13.53,0,0,1-3.36-.57,6.62,6.62,0,0,1-2.26-1.24,4.56,4.56,0,0,1-1.29-1.74,6.69,6.69,0,0,1-.57-2.08,2.31,2.31,0,0,1-.07-.49v-.57a11.43,11.43,0,0,1,.11-1.51,7.4,7.4,0,0,1,.46-1.66c.22-.6.41-1.17.56-1.7s.34-1,.53-1.4v0a.49.49,0,0,1,.08-.22.33.33,0,0,1,.11-.27,1.87,1.87,0,0,0,.23-.41l-.19.22a3.76,3.76,0,0,1,.41-.79,7.92,7.92,0,0,1,.68-.94,3.35,3.35,0,0,1,1.06-.76,3.09,3.09,0,0,1,1.51-.22,1.42,1.42,0,0,1,.91.37,1.1,1.1,0,0,1,.34.76c0,.07,0,.11,0,.15s0,.15-.12.34a.55.55,0,0,1,0,.23c0,.07,0,.15,0,.22a6.58,6.58,0,0,0-.19.83c0,.31-.08.57-.15.91a5.31,5.31,0,0,0-.08.76,3.6,3.6,0,0,0,0,.64V190a2.25,2.25,0,0,0,.57,1.1,3.31,3.31,0,0,0,1.51.71s.08,0,.27,0a12.7,12.7,0,0,0,2.64-.42,2.93,2.93,0,0,0,1.47-.91,7,7,0,0,0,1.17-1.58,12.45,12.45,0,0,0,.76-1.85,8.82,8.82,0,0,0,.34-1.67l2.45-1.73a1.61,1.61,0,0,1,1.63-.27c.57.23.87.57.87,1.06,0,.08,0,.11,0,.15a.14.14,0,0,0,0,.11V185a2.78,2.78,0,0,0-.07.57v.53a5.1,5.1,0,0,0,0,.64l.12.68a1.85,1.85,0,0,0,.9,1.47,4.21,4.21,0,0,0,2,1h.22a2.92,2.92,0,0,0,1.59-.9,3.89,3.89,0,0,0,1-1.7,7.32,7.32,0,0,0,.34-1.93V185a.82.82,0,0,1,.15-.41,1.11,1.11,0,0,1,.34-.42l2.5-1.73a1.69,1.69,0,0,1,1.58-.23,1.08,1.08,0,0,1,.83,1.09"/><path class="cls-1" d="M265.24,94.81l-3.7,7.56a1,1,0,0,1-1.47.37l-3.14-2.15c-4.19-4.57-8.91.34-8.91.34l4.5,2.3s9.36,4.61,5.13,18.17-16.24,14.81-18.7,15.26-11.74,1.55-14.42,1.82-6.84-.08-7.3-3.44-2.45-4.5-2.45-4.5-2-.18-2.61,5.1-5,5.1-5,5.1-11.6,1.59-19.23-2.07a25.34,25.34,0,0,1-9.82-8.09.74.74,0,0,1,.46-1.13c3.92-.79,18-2.72,22.28-3.44,4.87-.79,9.37-2.49,10.2-7.29s2.3-8.5,4.72-9.29,5.71,4.49,5.82,8.38c.11,3.52,4.19,2.91,4.19,2.91,13.45.12,17-3.51,17-3.51S241,115,234.5,115.62s-6.12-3.55-6.12-3.55c.07-12.65,15.18-29.57,26.36-30.18,8.09-.41,10.39,5.71,11,9.11a6.26,6.26,0,0,1-.53,3.81"/><path class="cls-1" d="M250.14,169.45l-2.46,59a4,4,0,0,1-1.06,2.56l-10,10.85a.43.43,0,0,1-.72-.31L237.67,185a11.54,11.54,0,0,1,3.55-8l8.24-7.89a.39.39,0,0,1,.68.3"/><path class="cls-1" d="M230.57,167.71l-3,48.13a4.66,4.66,0,0,1-1,2.91l-8.35,13.33c-1.73,3.7-8.12,5.4-8.12,5.4s-24.29,7-30.18,8.42-6.27,5.67-6.27,5.67l-1.28,3.14c-4.91,10.69-11.49,13.86-26,11.71a83.71,83.71,0,0,1-24.7-8.13.56.56,0,0,1,.15-1.05l33.5-6.12a10.76,10.76,0,0,1,1.89-.27c2.64-.22,11.33-1.58,13.75-8.95a15.77,15.77,0,0,1,11.48-10.39c5.44-1.09,6.69-2.68,6.69-2.68a52.05,52.05,0,0,0-8.54-.41c-3.32.26-2.15-1.93-2-2.5s2.91-6.61,2.91-6.61c3.21-7.67,12.84-9.89,12.84-9.89,16.35-3.21,11.67,15.48,11.67,15.48l5.36-1.05c3.78-.34,4-4.69,4-4.69l1-34.15a11.59,11.59,0,0,1,3.55-8l10-9.63a.39.39,0,0,1,.64.3"/><path class="cls-1" d="M158.8,234.57s-4.65,4.46-15.94,1.1c0,0-3.67-1.17-8.16,2S121,240.35,121,240.35s-4.39,1-3.25-4l1.92-29s1.25-5.25-4.23-3.48-9.59,2.8-11.59,4.42,2.07,1.29,2.07,1.29l6.31-.57s4-1.1,3.74,3.59a50.56,50.56,0,0,1-.56,5.89s-.87,6.76-9.79,7.78-13.22-.79-15-2.26-6.68-5-3.28-13.11,13-18.74,31.54-21.95c0,0,4.68-.79,6.65-1s4.64-.68,4,4.19-2.08,27-2.08,27-1.55,4.76,4.31,4,12.54-1.92,19.68-8,5,2.91,5,2.91l-.6,2a20.58,20.58,0,0,0,9.63-4.72c2.61-2.45,4.61-4.38,5.71-5.44a.6.6,0,0,1,1,.38,26.45,26.45,0,0,1-13.45,24.21"/></g></g></svg>