<?xml version="1.0" encoding="UTF-8"?>
<svg id="Layer_2" data-name="Layer 2" xmlns="http://www.w3.org/2000/svg" viewBox="0 0 533.82 956.88">
  <defs>
    <style>
      .cls-1, .cls-2 {
        fill: #e8d8c8;
      }

      .cls-3 {
        fill: #f1eade;
      }

      .cls-2 {
        fill-rule: evenodd;
      }
    </style>
  </defs>
  <g id="Layer_1-2" data-name="Layer 1">
    <g id="Artwork_2" data-name="Artwork 2">
      <g>
        <g>
          <path class="cls-1" d="m125.85,458.92l-6.38,19.28s27.53,18.82,38.89,54.16c12.18,37.89-3.7,77.09-1.87,78.58,2.05,1.66,19.4-25.12,16.24-67.24-3-39.84-19.54-61.42-46.88-84.78"/>
          <path class="cls-2" d="m105.31,188.1c-5.99,11.6-9.58,21.76-14.6,34.31,73.86-38.14,237.2-118.81,426.67-189.33L533.82,0S305.25,80.69,105.31,188.1"/>
          <path class="cls-3" d="m500.64,779.59c-17.58-.13-37.73,5.96-55.26,10.78-18.5,5.07-36.93,10.46-55.18,16.33-43.11,13.87-85.21,24.41-130.03,29.15-50.3,5.33-101.6,9.64-151.33-2.33-38.88-9.36-84.28-31.35-90.31-75.58-1.21-8.89-.8-17.94.71-26.76,1.83-10.69,5.22-21.07,9.46-31.03,6.56-15.42,15.33-30.01,24.13-44.25,2.07-3.35,4.42-6.54,6.83-9.66,1.47-1.91,2.86-3.97,3.64-6.27.37-1.08,1.79-5.99-1.02-6.24-2.8-.26-22.12,25.91-23.76,28.25C14.27,696.83-2.6,740.48.33,783.47c3.36,49.24,39.39,86.39,85.12,100.95,48.33,15.39,103.07,11.5,152.53,4.34,36.06-5.22,71.64-13.31,106.9-22.38,35.22-9.06,69.8-20.39,104.95-29.6,10.69-2.8,21.52-5.76,32.82-4.73,7.57.69,15.56,4.19,9.48,12.55-26.55,36.54-66.11,59.38-81.24,107.02-1.37,4.31,4.28,7.27,6.92,3.6,31.54-43.94,81.39-74.42,107.29-121.74,3.64-6.64,6.36-13.8,7.55-21.27,3.32-20.71-4.97-32.41-32.01-32.61"/>
          <path class="cls-1" d="m242.87,251.97l-26.11,35.32c-.59.82-.45,1.94.32,2.59l39.54,32.43c.85.72,2.13.57,2.79-.32l26.01-35.14c.61-.82.47-1.98-.33-2.63l-39.44-32.62c-.86-.7-2.14-.53-2.78.37"/>
          <path class="cls-1" d="m172.76,255.27l-26.11,35.32c-.59.82-.45,1.94.32,2.59l39.54,32.43c.85.72,2.13.57,2.79-.32l26.01-35.14c.61-.82.47-1.98-.33-2.63l-39.44-32.62c-.86-.7-2.14-.53-2.78.37"/>
          <path class="cls-1" d="m152.6,717.32l-26.11,35.32c-.59.82-.45,1.94.32,2.59l39.54,32.43c.85.72,2.13.57,2.79-.32l26.01-35.14c.61-.82.47-1.98-.33-2.63l-39.44-32.62c-.86-.7-2.14-.53-2.78.37"/>
          <path class="cls-1" d="m82.48,720.61l-26.11,35.32c-.59.82-.45,1.94.32,2.59l39.54,32.43c.85.72,2.13.57,2.79-.32l26.01-35.14c.61-.82.47-1.98-.33-2.63l-39.44-32.62c-.86-.7-2.14-.53-2.78.37"/>
          <path class="cls-3" d="m497.57,577.49c-19.27-.15-41.38,6.57-60.58,11.83-19.04,5.22-38.04,10.63-56.81,16.74-28.59,9.3-56.76,17.2-85.37,23.26-1.14-1.62-1.27-1.81-2.41-3.43,3.03-4.69,5.82-9.77,8.41-15.33,16.04-34.46,16.33-56.56,10.01-87.93-7.46-36.99-10.26-68.65-9.53-77.86.73-9.22-1.36-8.48-2.65-6.79-14.9,19.52-69.45,109.74-84.02,171.54-1.57,6.65-2.95,13.48-4.18,20.37-16.87,3.85-41.02,8.09-61.14,6.95-40.22-2.27-66.13-28.85-72.02-87.31-5.9-58.45,2.34-138.62-1.41-291.01C71.55,82.97,52.82,28.46,51.08,31.25c0,0-27.43,50.93-27.42,53.04.01,2.11,15.47,52.53,18.26,188.2,2.83,137.88-2.18,184.03-.51,270.93,1.59,82.43,32.25,142.34,97.4,146.77,25.43,1.73,52.18-6.68,52.18-6.68,0-.01,0-.02,0-.03h0c-2.75,8.76-4.69,15.59-4.31,15.83.71.46,8.92-.46,19.85-.48,1.74,17.94,6.12,35.02,14.18,50.08,21.17,39.56,53.15,58.13,83.75,62.33,30.6,4.2,51.84-35.68,56.53-73.49,3.72-30.01-9-49.96-33.51-65.47,1.39-.37,2.78-.74,4.17-1.11,0,0,0,0-.02,0,37.02-9.7,73.46-21.53,110.45-31.22,11.67-3.06,23.51-6.29,35.84-5.17,8.27.76,16.99,4.58,10.36,13.71-29.4,40.47-73.43,65.55-89.41,119.1-1.29,4.31,4.49,7.01,7.08,3.34,34.37-48.87,89.73-82.32,118.34-134.59,3.97-7.25,6.94-15.07,8.25-23.23,3.62-22.62-5.44-35.39-34.96-35.61m-255.09-2.2c18.95-46.33,35.68-77.04,35.68-77.04,0,0,1.67,18.33,7.25,42.32,6.44,27.67,8.56,51.41,8.56,51.41-10.82,10.13-36.9,23.24-64.9,33.05,2.18-16.99,6.9-33.8,13.42-49.74m95.09,181.69c-5.98,5.11-60.06,3.44-89.18-40.71-3.27-4.96-6.06-10.04-8.5-15.19,17.86,2.12,40.17,6.3,56.96,15.04,28.24,14.69,42.75,39.13,40.73,40.86"/>
          <path class="cls-3" d="m500.64,331.07c-17.58-.13-37.73,5.96-55.26,10.78-18.5,5.08-36.93,10.46-55.19,16.33-43.11,13.87-85.21,24.41-130.03,29.15-50.3,5.33-101.6,9.64-151.33-2.33-38.88-9.36-84.28-31.35-90.31-75.58-1.21-8.89-.8-17.94.71-26.76,1.83-10.69,5.22-21.07,9.46-31.03,6.56-15.42,15.33-30.01,24.13-44.25,2.07-3.35,4.42-6.54,6.83-9.66,1.47-1.91,2.86-3.97,3.64-6.27.37-1.08,1.79-5.99-1.02-6.24-2.8-.26-22.12,25.9-23.76,28.25C14.27,248.3-2.6,291.96.33,334.95c3.36,49.24,39.39,86.39,85.12,100.95,48.33,15.39,103.07,11.5,152.53,4.34,36.06-5.22,71.64-13.31,106.9-22.38,35.22-9.06,69.8-20.39,104.95-29.6,10.69-2.8,21.52-5.76,32.82-4.73,7.57.69,15.56,4.19,9.48,12.55-26.91,37.05-67.21,60.01-81.86,109.02-1.18,3.95,4.12,6.44,6.5,3.06,31.48-44.73,82.14-75.35,108.33-123.2,3.64-6.64,6.36-13.81,7.55-21.28,3.32-20.71-4.97-32.4-32.01-32.61"/>
        </g>
        <path class="cls-1" d="m400.65,470.05l-27,36.51c-.6.84-.46,2.01.33,2.68l40.88,33.53c.88.74,2.2.59,2.88-.33l26.89-36.33c.63-.85.48-2.05-.34-2.72l-40.77-33.72c-.89-.73-2.21-.55-2.88.38"/>
      </g>
    </g>
  </g>
</svg>