<?xml version="1.0" encoding="utf-8"?>
<!-- Generator: Adobe Illustrator 27.6.1, SVG Export Plug-In . SVG Version: 6.00 Build 0)  -->
<svg version="1.1" id="Layer_2_00000135680221477520689980000003198575631303304582_"
	 xmlns="http://www.w3.org/2000/svg" xmlns:xlink="http://www.w3.org/1999/xlink" x="0px" y="0px" viewBox="0 0 362.3 498.5"
	 style="enable-background:new 0 0 362.3 498.5;" xml:space="preserve">
<style type="text/css">
	.st0{fill:#FFFFFF;}
</style>
<g id="Layer_1-2">
	<path class="st0" d="M362.3,73.8v15.9l-41.5,27.1V71.7l-92.1-0.6l-47.6-28.6l-47.6,28.6l-92.1,0.6l0.2,87.5H0V73.8
		c0-21.2,17.1-38.3,38.3-38.3h86.6L181.2,0l56.3,35.5H324C345.2,35.5,362.3,52.7,362.3,73.8L362.3,73.8z M246.8,254.1v2.3l115.5-81
		v-54.8l-115.5,83.9V254.1L246.8,254.1z M181.2,338.6L0,204.5v53.6L181.2,387l181.2-128.8v-53.6L181.2,338.6L181.2,338.6z
		 M321.7,310.6v40.6l-140.5,106l-140.5-106v-40.6L0,281.8v68.1c0,12.4,6,24,16,31.2l164.5,117.5l0.7-0.5l0.7,0.5l164.5-117.5
		c10.1-7.2,16-18.8,16-31.2v-68.1L321.7,310.6L321.7,310.6z M40.6,351.2v-40.6L0,281.8v68.1c0,12.4,6,24,16,31.2l164.5,117.5
		l0.7-0.5v-40.8L40.6,351.2L40.6,351.2z M41.5,71.7l92.1-0.6l47.6-28.6V0l-56.3,35.5H38.3C17.1,35.5,0,52.7,0,73.8v85.3h41.8
		L41.5,71.7L41.5,71.7z M181.2,338.6L0,204.5v53.6L181.2,387L181.2,338.6L181.2,338.6z M362.3,349.9v-68.1l-40.6,28.9v40.6
		l-140.5,106v40.8l0.7,0.5l164.5-117.5C356.4,373.9,362.3,362.3,362.3,349.9L362.3,349.9z M362.3,258.2v-53.6l-181.2,134V387
		L362.3,258.2L362.3,258.2z M228.7,71.1l92.1,0.6v45.2l41.5-27.1V73.8c0-21.2-17.1-38.3-38.3-38.3h-86.6L181.2,0v42.5L228.7,71.1z
		 M246.8,254.1v2.3l115.5-81v-54.8l-115.5,83.9L246.8,254.1L246.8,254.1z M324,35.5h-86.6L181.2,0l-56.3,35.5H38.3
		C17.1,35.5,0,52.7,0,73.8v85.3h41.8l-0.2-87.5l92.1-0.6l47.6-28.6l47.6,28.6l92.1,0.6v45.2l41.5-27.1V73.8
		C362.3,52.7,345.2,35.5,324,35.5z M246.8,254.1v2.3l115.5-81v-54.8l-115.5,83.9V254.1L246.8,254.1z M181.2,338.6L0,204.5v53.6
		L181.2,387l181.2-128.8v-53.6L181.2,338.6L181.2,338.6z M321.7,310.6v40.6l-140.5,106l-140.5-106v-40.6L0,281.8v68.1
		c0,12.4,6,24,16,31.2l164.5,117.5l0.7-0.5l0.7,0.5l164.5-117.5c10.1-7.2,16-18.8,16-31.2v-68.1L321.7,310.6L321.7,310.6z"/>
</g>
</svg>
