<?xml version="1.0" encoding="utf-8"?>
<!-- Generator: Adobe Illustrator 27.6.1, SVG Export Plug-In . SVG Version: 6.00 Build 0)  -->
<svg version="1.1" id="Layer_2_00000001645764694448846140000001827372109115977386_"
	 xmlns="http://www.w3.org/2000/svg" xmlns:xlink="http://www.w3.org/1999/xlink" x="0px" y="0px" viewBox="0 0 223.9 345.6"
	 style="enable-background:new 0 0 223.9 345.6;" xml:space="preserve">
<style type="text/css">
	.st0{fill:#F5F5F7;}
</style>
<g id="_هوية_الفيحاء">
	<g>
		<g>
			
				<ellipse transform="matrix(0.3851 -0.9229 0.9229 0.3851 -201.1535 268.2016)" class="st0" cx="100.7" cy="285.1" rx="8.4" ry="8.4"/>
			<path class="st0" d="M86.5,90.1c9.7-9.6,17.1-21.5,21.4-34.5c1.5,21.4-1.9,43.2-9.9,63.2c-14.6,36.7-48.2,68.2-50.5,109.1
				c-0.9,16,5.1,31.3,17.8,41.4c-4,9.8-9.1,18.7-6.7,29.8c2.3,10.8,11.4,19.5,21.9,22.9c40.5,13.1,77.5-33.9,88.7-67.2
				c1.4-4.1,2.5-8.4,2.7-12.7c0-1,0-1.9-0.1-2.8c-0.9-11.2-8.7-16.6-19.3-13.1c-12.1,3.9-22.4,11.7-33.1,18.5
				c-10.1,6.3-22,12.5-34.3,11.9c1.5-1.2,3.4-2.8,4.9-4.5c8.5-9.8,17.3-22,20.4-34.8c0.5-1.9,0.7-4.2-0.5-5.8c-2-2.5-6-1.1-8.8,0.4
				c-10.3,5.5-20.6,11-31,16.6c3.7-15.7,13.2-30,26.2-39.6c5.8-4.3,9.2,0.9,11.9,6.2c2.9,6,6.5,12,12.2,15.4
				c5.6,3.3,13,3.5,18.8,0.4c3.8-2,6.8-5.2,10.7-7c2.3-1.1,4.9-1.7,7.3-2.7c7.4-3.3,11.8-10.9,14.8-18.4c4.1-10.2,6.5-21.3,5.4-32.2
				c-2.1-21.6-16.7-39.1-27.8-58c8.6-18.1-1-23.1-7.8-26.2c-2-0.9-3.7-2.6-4.6-3.7c-2.7-12.7-2.4-26,2.1-38.1
				c-11.7,9.5-13.8,26.9-10.8,41.7c4.7,23.4,19.4,43.3,31.5,63.8c5.4,9.2,10.5,19,11.1,29.6c0.5,10.6-4.7,22.2-14.6,26
				c2.8-5.8,2.4-13.2-1.5-18.3s-11.5-7.3-17.3-4.5c-4.6,2.2-7.4,6.9-9.1,11.7c-2.7,7.6-2.9,16.1-0.7,23.9c-4.6-0.3-8.4-3.7-10.8-7.6
				c-2.4-3.9-3.8-8.4-5.9-12.4c-1.1-2.1-2.6-4.3-4.9-5.2c-3.3-1.3-7,0.7-9.9,2.8c-11.3,8-20.3,19.2-26,31.8
				C68,213,57,241,67.5,242.7c2.9,0.5,5.6-1.1,8.2-2.5c8.6-5,17.2-10.1,25.8-15.2c-8,8.9-16,17.9-24,26.8c-1.3,1.4-2.7,2.9-4.4,3.7
				c-4.3,1.9-9.2-1.1-12.3-4.7c-9.1-10.8-9.4-26.8-4.9-40.2s13.2-24.9,20.9-36.7c15.1-23.3,27-48.8,33.1-75.8
				c6.1-27.1,6.1-55.2-1.6-82c0.2,9.4-4.4,15-3.6,24.1C106.1,57.8,97.8,76,86.5,90.1L86.5,90.1z M147.7,89.2
				c-1.8-3.1-3.4-6.3-4.9-9.5c-0.8-1.8-1.5-3.6-2.2-5.5l2.5,1c3.6,1.5,5.9,5.1,5.7,8.9C148.7,86.5,148,88.4,147.7,89.2L147.7,89.2z
				 M137.9,176.2c0.7-0.2,1.4-0.3,2.1-0.2c3.8,0.5,7.7,3.3,9.8,5.1c1.1,1,2.2,1.9,2,3.4l0,0.2c-0.5,2.7-2.5,4.8-5.2,5.4
				c-7.2,1.6-12.2-1.6-12.5-2.2C129.8,180.1,135.4,177.1,137.9,176.2L137.9,176.2z M71.7,270.6c0.2,0,0.4,0,0.6,0
				c7.2,0.2,19.4,1.5,31.9-4.2c0,0,14.6-6,25.7-15.4c8.3-7,20.7-12.1,22.6-12.5c7.8-1.9,14.2,4.1,12.6,9.8
				c-2.2,8.2-10.4,25.3-18.9,32.9l0,0c0,0-37.2,43.3-70.3,24.2c0,0-10.8-5.7-11.6-16.4C64.3,289,64.1,281.8,71.7,270.6L71.7,270.6z"
				/>
			
				<ellipse transform="matrix(0.2238 -0.9746 0.9746 0.2238 -180.9027 331.2071)" class="st0" cx="117.5" cy="279.2" rx="8.4" ry="8.4"/>
			<circle class="st0" cx="134.6" cy="137.6" r="8.4"/>
			<path class="st0" d="M38.1,297.9c0.3,0.2,0.7,0.3,1,0.4c0.4,0.1,0.8,0.2,1.3,0.2c1.5,0,2.8-0.7,3.9-1.7c0.8-0.7,1.5-1.6,2.2-2.4
				c0.8-1.1,1.6-2.3,2-3.6c-1.2,0.5-2.3,0.9-3.6,1.2c-1.1,0.2-2.4,0.4-3.3-0.3c-4.8-3.5,9.9-16.3,9.9-16.3c-3.5,1.8-6.9,3.9-9.8,6.6
				c-2,1.8-3.8,3.9-4.9,6.3c-0.8,1.6-1.3,3.5-1.2,5.3C35.7,295.2,36.5,297,38.1,297.9L38.1,297.9z"/>
			<path class="st0" d="M208.5,242.7c0.3-0.9,0.5-1.8,0.8-2.7c14.5-52.3-16.8-120.7-33.4-150.3c-0.9-1.6-1.9-3.1-2.8-4.7
				c-2.2-3.9-4.2-7.9-6-12c11.9-24,1.3-29.7-8.5-37.6c-0.2-0.1-0.7-0.7-1.3-1.8c0.1-4.2,0.8-8.3,2.4-12.2c1.4-3.5,3.7-6.4,6.2-9.2
				c1.3-1.4,2.6-2.7,3.9-4.1c0.6-0.6,1.2-1.3,1.8-1.9c0.3-0.3,0.7-0.7,1-1.1c0.3-0.3,0.7-0.7,1.2-0.8c-30.9,7.2-25.6,35.6-24,43.9
				c2.5,12.3,6.5,23.9,11.3,35.3c10.5,25.3,24.5,49.2,33.2,75.5c4.7,14.1,6.5,23.9,8.9,35.2c11.2,52.1-21.7,109.6-69.7,131.5
				c-33.6,15.3-73.9,3.7-102.1-18C42.1,324,59.9,335.3,79,339.4c19.1,4.1,39.4,1.2,57.3-6.8C173.4,316.1,197.4,280.7,208.5,242.7
				L208.5,242.7z M165.3,69.1c-1.7-4.1-3.3-8.3-4.5-12.6c-0.7-2.4-1.4-4.8-1.9-7.3c3.9,3.1,8.9,7.4,8.9,9.8
				C167.8,62.5,166.4,66.5,165.3,69.1L165.3,69.1z"/>
			<path class="st0" d="M35,253.6c-1.5,0.4-3.6,1.2-6.3,2.7c0,0-4.6,2.3-7.7-1.7c-1.3-1.5-1.2-3.8,0-5.4
				c6.3-8.1,12.5-15.2,16.5-24.9c-0.1-1.3-18.4,16.7-22,23.4c-1.4,2.7-2.8,5.6-3.2,8.6c-0.7,4.7,1.2,9.1,5.2,11.7
				c3,1.9,6.9,2.1,10.1,0.7c0.8-0.4,1.6-0.9,2.5-1c0.9-0.1,1.9,0.2,2.2,1.1c0.1,0.4,0.1,0.8,0,1.2c-0.7,3.3-3.6,5.7-6.3,7.7
				c-4.8,3.5-9.8,6.5-14.7,9.7c-0.4,0.6,0.1,0.9,0.6,1c6.8,1.9,14.4-0.8,19.5-5.7c6.3-6,11.4-16.9,9.3-25.8
				C39.9,254.5,37.4,253,35,253.6L35,253.6z"/>
			<path class="st0" d="M123.9,117.6c5.5-5.3,9.2-11.7,9.8-14.1c0,0-2.4-0.6-3.3-1c0,0-1.1,2.5-4.1,6c-5.6,6.6-11,11.4-13.6,26h0.3
				C113.1,134.5,116.8,124.4,123.9,117.6L123.9,117.6z"/>
			<path class="st0" d="M177.4,200.3c-1.5,3.8-2.6,7.8-2.6,11.8c0,2.8,0.5,5.6,1.9,8c1.3,2.3,3.6,4.2,6.3,4.4c0.6,0,1.1,0,1.7-0.1
				c0.6-0.1,1.3-0.3,1.8-0.6c2-1,3.4-2.8,4.3-4.9c0.6-1.5,1-3.1,1.3-4.8c0.4-2,0.7-4.1,0.4-6.2c-1.3,1.4-2.6,2.8-4.1,3.9
				c-1.3,1-3,2.1-4.8,1.8c-8.8-1.6,2.8-28.8,2.8-28.8C182.9,189.6,179.6,194.8,177.4,200.3L177.4,200.3z"/>
		</g>
	</g>
</g>
</svg>
