<?xml version="1.0" encoding="UTF-8"?>
<svg id="Layer_2" data-name="Layer 2" xmlns="http://www.w3.org/2000/svg" viewBox="0 0 229.12 187.39">
  <defs>
    <style>
      .cls-1 {
        fill: #fff;
      }
    </style>
  </defs>
  <g id="Layer_1-2" data-name="Layer 1">
    <path class="cls-1" d="m51.46,84.35c-5.79,5.55-11.21,11.09-16.19,16.58C32.18,59.51,20.75,17.48,2.36,24.08c-6.82,1.8,1.44-17.22,20.81-7.43,16.47,8.32,25.51,36.56,28.29,67.7ZM202.18.34c-42.58,6.14-105.24,45.93-148.55,87.61h0s0,0,0,0c-.59.57-1.17,1.13-1.75,1.7-5.81,5.67-11.25,11.36-16.22,17C6.15,140.1-6.93,171.6,16.83,184.86c23.41,13.07,33.83-26.71,35.41-69.96-6.51,7.47-12.06,14.7-16.44,21.47-1.17,21.71-2.43,46.33-12.95,39-10.52-7.33-.19-27.84,13.23-46.72.08-.11.15-.22.23-.32,0,0,0,0,0,0,4.58-6.41,10-13.06,16.07-19.78.96-1.06,1.94-2.13,2.93-3.19h0s0,0,0,0C106.93,49.83,200.55-9.52,229.11,10.88c0,0,.91-13.15-26.93-10.53Z"/>
  </g>
</svg>