<?xml version="1.0" encoding="UTF-8"?>
<svg id="Layer_2" data-name="Layer 2" xmlns="http://www.w3.org/2000/svg" viewBox="0 0 21.49 32.68">
  <defs>
    <style>
      .cls-1 {
        fill: #fff;
      }

      .cls-2 {
        fill: #d7dd56;
      }
    </style>
  </defs>
  <g id="Business_Card_-_Back" data-name="Business Card - Back">
    <g>
      <g>
        <circle class="cls-2" cx="8.2" cy="2.12" r="2.12"/>
        <circle class="cls-2" cx="13.35" cy="2.12" r="2.12"/>
      </g>
      <path class="cls-1" d="m21.49,15.99c0,4.1-.41,16.69-11.39,16.69-1.03,0-3.82-.27-6.68-3-2.46-2.35-.13-3.84,1.39-3.08,7.33,3.66,7.58-1.12,7.58-1.12,1.06-.45,1.8-1.5,1.8-2.72,0-.07,0-.13,0-.2-.01-.24,0-.47.03-.7.24-1.44.79-2.82,1.59-4.05.61-.94.95-2.08.88-3.3-.15-2.73-2.37-4.97-5.1-5.14-3.18-.2-5.82,2.32-5.82,5.45,0,1.09.32,2.1.86,2.95.8,1.25,1.37,2.63,1.62,4.08.04.24.05.48.03.72,0,.06,0,.13,0,.2-.02,1.23.82,2.33,1.8,2.72.44,1.55-1.62.89-3.04.44C1.96,23.96-1.53,18.17.68,12.21c1.17-3.14,3.81-5.47,6.32-6.35,6.29-2.21,12.09,1.32,13.94,6.64.42,1.23.56,2.4.56,3.49Z"/>
    </g>
  </g>
</svg>