<?xml version="1.0" encoding="utf-8"?>
<!-- Generator: Adobe Illustrator 27.6.1, SVG Export Plug-In . SVG Version: 6.00 Build 0)  -->
<svg version="1.1" id="Layer_2_00000108275705924477697290000014215551645221463996_"
	 xmlns="http://www.w3.org/2000/svg" xmlns:xlink="http://www.w3.org/1999/xlink" x="0px" y="0px" viewBox="0 0 101.2 134.6"
	 style="enable-background:new 0 0 101.2 134.6;" xml:space="preserve">
<style type="text/css">
	.st0{fill:#FFFFFF;}
	.st1{fill:#C5C5C5;}
</style>
<g id="RN_-_Gazalle_5_">
	<path class="st0" d="M49.3,74c-3.5-0.6-7.1-0.8-10.7-0.8c-5.7-0.1-11.5-0.5-17.2-1.9c0.6,1,1.6,1.4,2.4,1.9c4,2.4,8.4,3.7,12.8,4.9
		c2.1,0.6,4.2,1.1,6.3,0.9C45.8,77.5,47.6,75.8,49.3,74z"/>
	<path class="st1" d="M101.6,133.5c-0.1-0.2-0.3-0.4-0.4-0.6c-3.4-5.2-5.8-10.9-7.1-17c-0.1-0.7-0.3-1.4-0.4-2s-0.2-1.4-0.3-2
		c-0.2-1.4-0.3-2.7-0.2-4.1c0-0.7,0-1.1,0-1.4c-0.1-0.2-0.2-0.3-0.3-0.4c-0.3-0.1-0.7-0.2-1.4-0.3c-1.1-0.2-2.1-0.4-3.2-0.7
		c-0.5-0.1-1-0.3-1.5-0.5c-2.5-0.8-5-2-7.3-3.5c-2.8-1.7-5.2-3.7-7.4-5.9c-3.6-3.7-6.6-8-9.2-12.7c-0.5-1-1.1-1.9-1.8-2.6
		c-1.3-1.6-2.9-2.8-4.7-3.7c-0.9-0.4-1.9-0.8-2.9-1.1c-0.7-0.2-1.4-0.3-2-0.5c0,0-0.1,0-0.1,0c-0.7-0.1-1.3-0.3-2-0.4c0,0,0,0,0,0
		c-1.7,1.8-3.5,3.5-6.4,5c0,0,0,0,0,0c0.3,0,0.7-0.1,1-0.2c0,0,0,0,0.1,0c0.4-0.1,0.7-0.2,1.1-0.3c0,0,0,0,0,0
		c0.6-0.2,1.2-0.3,1.8-0.3c1.6-0.1,3.2-0.1,4.6,0.2c2.5,0.5,4.8,1.5,6.7,3.1c1.4,1.1,2.7,2.5,3.8,4.2c0.9,1.3,1.7,2.6,2.5,3.9
		c0.6,0.9,1.1,1.7,1.7,2.6c0.9,1.3,1.8,2.5,2.8,3.7c0.6,0.7,1.2,1.3,1.8,2c0.6,0.6,1.2,1.2,1.9,1.8c2.6,2.4,5.3,4.5,8.2,6.4
		c1.5,1,2.9,1.9,4.5,2.8c0.9,0.5,1.8,1,2.1,2c0.6,1.7,1.2,3.3,2,5c0.2,0.5,0.5,1.1,0.7,1.6c2.7,5.8,6,11.2,10.2,16
		c0.1,0.1,0.1,0.2,0.2,0.3c0.1,0.2,0.3,0.4,0.5,0.4c0.1,0,0.2,0,0.3-0.1c0.1,0,0.1-0.1,0.1-0.1C101.7,133.8,101.7,133.7,101.6,133.5
		z"/>
	<path class="st0" d="M25.2,13.1c-2.7,3.2-5.4,4.9-7.4,7.6c-0.4,0.9-0.9,1.3-2,1c-1.1-0.3-2.1,0-2.9,0.8c0,0.3,0.3,0.3,0.4,0.3
		c0.8,0,1.9,0.3,1.8,1c-0.1,0.8-1.4,1.4-2.1,1.1c-1.8-0.8-3.2,0.2-4.7,0.5c-1.1,0.2-2.7,0.1-3.9,0.2c-1.1,0.1-1.3,0.4-0.7,1.4
		c0.8,1.2,2.4,1.6,3.5,2.4c1.3,0.9,2.7,1.6,4.4,2.4C9.9,32,7.4,30.3,6,29.9c-2.3-0.7-4.6-2-4.9-4.1c-0.1-0.9,0.2-1.3,1.2-1.5
		c3.4-0.4,5.8-0.9,8.8-2.9c0.9-0.6,2.1-0.8,3.2-1.1c5.5-2.3,4.9-6.4,12.6-10.8c6.9-3.9,11.3-5.5,18-9.9C35.7,8.3,30.7,8.1,25.2,13.1
		z"/>
	<path class="st0" d="M24,88.3c-4.2,0.1-7.8-1.4-11.1-3.8c-4.7-3.4-7.9-8-10.6-13.1c-0.6-1.2-1.1-2.4-1.7-3.6
		c-0.3-0.6-0.2-0.9,0.4-1.3c3.3-1.7,6.7-3,10.2-4.2c0.8-0.3,1.6-0.5,2.3-0.9c1.9-0.9,2.3-2.5,2.5-4.4c0.3-4,0.6-8,0.1-12
		c-0.1-0.5-0.1-1,0.2-1.6c1.6,5.1,3.2,10.2,3.5,15.5c0.3,4.8-1.5,6-6.1,6.8c-2.2,0.4-4.3,0.9-5.7,2.9C7,70,6.9,71.3,7.5,72.7
		c2.8,6.7,7.6,11.4,14.1,14.4c0.8,0.4,1.7,0.4,2.4,0.9C24,88.1,24,88.2,24,88.3z"/>
	<path class="st0" d="M61.5,63.8c-4.1,0.2-8.2-0.2-12.1-1.5c-5.2-1.6-9.8-4.4-13.6-8.3c-3.1-3.1-5.6-6.6-7-10.9
		c-1.7-5.5-2.6-11.2-4-16.8c-0.3-1.4-0.4-2.7,0.6-4.1c1.1-1.5,1.7-3.3,2.1-5.2c0.3-1.4,0.5-2.8-0.1-4.4C25.3,14.9,23.2,17,21,19
		c-0.2,0.1-0.4,0.3-0.4,0.5c0,0.4-0.4,0.7-0.1,1c0.4,0.3,0.6-0.1,0.9-0.3c1.1-0.5,1.6-1.5,2.6-2.2c0,1.1-0.2,2-0.5,2.9
		c-0.8,1.9-2.2,3.4-3.8,4.7c-0.6,0.5-0.7,1-0.6,1.6c0.7,4.8,1.5,9.6,3.1,14.2c2,5.7,4.8,10.8,8.9,15.2c5.1,5.3,11.2,8.7,18.5,10
		c3.8,0.7,7.4,0.7,11.1,0c2.8-0.8,6.3-1.5,10.9-2C68.3,63.8,64.9,63.6,61.5,63.8z"/>
	<path class="st1" d="M88.6,101.5c-0.7-0.7-1.5-1.3-2.2-2c-0.2-0.2-0.5-0.4-0.7-0.7c-0.3-0.3-0.6-0.6-0.8-0.8
		c-0.8-0.9-1.5-1.8-2.1-2.7c-0.8-1.3-1.3-2.7-1.6-4.3C81,90.3,81,89.6,80.9,89c-0.1-1.3-0.2-2.6-0.1-3.9c0-1.3,0.1-2.6,0.2-3.9
		c0.1-1.9,0.3-3.9,0.5-5.8c0.1-0.8,0.2-1.5,0.5-2c0.3-0.5,0.9-0.7,1.9-0.6c0.3,0,0.8,0,1.3,0c0.5,0,1-0.1,1.3-0.2
		c1.5-0.5,2.8-1.4,3.5-2.7c0.4-0.8,0.7-1.6,0.6-2.5C89,69.2,87.5,70,86,70.2c-1.1,0.1-2.2-0.1-3.2-0.4c-0.4-0.1-0.8-0.3-1.2-0.4
		c-0.4-0.1-0.7-0.3-1.1-0.4c-0.2-0.1-0.4-0.2-0.6-0.4c-0.5-0.3-1-0.6-1.6-0.9c-1.5-0.8-3.2-1.6-4.1-2c-0.5-0.2-0.9-0.4-1.4-0.5
		c-0.4-0.2-0.9-0.3-1.3-0.4c0,0,0,0,0,0c-4.6,0.4-8.1,1.1-10.9,2c0,0,0,0,0,0c0.7-0.1,1.3-0.3,2-0.5c1.1-0.3,2.1-0.4,3-0.4
		c2.4,0,4.5,1,6.3,2.8c0.4,0.4,0.7,0.8,1,1.2c1.4,1.8,2.1,3.9,2.5,6c0.2,1.3,0.3,2.6,0.4,3.9c0,0.6,0,1.2,0.1,1.8
		c0,0.6,0.1,1.2,0.2,1.8c0.1,1.2,0.3,2.4,0.6,3.6c0.5,2.3,1.4,4.6,2.7,6.7c0.3,0.5,0.6,0.9,0.9,1.4c0.9,1.3,1.9,2.5,3.1,3.6
		c0.8,0.7,1.6,1.4,2.4,2c0.9,0.6,1.8,1.2,2.7,1.7C88.9,102,88.5,101.7,88.6,101.5z"/>
</g>
</svg>
