<?xml version="1.0" encoding="UTF-8"?>
<svg id="Layer_2" data-name="Layer 2" xmlns="http://www.w3.org/2000/svg" viewBox="0 0 237.44 237.44">
  <defs>
    <style>
      .cls-1 {
        fill: #fff;
      }
    </style>
  </defs>
  <g id="Layer_1-2" data-name="Layer 1">
    <g>
      <g>
        <g>
          <path class="cls-1" d="m152.83,56.96c.24,12.56-7.79,23.66-16.11,33.73-4.43-5.21-8.93-10.58-13.09-16.12l-.02-.02c-2.93-3.91-5.71-7.92-8.19-12.01-6.58-10.88-11.04-22.45-10.8-34.84.04-1.67.17-3.31.4-4.88.01,0,.01-.01.01-.01,4.36-5.98,9.03-13.32,13.66-22.8,0,0,.01,0,.01-.01.78,1.6,1.58,3.12,2.34,4.61h0c15.87,30.11,31.45,36.51,31.79,52.36Z"/>
          <path class="cls-1" d="m134.16,93.77c-.52.63-1.04,1.26-1.58,1.88-.01,0-.02.01-.02.04h-.01s-.01.02-.02.02h-.01c-.51.63-1.03,1.25-1.54,1.86-.75.9-1.48,1.78-2.21,2.67-.31.37-.59.72-.88,1.09h0c-.12.15-.23.28-.32.42-.05.05-.07.08-.11.13-.04.05-.07.08-.11.13-.02.02-.04.05-.05.07-.02.02-.04.04-.05.06-.04.05-.07.09-.11.14-.25.3-.47.61-.71.91-.25.31-.49.62-.71.91-.95,1.28-1.85,2.54-2.65,3.79-.15.25-.32.49-.45.74-.07.11-.14.2-.2.31-.06.08-.11.18-.17.26-.02.06-.05.11-.07.15-.02.04-.04.06-.05.08h-.01c-.11.15-.18.3-.26.44-.01,0-.01.01-.01.01-.34.61-.65,1.2-.95,1.79-.13.25-.25.5-.36.75-.08.18-.18.37-.25.57-.01.01-.02.04-.04.06-.04.09-.08.19-.11.27-.05.09-.08.19-.12.28-.05.12-.08.23-.13.33-.01.05-.04.09-.05.14-.12.26-.23.55-.3.81-.07.19-.13.38-.18.57-.02.08-.05.17-.07.25-.07.23-.13.46-.19.69-.05.25-.09.49-.14.72-.01.05-.02.11-.04.15h0s-.01.05-.01.06c0,.02-.01.04-.01.06-.04.23-.08.45-.09.69v.04c-.02.17-.05.33-.06.5h-.12c-.04-.43-.08-.83-.15-1.26-.02-.07-.04-.15-.05-.24s-.02-.18-.05-.26c-.04-.13-.06-.28-.09-.42-.06-.25-.12-.5-.2-.74-.2-.69-.43-1.38-.7-2.05-.08-.24-.19-.46-.28-.69-.13-.28-.26-.57-.4-.87-.43-.89-.9-1.77-1.45-2.67h0c-.04-.07-.08-.15-.13-.23-.18-.28-.34-.58-.55-.87-.19-.28-.38-.58-.57-.88-.11-.14-.2-.3-.3-.44-.09-.15-.19-.3-.3-.45-.2-.3-.42-.61-.63-.89-.85-1.19-1.77-2.4-2.75-3.62h0c-.43-.53-.83-1.04-1.26-1.57-1.28-1.58-2.64-3.18-4.01-4.81-.9-1.06-1.82-2.12-2.72-3.2-.59-.71-1.2-1.44-1.82-2.16-.61-.74-1.21-1.47-1.8-2.21-.89-1.1-1.78-2.23-2.65-3.36-1.15-1.51-2.27-3.05-3.31-4.61-.65-.97-1.28-1.95-1.89-2.94-.61-1-1.18-2.01-1.71-3.01-.43-.81-.83-1.63-1.21-2.45-2.16-4.7-3.47-9.61-3.37-14.78.01-.4.04-.8.06-1.19.01-.19.02-.38.05-.56.01-.14.04-.28.06-.42v-.12c.08-.68.19-1.34.33-1.99.15-.69.33-1.34.55-2.01.06-.15.11-.3.15-.45s.09-.3.15-.45c.01-.05.04-.08.06-.12.05-.15.11-.3.17-.45.06-.15.12-.31.19-.46.25-.63.55-1.27.87-1.9.17-.31.34-.62.51-.94.02-.02.04-.05.04-.07.13-.23.26-.45.4-.69.27-.45.56-.9.85-1.35.14-.24.28-.46.45-.69.25-.38.52-.77.8-1.16,0,0,0-.01.01-.01.08-.12.17-.24.25-.36.11-.13.19-.25.27-.37.2-.27.42-.56.62-.84.84-1.12,1.76-2.27,2.73-3.47.49-.61.99-1.21,1.5-1.83.26-.32.52-.63.78-.95.15-.18.3-.36.44-.53.14-.18.28-.34.44-.53.3-.36.58-.71.89-1.09.87-1.07,1.77-2.17,2.68-3.34.24-.3.46-.58.69-.89.08-.09.15-.19.24-.3-.05.17-.08.33-.12.49-.2.9-.36,1.83-.46,2.78,0,.06-.01.11-.01.18-.06.44-.11.89-.13,1.34-.04.55-.07,1.1-.09,1.66-.39,20.45,15.07,38.15,28.57,54.02,1.67,1.98,3.32,3.93,4.89,5.85Z"/>
        </g>
        <g>
          <path class="cls-1" d="m56.96,84.61c12.56-.24,23.66,7.79,33.73,16.11-5.21,4.43-10.58,8.93-16.12,13.09l-.02.02c-3.91,2.93-7.92,5.71-12.01,8.19-10.88,6.58-22.45,11.04-34.84,10.8-1.67-.04-3.31-.17-4.88-.4,0-.01-.01-.01-.01-.01-5.98-4.36-13.32-9.03-22.8-13.66,0,0,0-.01-.01-.01,1.6-.78,3.12-1.58,4.61-2.34h.01c30.1-15.87,36.5-31.45,52.35-31.79Z"/>
          <path class="cls-1" d="m93.77,103.28c.63.52,1.26,1.04,1.88,1.58,0,.01.01.02.04.02h.01s.01.02.01.04h.01c.62.52,1.23,1.04,1.85,1.55.9.75,1.78,1.48,2.67,2.21.37.31.72.59,1.09.88h.01c.14.12.27.23.4.32.05.05.08.07.13.11.05.04.08.07.13.11.02.02.05.04.07.05.02.02.04.04.06.05.05.04.09.07.14.11.3.25.61.47.91.71.31.25.62.49.91.71,1.28.95,2.54,1.85,3.79,2.65.25.15.49.32.74.45.11.07.2.14.31.2.08.06.18.11.26.17.06.02.11.05.15.07.04.02.06.04.08.05h0c.15.12.3.19.44.27,0,.01.01.01.01.01.61.34,1.2.65,1.79.95.25.13.5.25.75.36.18.08.37.18.57.25.01.01.04.02.06.04.09.04.19.08.27.11.09.05.19.08.28.12.12.05.23.08.33.13.05.01.09.04.14.05.26.12.55.23.81.3.19.07.38.13.57.18.08.02.17.05.25.07.23.07.46.13.69.19.25.05.49.09.72.14.05.01.11.02.15.04h.01s.04.01.05.01c.02,0,.04.01.06.01.23.04.45.08.69.09h.04c.17.02.33.05.5.06v.12c-.43.04-.83.08-1.26.15-.07.02-.15.04-.24.05s-.18.02-.26.05c-.13.04-.28.06-.42.09-.25.06-.5.12-.74.2-.69.2-1.38.43-2.05.7-.24.08-.46.19-.69.28-.28.13-.57.26-.87.4-.89.43-1.77.9-2.67,1.45h-.01c-.06.04-.14.08-.21.13-.28.18-.58.34-.87.55-.28.19-.58.38-.88.57-.14.11-.3.2-.44.3-.15.09-.3.19-.45.3-.3.2-.61.42-.89.63-1.19.85-2.4,1.77-3.62,2.75h-.01c-.52.43-1.03.83-1.55,1.26-1.58,1.28-3.18,2.64-4.81,4.01-1.06.9-2.12,1.82-3.2,2.72-.71.59-1.44,1.2-2.16,1.82-.74.61-1.47,1.21-2.21,1.8-1.1.89-2.23,1.78-3.36,2.65-1.51,1.15-3.05,2.27-4.61,3.31-.97.65-1.95,1.28-2.94,1.89-1,.61-2.01,1.18-3.01,1.71-.81.43-1.63.83-2.45,1.21-4.7,2.16-9.61,3.47-14.78,3.37-.4-.01-.8-.04-1.19-.06-.19-.01-.38-.02-.56-.05-.14-.01-.28-.04-.42-.06h-.12c-.68-.08-1.34-.19-1.99-.33-.69-.15-1.34-.33-2.01-.55-.15-.06-.3-.11-.45-.15s-.3-.09-.45-.15c-.05-.01-.08-.04-.12-.06-.15-.05-.3-.11-.45-.17-.15-.06-.31-.12-.46-.19-.63-.25-1.27-.55-1.9-.87-.31-.17-.62-.34-.94-.51-.02-.02-.05-.04-.07-.04-.23-.13-.45-.26-.69-.4-.45-.27-.9-.56-1.35-.85-.24-.14-.46-.28-.69-.45-.38-.25-.77-.52-1.16-.8,0,0-.01,0-.01-.01-.12-.08-.24-.17-.36-.25-.13-.11-.25-.19-.37-.27-.27-.2-.56-.42-.84-.62-1.12-.84-2.27-1.76-3.47-2.73-.61-.49-1.21-.99-1.83-1.5-.32-.26-.63-.52-.95-.78-.18-.15-.36-.3-.53-.44-.18-.14-.34-.28-.53-.44-.36-.3-.71-.58-1.09-.89-1.07-.87-2.17-1.77-3.34-2.68-.3-.24-.58-.46-.89-.69-.09-.08-.19-.15-.3-.24.17.05.33.08.49.12.9.2,1.83.36,2.78.46.06,0,.11.01.18.01.44.06.89.11,1.34.13.55.04,1.1.07,1.66.09,20.45.39,38.15-15.07,54.02-28.57,1.98-1.67,3.93-3.32,5.85-4.89Z"/>
        </g>
        <g>
          <path class="cls-1" d="m84.61,180.48c-.24-12.56,7.79-23.66,16.11-33.73,4.43,5.21,8.93,10.58,13.09,16.12l.02.02c2.93,3.91,5.71,7.92,8.19,12.01,6.58,10.88,11.04,22.45,10.8,34.84-.04,1.67-.17,3.31-.4,4.88-.01,0-.01.01-.01.01-4.36,5.98-9.03,13.32-13.66,22.8,0,0-.01,0-.01.01-.78-1.6-1.58-3.12-2.34-4.61h0c-15.87-30.11-31.45-36.51-31.79-52.36Z"/>
          <path class="cls-1" d="m103.28,143.67c.52-.63,1.04-1.26,1.58-1.88.01,0,.02-.01.02-.04h.01s.01-.02.02-.02h.01c.51-.63,1.03-1.25,1.54-1.86.75-.9,1.48-1.78,2.21-2.67.31-.37.59-.72.88-1.09h0c.12-.15.23-.28.32-.42.05-.05.07-.08.11-.13.04-.05.07-.08.11-.13.02-.02.04-.05.05-.07.02-.02.04-.04.05-.06.04-.05.07-.09.11-.14.25-.3.47-.61.71-.91.25-.31.49-.62.71-.91.95-1.28,1.85-2.54,2.65-3.79.15-.25.32-.49.45-.74.07-.11.14-.2.2-.31.06-.08.11-.18.17-.26.02-.06.05-.11.07-.15.02-.04.04-.06.05-.08h.01c.11-.15.18-.3.26-.44.01,0,.01-.01.01-.01.34-.61.65-1.2.95-1.79.13-.25.25-.5.36-.75.08-.18.18-.37.25-.57.01-.01.02-.04.04-.06.04-.09.08-.19.11-.27.05-.09.08-.19.12-.28.05-.12.08-.23.13-.33.01-.05.04-.09.05-.14.12-.26.23-.55.3-.81.07-.19.13-.38.18-.57.02-.08.05-.17.07-.25.07-.23.13-.46.19-.69.05-.25.09-.49.14-.72.01-.05.02-.11.04-.15h0s.01-.05.01-.06c0-.02.01-.04.01-.06.04-.23.08-.45.09-.69v-.04c.02-.17.05-.33.06-.5h.12c.04.43.08.83.15,1.26.02.07.04.15.05.24s.02.18.05.26c.04.13.06.28.09.42.06.25.12.5.2.74.2.69.43,1.38.7,2.05.08.24.19.46.28.69.13.28.26.57.4.87.43.89.9,1.77,1.45,2.67h0c.04.07.08.15.13.23.18.28.34.58.55.87.19.28.38.58.57.88.11.14.2.3.3.44.09.15.19.3.3.45.2.3.42.61.63.89.85,1.19,1.77,2.4,2.75,3.62h0c.43.53.83,1.04,1.26,1.57,1.28,1.58,2.64,3.18,4.01,4.81.9,1.06,1.82,2.12,2.72,3.2.59.71,1.2,1.44,1.82,2.16.61.74,1.21,1.47,1.8,2.21.89,1.1,1.78,2.23,2.65,3.36,1.15,1.51,2.27,3.05,3.31,4.61.65.97,1.28,1.95,1.89,2.94.61,1,1.18,2.01,1.71,3.01.43.81.83,1.63,1.21,2.45,2.16,4.7,3.47,9.61,3.37,14.78-.01.4-.04.8-.06,1.19-.01.19-.02.38-.05.56-.01.14-.04.28-.06.42v.12c-.08.68-.19,1.34-.33,1.99-.15.69-.33,1.34-.55,2.01-.06.15-.11.3-.15.45s-.09.3-.15.45c-.01.05-.04.08-.06.12-.05.15-.11.3-.17.45-.06.15-.12.31-.19.46-.25.63-.55,1.27-.87,1.9-.17.31-.34.62-.51.94-.02.02-.04.05-.04.07-.13.23-.26.45-.4.69-.27.45-.56.9-.85,1.35-.14.24-.28.46-.45.69-.25.38-.52.77-.8,1.16,0,0,0,.01-.01.01-.08.12-.17.24-.25.36-.11.13-.19.25-.27.37-.2.27-.42.56-.62.84-.84,1.12-1.76,2.27-2.73,3.47-.49.61-.99,1.21-1.5,1.83-.26.32-.52.63-.78.95-.15.18-.3.36-.44.53-.14.18-.28.34-.44.53-.3.36-.58.71-.89,1.09-.87,1.07-1.77,2.17-2.68,3.34-.24.3-.46.58-.69.89-.08.09-.15.19-.24.3.05-.17.08-.33.12-.49.2-.9.36-1.83.46-2.78,0-.06.01-.11.01-.18.06-.44.11-.89.13-1.34.04-.55.07-1.1.09-1.66.39-20.45-15.07-38.15-28.57-54.02-1.67-1.98-3.32-3.93-4.89-5.85Z"/>
        </g>
        <g>
          <path class="cls-1" d="m180.48,152.83c-12.56.24-23.66-7.79-33.73-16.11,5.21-4.43,10.58-8.93,16.12-13.09l.02-.02c3.91-2.93,7.92-5.71,12.01-8.19,10.88-6.58,22.45-11.04,34.84-10.8,1.67.04,3.31.17,4.88.4,0,.01.01.01.01.01,5.98,4.36,13.32,9.03,22.8,13.66,0,0,0,.01.01.01-1.6.78-3.12,1.58-4.61,2.34h-.01c-30.1,15.87-36.5,31.45-52.35,31.79Z"/>
          <path class="cls-1" d="m143.67,134.16c-.63-.52-1.26-1.04-1.88-1.58,0-.01-.01-.02-.04-.02h-.01s-.01-.02-.01-.04h-.01c-.62-.52-1.23-1.04-1.85-1.55-.9-.75-1.78-1.48-2.67-2.21-.37-.31-.72-.59-1.09-.88h-.01c-.14-.12-.27-.23-.4-.32-.05-.05-.08-.07-.13-.11-.05-.04-.08-.07-.13-.11-.02-.02-.05-.04-.07-.05-.02-.02-.04-.04-.06-.05-.05-.04-.09-.07-.14-.11-.3-.25-.61-.47-.91-.71-.31-.25-.62-.49-.91-.71-1.28-.95-2.54-1.85-3.79-2.65-.25-.15-.49-.32-.74-.45-.11-.07-.2-.14-.31-.2-.08-.06-.18-.11-.26-.17-.06-.02-.11-.05-.15-.07-.04-.02-.06-.04-.08-.05h0c-.15-.12-.3-.19-.44-.27,0-.01-.01-.01-.01-.01-.61-.34-1.2-.65-1.79-.95-.25-.13-.5-.25-.75-.36-.18-.08-.37-.18-.57-.25-.01-.01-.04-.02-.06-.04-.09-.04-.19-.08-.27-.11-.09-.05-.19-.08-.28-.12-.12-.05-.23-.08-.33-.13-.05-.01-.09-.04-.14-.05-.26-.12-.55-.23-.81-.3-.19-.07-.38-.13-.57-.18-.08-.02-.17-.05-.25-.07-.23-.07-.46-.13-.69-.19-.25-.05-.49-.09-.72-.14-.05-.01-.11-.02-.15-.04h-.01s-.04-.01-.05-.01c-.02,0-.04-.01-.06-.01-.23-.04-.45-.08-.69-.09h-.04c-.17-.02-.33-.05-.5-.06v-.12c.43-.04.83-.08,1.26-.15.07-.02.15-.04.24-.05s.18-.02.26-.05c.13-.04.28-.06.42-.09.25-.06.5-.12.74-.2.69-.2,1.38-.43,2.05-.7.24-.08.46-.19.69-.28.28-.13.57-.26.87-.4.89-.43,1.77-.9,2.67-1.45h.01c.06-.04.14-.08.21-.13.28-.18.58-.34.87-.55.28-.19.58-.38.88-.57.14-.11.3-.2.44-.3.15-.09.3-.19.45-.3.3-.2.61-.42.89-.63,1.19-.85,2.4-1.77,3.62-2.75h.01c.52-.43,1.03-.83,1.55-1.26,1.58-1.28,3.18-2.64,4.81-4.01,1.06-.9,2.12-1.82,3.2-2.72.71-.59,1.44-1.2,2.16-1.82.74-.61,1.47-1.21,2.21-1.8,1.1-.89,2.23-1.78,3.36-2.65,1.51-1.15,3.05-2.27,4.61-3.31.97-.65,1.95-1.28,2.94-1.89,1-.61,2.01-1.18,3.01-1.71.81-.43,1.63-.83,2.45-1.21,4.7-2.16,9.61-3.47,14.78-3.37.4.01.8.04,1.19.06.19.01.38.02.56.05.14.01.28.04.42.06h.12c.68.08,1.34.19,1.99.33.69.15,1.34.33,2.01.55.15.06.3.11.45.15s.3.09.45.15c.05.01.08.04.12.06.15.05.3.11.45.17.15.06.31.12.46.19.63.25,1.27.55,1.9.87.31.17.62.34.94.51.02.02.05.04.07.04.23.13.45.26.69.4.45.27.9.56,1.35.85.24.14.46.28.69.45.38.25.77.52,1.16.8,0,0,.01,0,.01.01.12.08.24.17.36.25.13.11.25.19.37.27.27.2.56.42.84.62,1.12.84,2.27,1.76,3.47,2.73.61.49,1.21.99,1.83,1.5.32.26.63.52.95.78.18.15.36.3.53.44.18.14.34.28.53.44.36.3.71.58,1.09.89,1.07.87,2.17,1.77,3.34,2.68.3.24.58.46.89.69.09.08.19.15.3.24-.17-.05-.33-.08-.49-.12-.9-.2-1.83-.36-2.78-.46-.06,0-.11-.01-.18-.01-.44-.06-.89-.11-1.34-.13-.55-.04-1.1-.07-1.66-.09-20.45-.39-38.15,15.07-54.02,28.57-1.98,1.67-3.93,3.32-5.85,4.89Z"/>
        </g>
      </g>
      <path class="cls-1" d="m181.17,158.51c-1.12.02-2.22-.01-3.3-.09-2.58,3.83-5.52,7.41-8.78,10.67-3.18,3.18-6.67,6.07-10.41,8.62.09,1.15.13,2.31.11,3.5-.01.33-.02.66-.05,1v.33s-.02.04-.02.06c-.02.45-.06.87-.12,1.26,0,.05-.01.09-.01.14,0,.04-.01.07-.01.11,10.49-6.42,19.34-15.29,25.71-25.82-1.01.13-2.04.2-3.11.23ZM52.91,79.19c1.08-.15,2.2-.24,3.36-.26,1.04-.02,2.07.01,3.07.08,2.59-3.89,5.57-7.51,8.87-10.81,3.22-3.22,6.75-6.14,10.54-8.69-.08-1.07-.12-2.17-.09-3.28,0-.33.02-.66.05-1v-.33s.01-.06.01-.06c.04-.45.07-.87.13-1.26,0-.05,0-.09.01-.14.01-.12.02-.24.05-.36-10.64,6.46-19.57,15.44-25.99,26.1Zm105.36-26.18c.14,1.06.23,2.14.25,3.26.02,1.07-.01,2.11-.08,3.15,7.63,5.14,14.21,11.72,19.36,19.34,1.12-.09,2.26-.13,3.41-.11.33.01.66.04,1,.05l.33.02h.06c.46.02.87.07,1.26.12.05.01.11.01.15.02.07.01.14.01.21.02-6.43-10.56-15.36-19.47-25.95-25.88Zm-79.34,128.16c-.02-1.09.01-2.16.08-3.22-3.88-2.6-7.5-5.57-10.8-8.87-3.18-3.18-6.05-6.66-8.59-10.39-1.1.08-2.23.12-3.37.09-.34-.01-.66-.04-1-.05l-.33-.02h-.07c-.45-.02-.87-.07-1.26-.12-.05-.01-.09-.01-.14-.02-.08-.01-.17-.02-.25-.04,6.45,10.55,15.37,19.43,25.97,25.83-.13-1.03-.21-2.1-.24-3.2Z"/>
    </g>
  </g>
</svg>