<?xml version="1.0" encoding="UTF-8"?>
<svg id="Layer_2" data-name="Layer 2" xmlns="http://www.w3.org/2000/svg" viewBox="0 0 109.95 109.95">
  <defs>
    <style>
      .cls-1 {
        fill: #fff;
      }

      .cls-2 {
        fill: #b8a078;
      }
    </style>
  </defs>
  <g id="Layer_1-2" data-name="Layer 1">
    <g>
      <path class="cls-1" d="m76.14,3.89l29.92,29.93v42.32l-29.92,29.93h-42.32L3.89,76.14v-42.32L33.82,3.89h42.32Zm1.61-3.89h-45.55l-1.14,1.14L1.14,31.07l-1.14,1.14v45.54l1.14,1.14,29.93,29.93,1.14,1.14h45.55l1.14-1.14,29.93-29.93,1.14-1.14v-45.54l-1.14-1.14L78.89,1.14l-1.14-1.14Z"/>
      <polygon class="cls-2" points="9.19 48.07 9.19 61.32 16.01 54.89 9.19 48.07"/>
      <polygon class="cls-2" points="48.07 100.76 61.32 100.76 54.89 93.95 48.07 100.76"/>
      <polygon class="cls-2" points="100.76 61.88 100.76 48.63 93.95 55.07 100.76 61.88"/>
      <polygon class="cls-2" points="61.88 9.19 48.63 9.19 55.07 16.01 61.88 9.19"/>
      <path class="cls-2" d="m52.23,49.49l-2.73,2.73-2.75,2.75,2.75,2.75,2.73,2.73,2.75,2.75,2.75-2.75,2.73-2.73,2.75-2.75-2.75-2.75-2.73-2.73-2.75-2.75-2.75,2.75Zm6.5,5.48l-3.75,3.75-3.75-3.75,3.75-3.75,3.75,3.75Z"/>
      <path class="cls-1" d="m9.19,35.82v3.45h0,0s20.62,0,20.62,0l9.54,9.54-2.98,3.02-8.66-8.66H9.19l12.02,11.68-12.02,11.68h18.52l8.66-8.66,2.98,3.02-9.54,9.54H9.19v3.45l.45.45h16.28l-5.14,5.14h-6.05s5.97,5.93,5.97,5.93l24.61-24.61-5.92-5.92,5.92-5.92-24.61-24.61-11.51,11.51Zm16.14,26.81h-5.91s7.79-7.79,7.79-7.79l-7.79-7.79h5.91s8.06,7.79,8.06,7.79l-8.06,7.79Zm-9.69-27.26l5.13-5.13,5.14,5.13h-10.27Z"/>
      <path class="cls-1" d="m35.82,100.76h3.45s0,0,0,0v-20.62s9.54-9.54,9.54-9.54l3.02,2.98-8.66,8.66v18.52l11.68-12.02,11.68,12.02v-18.52l-8.66-8.66,3.02-2.98,9.54,9.54v20.62h3.45l.45-.45v-16.28l5.13,5.14v6.05s5.93-5.97,5.93-5.97l-24.61-24.61-5.92,5.92-5.92-5.92-24.61,24.61,11.51,11.51Zm26.81-16.14v5.91l-7.79-7.79-7.79,7.79v-5.91l7.79-8.06,7.79,8.06Zm-27.26,9.69l-5.13-5.13,5.13-5.14v10.27Z"/>
      <path class="cls-1" d="m100.76,74.14v-3.45h0,0s-20.62,0-20.62,0l-9.54-9.54,2.98-3.02,8.66,8.66h18.52l-12.02-11.68,12.02-11.68h-18.52l-8.66,8.66-2.98-3.02,9.54-9.54h20.62v-3.45l-.45-.45h-16.28l5.14-5.14h6.05s-5.97-5.93-5.97-5.93l-24.61,24.61,5.92,5.92-5.92,5.92,24.61,24.61,11.51-11.51Zm-16.14-26.81h5.91s-7.79,7.79-7.79,7.79l7.79,7.79h-5.91s-8.06-7.79-8.06-7.79l8.06-7.79Zm9.69,27.26l-5.14,5.13-5.14-5.13h10.27Z"/>
      <path class="cls-1" d="m74.14,9.19h-3.45v20.62l-9.54,9.54-3.02-2.98,8.66-8.66V9.19l-11.68,12.02-11.68-12.02v18.52l8.66,8.66-3.02,2.98-9.54-9.54V9.19h-3.45l-.45.45v16.28l-5.13-5.14v-6.05s-5.93,5.97-5.93,5.97l24.61,24.61,5.92-5.92,5.92,5.92,24.61-24.61-11.51-11.51Zm-26.81,16.14v-5.91l7.79,7.79,7.79-7.79v5.91l-7.79,8.06-7.79-8.06Zm27.26-9.69l5.13,5.13-5.13,5.14v-10.27Z"/>
    </g>
  </g>
</svg>