<?xml version="1.0" encoding="utf-8"?>
<!-- Generator: Adobe Illustrator 27.6.1, SVG Export Plug-In . SVG Version: 6.00 Build 0)  -->
<svg version="1.1" id="Layer_2_00000079485087283553082500000010022648814132548738_"
	 xmlns="http://www.w3.org/2000/svg" xmlns:xlink="http://www.w3.org/1999/xlink" x="0px" y="0px" viewBox="0 0 1019 1019"
	 style="enable-background:new 0 0 1019 1019;" xml:space="preserve">
<style type="text/css">
	.st0{fill:#FFFFFF;}
</style>
<g id="Layer_1-2">
	<g>
		<g>
			<path class="st0" d="M499.2,348.8v25.5c-23.5,1.8-45.4,9.5-64,21.8l-43.9-43.9l16.5-49h-65.5l-48.6-48.6h170.3l-22.4,94.1
				C480.3,339.2,499.2,348.8,499.2,348.8L499.2,348.8z"/>
			<path class="st0" d="M519.7,348.8v25.5c23.5,1.8,45.4,9.5,64,21.8l43.9-43.9l-16.5-49h65.5l48.6-48.6H554.8l22.4,94.1
				C538.6,339.2,519.7,348.8,519.7,348.8L519.7,348.8z"/>
			<path class="st0" d="M348.8,519.7h25.5c1.8,23.5,9.5,45.4,21.8,64l-43.9,43.9l-49-16.5v65.5l-48.6,48.6V554.8l94.1,22.4
				C339.2,538.6,348.8,519.7,348.8,519.7L348.8,519.7z"/>
			<path class="st0" d="M348.8,499.2h25.5c1.8-23.5,9.5-45.4,21.8-64l-43.9-43.9l-49,16.5v-65.5l-48.6-48.6v170.3l94.1-22.4
				C339.2,480.3,348.8,499.2,348.8,499.2L348.8,499.2z"/>
			<path class="st0" d="M519.7,670.1v-25.5c23.5-1.8,45.4-9.5,64-21.8l43.9,43.8l-16.5,49h65.5l48.6,48.6H554.8l22.4-94.1
				C538.6,679.7,519.7,670.1,519.7,670.1L519.7,670.1z"/>
			<path class="st0" d="M499.2,670.1v-25.5c-23.5-1.8-45.4-9.5-64-21.8l-43.9,43.8l16.5,49h-65.5l-48.6,48.6h170.3l-22.4-94.1
				C480.3,679.7,499.2,670.1,499.2,670.1L499.2,670.1z"/>
			<path class="st0" d="M670.1,499.2h-25.5c-1.8-23.5-9.5-45.4-21.8-64l43.8-43.9l49,16.5v-65.5l48.6-48.6v170.3l-94.1-22.4
				C679.7,480.3,670.1,499.2,670.1,499.2L670.1,499.2z"/>
			<path class="st0" d="M670.1,519.7h-25.5c-1.8,23.5-9.5,45.4-21.8,64l43.8,43.9l49-16.5v65.5l48.6,48.6V554.8l-94.1,22.4
				C679.7,538.6,670.1,519.7,670.1,519.7L670.1,519.7z"/>
		</g>
		<g>
			<polygon class="st0" points="544,303.3 475,303.3 486.6,254.7 532.4,254.7 			"/>
			<polygon class="st0" points="303.3,475 303.3,543.9 254.7,532.3 254.7,486.6 			"/>
			<polygon class="st0" points="475,715.7 543.9,715.7 532.3,764.2 486.6,764.2 			"/>
			<polygon class="st0" points="715.7,544 715.7,475 764.2,486.6 764.2,532.4 			"/>
			<polygon class="st0" points="584.7,224.4 547.6,224.4 509.5,64.9 471.4,224.4 434.2,224.4 509.5,0 509.5,0 			"/>
			<polygon class="st0" points="224.4,434.2 224.4,471.4 64.9,509.5 224.4,547.6 224.4,584.8 0,509.5 0,509.5 			"/>
			<polygon class="st0" points="434.2,794.5 471.4,794.5 509.5,954 547.6,794.5 584.8,794.5 509.5,1019 509.5,1019 			"/>
			<polygon class="st0" points="794.5,584.7 794.5,547.6 954,509.5 794.5,471.4 794.5,434.2 1019,509.5 1019,509.5 			"/>
		</g>
	</g>
</g>
</svg>
