<?xml version="1.0" encoding="utf-8"?>
<!-- Generator: Adobe Illustrator 27.6.1, SVG Export Plug-In . SVG Version: 6.00 Build 0)  -->
<svg version="1.1" id="Layer_2_00000093150671479055377180000015114048011828624063_"
	 xmlns="http://www.w3.org/2000/svg" xmlns:xlink="http://www.w3.org/1999/xlink" x="0px" y="0px" viewBox="0 0 941.8 304.2"
	 style="enable-background:new 0 0 941.8 304.2;" xml:space="preserve">
<style type="text/css">
	.st0{fill:#FFFFFF;}
	.st1{fill:#F20C90;}
</style>
<g id="Layer_2-2">
	<g>
		<path class="st0" d="M841.8,59.3c-18.6-1.2-33.9,9.6-36,30c-2.1,19.5,9.3,34.8,27.6,38.4c23.7,4.8,45.3,11.4,45.3,34.2h-60.6
			c-22.5,0-38.4,15.6-38.4,37.5s15.9,38.1,38.4,38.1h88.8c20.1,0,34.8-14.7,34.8-34.8v-29.1C941.8,107,905.4,63.5,841.8,59.3"/>
		<path class="st0" d="M24.9,210.6h2.2c1.7,0,2.9-0.9,2.9-2.6s-1.2-2.6-2.9-2.6h-2.2V210.6L24.9,210.6z M37.1,219
			c0.7,0.9,1.2,1.7,1.2,2.8c0,2.3-1.6,3.9-3.9,3.9c-1.3,0-2.5-0.6-3.2-1.7l-5.2-7.1h-1v4.7c0,2.3-1.7,4-3.9,4s-3.9-1.7-3.9-4V203
			c0-2.3,1.7-4,4-4h7.9c5.1,0,9,3.6,9,9c0,3.2-1.4,5.7-3.5,7.3L37.1,219L37.1,219z M46.4,212.4c0-10.6-8.6-19.2-19.2-19.2
			S8,201.8,8,212.4s8.6,19.2,19.2,19.2S46.4,223,46.4,212.4 M54.3,212.4c0,14.6-12.1,26.4-27.2,26.4S0,227,0,212.4
			s12.1-26.4,27.2-26.4S54.3,197.8,54.3,212.4"/>
		<path class="st1" d="M161,119.4c-20.1,0-27.3-17.1-34.2-47.7c-1.5-6.6-2.4-12.6-2.4-15.6c0-19.8,15.9-30.9,31.5-30.9
			c12,0,21.6,4.5,27.3,14.7c4.2,7.5,5.7,18,5.7,32.1s-1.2,25.5-4.5,32.7C179.6,114.9,170.6,119.4,161,119.4"/>
		<path class="st0" d="M639.3,20.3c-18,0-33,15-33,33s15.3,33.3,33,33.3s33-15,33-33.3S657.9,20.3,639.3,20.3"/>
		<path class="st0" d="M639.3,108.5c-18.6,0-33,14.7-33,33.3v20.1h-38v-9.3c0-47.1-28.2-69.3-89.4-69.3H348.7l67.5-25.8
			c40.5-15.6,16.5-69.9-21.9-54.9l-58.5,22.8c-36.9,14.4-51.6,39.3-51.6,62.4c0,29.4,23.4,56.1,54.6,56.1H463
			c40.2,0,45.3,1.8,45.3,14.1v3.9H286.5c-24,0-28.8-2.1-33-15.6c-5.4-18-16.2-27-32.7-27c-20.4,0-33,14.1-33,37.5v39.9
			c0,18-8.4,28.8-22.8,28.8s-23.4-13.8-23.4-36.3c0-7.8,1.5-17.4,1.5-22.5c0-18.3-11.4-30.6-29.1-30.6c-25.2,0-38.7,23.7-38.7,69.3
			c0,61.2,32.4,98.7,83.4,98.7c57.3,0,88.5-27,95.7-85.5c6,13.2,16.2,18.9,32,18.9c0,0,0.1,0,0.1,0h327.9
			c42.6,0,57.9-15.3,57.9-58.8v-36.9C672.3,122.6,658.5,108.5,639.3,108.5"/>
		<path class="st0" d="M727.5,11.3c-20.1,0-33.6,14.1-33.6,34.5v161.4c0,20.4,13.5,34.5,33.6,34.5s33.6-14.1,33.6-34.5V45.8
			C761.1,25.4,747.6,11.3,727.5,11.3"/>
	</g>
</g>
</svg>
