<?xml version="1.0" encoding="utf-8"?>
<!-- Generator: Adobe Illustrator 27.6.1, SVG Export Plug-In . SVG Version: 6.00 Build 0)  -->
<svg version="1.1" id="Layer_2_00000070830501035419671060000000318437465240129942_"
	 xmlns="http://www.w3.org/2000/svg" xmlns:xlink="http://www.w3.org/1999/xlink" x="0px" y="0px" viewBox="0 0 114.4 38.6"
	 style="enable-background:new 0 0 114.4 38.6;" xml:space="preserve">
<style type="text/css">
	.st0{fill:#FFFFFF;}
</style>
<g id="letterheads">
	<g>
		<path class="st0" d="M41.7,23.6c-4.1,0-7.4,3.3-7.4,7.4l0,0c0,4.1,3.3,7.4,7.4,7.4h7.4V31C49.1,27,45.7,23.6,41.7,23.6z M41.7,34
			c-1.6,0-3-1.3-3-3s1.3-3,3-3s3,1.3,3,3C44.6,32.7,43.3,34,41.7,34z M25.3,23.6c-4.1,0-7.4,3.3-7.4,7.4v7.4h7.4
			c4.1,0,7.4-3.3,7.4-7.4l0,0C32.8,27,29.4,23.6,25.3,23.6z M25.3,34c-1.6,0-3-1.3-3-3s1.3-3,3-3s3,1.3,3,3C28.3,32.7,27,34,25.3,34
			z M33.5,26.3c-1.6,0-3-1.3-3-3s1.3-3,3-3c1.6,0,3,1.3,3,3S35.1,26.3,33.5,26.3z M49.1,4.7L49.1,4.7v7.4l0,0c0,4.1-3.3,7.4-7.4,7.4
			h-7.4c0-2.5,2-4.4,4.5-4.4h3c1.6,0,3-1.3,3-3v-3C44.6,6.7,46.6,4.7,49.1,4.7L49.1,4.7z M90.6,23.7h-7.4v7.4c0,4.1,3.3,7.4,7.4,7.4
			H98v-7.4C98,27,94.7,23.7,90.6,23.7z M90.6,34c-1.6,0-3-1.3-3-3s1.3-3,3-3s3,1.3,3,3C93.5,32.7,92.2,34,90.6,34z M114.3,23.6
			c0,2.5-2,4.5-4.4,4.5h-3c-1.6,0-3,1.3-3,3v3c0,2.5-2,4.5-4.4,4.5l0,0v-7.4c0-4.1,3.3-7.4,7.4-7.4L114.3,23.6L114.3,23.6z
			 M7.5,22.4H0.1c0-2.5,2-4.4,4.4-4.4h3c1.6,0,3-1.3,3-3l0,0V9c0-2.5,2-4.5,4.4-4.5l0,0V15l0,0C15,19.1,11.6,22.4,7.5,22.4
			C7.6,22.4,7.6,22.4,7.5,22.4z M16.4,28.1v10.4l0,0c-2.5,0-4.4-2-4.4-4.5v-4.5c0-0.8-0.7-1.5-1.5-1.5l0,0v10.4
			c-2.5,0-4.4-2-4.4-4.5v-4.5c0-0.8-0.7-1.5-1.5-1.5l0,0v10.4l0,0c-2.5,0-4.4-2-4.4-4.5V23.7H12C14.4,23.7,16.4,25.6,16.4,28.1z
			 M16.4,12.1L16.4,12.1v-12c2.5,0,4.5,2,4.5,4.4v7.5l0,0c0,1.6,1.3,3,3,3l0,0h4.5c2.5,0,4.5,2,4.5,4.4l0,0h-8.9
			C19.8,19.5,16.4,16.2,16.4,12.1L16.4,12.1z M81.6,30.2c0-0.1,0-0.3-0.1-0.5c0-0.1,0-0.2-0.1-0.2c0-0.1-0.1-0.3-0.1-0.5
			c0-0.1,0-0.1-0.1-0.2c0,0,0,0,0,0c0,0,0-0.1-0.1-0.1c-0.1-0.2-0.1-0.4-0.2-0.5c0-0.1-0.1-0.1-0.1-0.2c-0.1-0.2-0.2-0.3-0.2-0.5
			c0-0.1-0.1-0.1-0.1-0.2c-0.1-0.1-0.2-0.3-0.3-0.5c0,0-0.1-0.1-0.1-0.1c-0.1-0.1-0.2-0.3-0.3-0.4c0,0,0,0,0,0c0,0-0.1-0.1-0.1-0.1
			c-0.1-0.2-0.3-0.3-0.4-0.5c-0.1,0-0.1-0.1-0.2-0.1c-0.1-0.1-0.3-0.2-0.4-0.4c-0.1,0-0.1-0.1-0.2-0.1c-0.2-0.1-0.3-0.2-0.5-0.3
			c-0.1,0-0.1-0.1-0.2-0.1c-0.2-0.1-0.3-0.2-0.5-0.3c0,0-0.1,0-0.1-0.1c0,0,0,0-0.1,0c-0.2-0.1-0.3-0.1-0.5-0.2
			c-0.1,0-0.1,0-0.2-0.1C76.4,24,76.2,24,76,23.9c-0.1,0-0.1,0-0.2,0c-0.2,0-0.4-0.1-0.6-0.1c-0.1,0-0.1,0-0.2,0c-0.3,0-0.5,0-0.8,0
			h-3v-4.2c0-0.1,0-0.2,0-0.3c0-0.1,0-0.2-0.1-0.3c0-0.1,0-0.3-0.1-0.4c0-0.1-0.1-0.3-0.1-0.4c0-0.1-0.1-0.3-0.1-0.4
			c-0.1-0.1-0.1-0.2-0.2-0.4c-0.1-0.1-0.1-0.2-0.2-0.3c-0.1-0.1-0.2-0.2-0.3-0.3c-0.1-0.1-0.2-0.2-0.2-0.3c-0.1-0.1-0.2-0.2-0.3-0.3
			c-0.1-0.1-0.2-0.2-0.3-0.2c-0.1-0.1-0.3-0.2-0.4-0.2c-0.1-0.1-0.2-0.1-0.3-0.2c-0.2-0.1-0.3-0.1-0.5-0.2c-0.1,0-0.2-0.1-0.3-0.1
			c-0.3-0.1-0.6-0.1-0.9-0.1v16c0,0.3,0,0.6,0.1,1c0,0.1,0,0.2,0,0.2c0.1,0.3,0.1,0.6,0.2,0.8c0,0,0,0.1,0,0.1
			c0.1,0.3,0.2,0.6,0.3,0.9c0,0.1,0.1,0.1,0.1,0.2c0.1,0.2,0.3,0.5,0.4,0.7c0,0,0,0,0,0.1c0,0,0,0,0,0c0.1,0.2,0.2,0.4,0.4,0.5
			c0,0,0,0.1,0.1,0.1c0.2,0.2,0.3,0.4,0.5,0.6l0,0c0,0,0,0,0,0c0.2,0.2,0.3,0.3,0.5,0.5c0,0,0.1,0.1,0.1,0.1
			c0.2,0.1,0.3,0.2,0.5,0.3c0,0,0,0,0,0c0,0,0.1,0,0.1,0c0.2,0.1,0.4,0.2,0.6,0.3c0.1,0,0.1,0.1,0.2,0.1c0.2,0.1,0.4,0.2,0.7,0.3
			c0,0,0.1,0,0.1,0c0,0,0,0,0,0c0.3,0.1,0.6,0.2,0.8,0.2c0,0,0,0,0.1,0c0.3,0,0.5,0.1,0.8,0.1c0,0,0.1,0,0.1,0c0.2,0,0.3,0,0.5,0
			h7.4V31c0-0.2,0-0.5,0-0.7C81.6,30.3,81.6,30.2,81.6,30.2L81.6,30.2z M77.3,31.7c0,0.1,0,0.2-0.1,0.2c0,0.1-0.1,0.2-0.1,0.3
			c0,0.1-0.1,0.2-0.1,0.2c-0.1,0.1-0.1,0.2-0.2,0.3c0,0.1-0.1,0.1-0.1,0.2c-0.1,0.1-0.1,0.2-0.2,0.2c-0.1,0.1-0.1,0.1-0.2,0.2
			c-0.1,0.1-0.2,0.1-0.2,0.2c-0.1,0-0.1,0.1-0.2,0.1c-0.1,0.1-0.2,0.1-0.3,0.2c-0.1,0-0.1,0.1-0.2,0.1c-0.1,0-0.2,0.1-0.4,0.1
			c-0.1,0-0.1,0-0.2,0c-0.2,0-0.4,0.1-0.6,0.1c-0.2,0-0.3,0-0.5,0c-0.1,0-0.1,0-0.2,0c-0.1,0-0.3-0.1-0.4-0.1c0,0-0.1,0-0.1,0
			c-0.2-0.1-0.3-0.2-0.4-0.2c0,0-0.1-0.1-0.1-0.1c-0.1-0.1-0.2-0.2-0.3-0.2c0,0-0.1-0.1-0.1-0.1c-0.1-0.1-0.2-0.2-0.3-0.4
			c0,0,0,0,0,0c-0.1-0.1-0.2-0.3-0.2-0.5c0,0,0-0.1-0.1-0.1c-0.1-0.1-0.1-0.2-0.1-0.4c0,0,0-0.1,0-0.2c0-0.2-0.1-0.4-0.1-0.5
			c0-0.2,0-0.3,0.1-0.5c0,0,0-0.1,0-0.1c0-0.2,0.1-0.4,0.2-0.5c0-0.1,0.1-0.1,0.1-0.2c0.1-0.1,0.1-0.2,0.2-0.3
			c0-0.1,0.1-0.1,0.1-0.2c0.1-0.1,0.1-0.2,0.2-0.2c0.1-0.1,0.1-0.1,0.2-0.2c0.1-0.1,0.2-0.1,0.2-0.2c0.1,0,0.1-0.1,0.2-0.1
			c0.1-0.1,0.2-0.1,0.3-0.1c0.1,0,0.1-0.1,0.2-0.1c0.1,0,0.2-0.1,0.3-0.1c0.1,0,0.1,0,0.2-0.1c0.2,0,0.4-0.1,0.6-0.1
			c1.7,0,3,1.4,3,3C77.3,31.3,77.3,31.4,77.3,31.7L77.3,31.7z M64.4,29.6c-0.1,0-0.2,0-0.3,0c-0.1,0-0.2,0-0.3-0.1
			c-0.1,0-0.2,0-0.2-0.1c-0.1,0-0.2-0.1-0.3-0.1c-0.1,0-0.2-0.1-0.2-0.1s-0.2-0.1-0.2-0.1c-0.1,0-0.2-0.1-0.3-0.1
			c-0.1,0-0.2-0.1-0.2-0.1c-0.1,0-0.2-0.1-0.2-0.1c-0.2-0.1-0.3-0.2-0.4-0.3c0,0-0.1-0.1-0.1-0.1c-0.2-0.1-0.3-0.3-0.5-0.5
			c0,0-0.1-0.1-0.1-0.1c-0.1-0.1-0.2-0.3-0.3-0.4c0-0.1-0.1-0.1-0.1-0.2c-0.1-0.1-0.2-0.3-0.3-0.4c0,0-0.1-0.1-0.1-0.2
			c-0.1-0.2-0.2-0.4-0.3-0.6c0,0,0-0.1,0-0.1c-0.1-0.2-0.1-0.4-0.2-0.6c0-0.1,0-0.1-0.1-0.2c0-0.2-0.1-0.3-0.1-0.5
			c0-0.1,0-0.1,0-0.2c0-0.2,0-0.5,0-0.7h-1.4c-0.1,0-0.2,0-0.4,0c-0.1,0-0.2,0-0.2,0c-0.1,0-0.2,0-0.3,0c-0.1,0-0.3,0-0.4,0.1
			c-0.1,0-0.2,0-0.3,0c-0.2,0-0.3,0.1-0.4,0.1c-0.1,0-0.2,0-0.2,0.1c-0.2,0.1-0.4,0.1-0.6,0.2c0,0,0,0,0,0c-0.3,0.1-0.6,0.3-0.9,0.5
			c-0.1,0-0.1,0.1-0.2,0.1c-0.6,0.4-1.1,0.8-1.5,1.2c0,0-0.1,0.1-0.1,0.1c-0.2,0.2-0.4,0.5-0.6,0.8l0,0c0,0.1-0.1,0.2-0.1,0.2
			c-0.1,0.1-0.1,0.2-0.2,0.4c-0.1,0.2-0.2,0.4-0.3,0.6l0,0c-0.2,0.6-0.4,1.2-0.5,1.9c0,0.3-0.1,0.7-0.1,1v7.4H58c0,0,0,0,0,0
			c0.2,0,0.5,0,0.7,0c0.1,0,0.2,0,0.2,0c0.2,0,0.3,0,0.4-0.1c0.1,0,0.2,0,0.3-0.1c0.1,0,0.3-0.1,0.4-0.1c0.1,0,0.2-0.1,0.3-0.1
			c0.1,0,0.1,0,0.2-0.1c0.1,0,0.2-0.1,0.3-0.1c0,0,0,0,0,0c0.1,0,0.2-0.1,0.3-0.2c0.1,0,0.2-0.1,0.3-0.1s0.2-0.1,0.3-0.2
			c0.1-0.1,0.2-0.1,0.3-0.2c0.1-0.1,0.2-0.1,0.2-0.2c0.1-0.1,0.2-0.2,0.3-0.2c0.1-0.1,0.2-0.1,0.2-0.2c0,0,0.1-0.1,0.2-0.1
			c0,0,0,0,0.1-0.1c0.2-0.2,0.5-0.5,0.7-0.7c0,0,0-0.1,0.1-0.1c0.2-0.2,0.4-0.5,0.5-0.8c0,0,0.1-0.1,0.1-0.2
			c0.2-0.3,0.3-0.6,0.4-0.9c0-0.1,0-0.1,0.1-0.2c0.1-0.3,0.2-0.7,0.3-1c0,0,0,0,0,0l0,0c0-0.2,0.1-0.4,0.1-0.6c0,0,0-0.1,0-0.1
			c0-0.2,0-0.5,0-0.8v-1.4c-0.2,0-0.4,0-0.6,0C64.7,29.6,64.6,29.6,64.4,29.6L64.4,29.6z M60.9,31.7c0,0.1,0,0.2-0.1,0.2
			c0,0.1-0.1,0.2-0.1,0.3c0,0,0,0.1-0.1,0.1c-0.1,0.1-0.1,0.2-0.2,0.4c0,0-0.1,0.1-0.1,0.2c-0.1,0.1-0.2,0.2-0.2,0.3
			c0,0-0.1,0.1-0.1,0.1c-0.1,0.1-0.3,0.2-0.4,0.3c0,0,0,0-0.1,0c-0.1,0.1-0.3,0.2-0.4,0.2c0,0-0.1,0-0.2,0.1c-0.1,0-0.2,0.1-0.4,0.1
			c0,0-0.1,0-0.2,0c-0.2,0-0.4,0.1-0.5,0.1c-0.2,0-0.4,0-0.6-0.1c0,0,0,0,0,0c-0.2,0-0.3-0.1-0.5-0.2c0,0-0.1,0-0.2-0.1
			c-0.1,0-0.2-0.1-0.3-0.2c0,0-0.1-0.1-0.2-0.1c-0.1-0.1-0.2-0.2-0.3-0.2c0,0-0.1-0.1-0.1-0.1c-0.1-0.1-0.2-0.3-0.3-0.4
			c0,0,0-0.1-0.1-0.1c-0.1-0.1-0.1-0.2-0.2-0.4c0-0.1,0-0.1-0.1-0.2c0-0.1-0.1-0.2-0.1-0.4c0-0.1,0-0.1,0-0.2c0-0.2-0.1-0.4-0.1-0.5
			s0-0.4,0.1-0.6c0-0.1,0-0.1,0-0.2c0-0.1,0.1-0.2,0.1-0.4c0-0.1,0.1-0.1,0.1-0.2c0-0.1,0.1-0.2,0.2-0.3c0-0.1,0.1-0.1,0.1-0.2
			c0.1-0.1,0.1-0.2,0.2-0.2c0-0.1,0.1-0.1,0.2-0.2c0.1-0.1,0.2-0.1,0.2-0.2c0.1,0,0.1-0.1,0.2-0.1c0.1-0.1,0.2-0.1,0.3-0.2
			c0.1,0,0.1-0.1,0.2-0.1c0.1,0,0.2-0.1,0.4-0.1c0.1,0,0.1,0,0.2,0c0.2,0,0.4-0.1,0.6-0.1c0.1,0,0.3,0,0.4,0c0.1,0,0.2,0,0.3,0
			c0.1,0,0.2,0.1,0.3,0.1s0.2,0.1,0.3,0.1c0.1,0,0.2,0.1,0.3,0.1c0.1,0,0.2,0.1,0.2,0.1c0.1,0.1,0.2,0.1,0.2,0.2
			c0.1,0.1,0.1,0.1,0.2,0.2c0.1,0.1,0.1,0.2,0.2,0.2c0,0.1,0.1,0.1,0.2,0.2c0.1,0.1,0.1,0.2,0.2,0.3c0,0.1,0.1,0.1,0.1,0.2
			c0,0.1,0.1,0.2,0.1,0.4c0,0.1,0,0.1,0.1,0.2c0,0.2,0.1,0.4,0.1,0.6S60.9,31.5,60.9,31.7L60.9,31.7z M65.2,11.1
			c0-0.2,0-0.3-0.1-0.5c0-0.1,0-0.2-0.1-0.2c0-0.1-0.1-0.3-0.1-0.4c0-0.1-0.1-0.2-0.1-0.2c-0.1-0.1-0.1-0.3-0.2-0.4
			c0-0.1-0.1-0.1-0.1-0.2c-0.1-0.2-0.2-0.3-0.2-0.5c0,0,0-0.1-0.1-0.1C64.3,8.3,64.2,8.2,64,8c0-0.1-0.1-0.1-0.1-0.2
			c-0.1-0.1-0.2-0.2-0.3-0.3c-0.1-0.1-0.1-0.1-0.2-0.2C63.4,7.1,63.3,7,63.2,7c-0.1-0.1-0.1-0.1-0.2-0.2c-0.1-0.1-0.2-0.2-0.3-0.3
			c-0.1-0.1-0.1-0.1-0.2-0.2c-0.1-0.1-0.2-0.2-0.3-0.3C62.1,6,62.1,6,62,5.9c-0.2-0.1-0.4-0.2-0.5-0.3c-0.1,0-0.2-0.1-0.2-0.1
			c-0.1-0.1-0.2-0.1-0.4-0.2c-0.1,0-0.2-0.1-0.3-0.1c-0.1-0.1-0.2-0.1-0.3-0.1C60.1,5,60.1,5,60,5c0,0-0.1,0-0.2-0.1
			c0,0-0.1,0-0.2,0c-0.2,0-0.3-0.1-0.5-0.1c-0.1,0-0.2,0-0.3,0c-0.2,0-0.4,0-0.6-0.1c0,0-0.1,0-0.2,0c-0.1,0-0.1,0-0.2,0h-7.4v7.4
			c0,0.2,0,0.5,0,0.8c0,0.1,0,0.2,0,0.2c0,0.2,0,0.3,0.1,0.5c0,0.1,0,0.2,0.1,0.3c0,0.1,0.1,0.3,0.1,0.4c0,0.1,0.1,0.2,0.1,0.3
			c0,0.1,0.1,0.2,0.1,0.4c0,0.1,0.1,0.2,0.2,0.3c0,0.1,0.1,0.2,0.2,0.3c0.1,0.1,0.1,0.2,0.2,0.3c0.1,0.1,0.1,0.2,0.2,0.3
			c0.1,0.1,0.2,0.2,0.2,0.3c0.1,0.1,0.1,0.2,0.2,0.3c0.1,0.1,0.2,0.2,0.3,0.3c0.1,0.1,0.1,0.1,0.2,0.2c0.1,0.1,0.2,0.2,0.3,0.3
			c0.1,0.1,0.1,0.1,0.2,0.2c0.1,0.1,0.2,0.2,0.3,0.3c0.1,0.1,0.2,0.1,0.2,0.2c0.1,0.1,0.2,0.1,0.4,0.2c0.1,0,0.2,0.1,0.2,0.1
			c0.1,0.1,0.3,0.1,0.4,0.2c0.1,0,0.2,0.1,0.2,0.1c0.1,0.1,0.3,0.1,0.4,0.2c0.1,0,0.2,0.1,0.2,0.1c0.1,0,0.3,0.1,0.4,0.1
			c0.1,0,0.2,0,0.3,0.1c0.2,0,0.3,0.1,0.4,0.1c0.1,0,0.2,0,0.3,0c0.2,0,0.3,0,0.5,0c0.1,0,0.1,0,0.2,0c0.1,0,0.2,0,0.2,0h3v4.2
			c0,0.3,0,0.5,0.1,0.8c0,0,0,0.1,0,0.1c0,0.2,0.1,0.5,0.2,0.7c0,0,0,0.1,0.1,0.1c0.1,0.2,0.2,0.4,0.3,0.6c0,0,0,0,0.1,0.1
			c0.1,0.2,0.3,0.4,0.4,0.5c0,0,0,0.1,0.1,0.1c0.1,0.1,0.3,0.2,0.4,0.4c0,0,0.1,0.1,0.2,0.1c0,0,0.1,0.1,0.1,0.1
			c0.2,0.1,0.4,0.2,0.6,0.3c0,0,0,0,0.1,0c0,0,0.1,0,0.1,0c0.2,0.1,0.5,0.2,0.7,0.2c0,0,0.1,0,0.1,0C64.7,28,65,28,65.3,28V12
			c0-0.2,0-0.5,0-0.7C65.2,11.3,65.2,11.2,65.2,11.1L65.2,11.1z M60.9,12.7c0,0.1,0,0.1-0.1,0.2c0,0.1-0.1,0.2-0.1,0.4
			c0,0.1-0.1,0.1-0.1,0.2c0,0.1-0.1,0.2-0.2,0.3c0,0.1-0.1,0.1-0.2,0.2c-0.1,0.1-0.1,0.2-0.2,0.2c-0.1,0.1-0.1,0.1-0.2,0.2
			c-0.1,0.1-0.2,0.1-0.2,0.2c-0.1,0.1-0.2,0.1-0.2,0.1c-0.1,0.1-0.2,0.1-0.3,0.1s-0.2,0.1-0.3,0.1c-0.1,0-0.2,0.1-0.3,0.1
			c-0.1,0-0.2,0-0.3,0.1c-0.1,0-0.3,0-0.4,0c-1.7,0-3-1.4-3-3c0-0.2,0-0.4,0-0.5c0-0.1,0-0.2,0.1-0.3c0-0.1,0.1-0.2,0.1-0.3
			c0-0.1,0.1-0.2,0.1-0.2c0-0.1,0.1-0.2,0.2-0.3c0-0.1,0.1-0.1,0.1-0.2c0.1-0.1,0.1-0.2,0.2-0.2c0.1-0.1,0.1-0.1,0.2-0.2
			c0.1-0.1,0.2-0.1,0.2-0.2c0.1-0.1,0.1-0.1,0.2-0.1c0.1-0.1,0.2-0.1,0.3-0.2c0.1,0,0.1-0.1,0.2-0.1c0.1-0.1,0.2-0.1,0.4-0.1
			c0.1,0,0.1,0,0.2-0.1c0.2,0,0.4-0.1,0.6-0.1s0.4,0,0.6,0.1c0.1,0,0.1,0,0.2,0.1c0.1,0,0.2,0.1,0.3,0.1c0,0,0.1,0.1,0.2,0.1
			c0.1,0.1,0.2,0.1,0.3,0.2c0,0,0.1,0.1,0.2,0.1c0.1,0.1,0.2,0.2,0.3,0.2c0,0,0.1,0.1,0.1,0.1c0.1,0.1,0.2,0.3,0.3,0.4
			c0,0,0,0.1,0.1,0.1c0.1,0.1,0.1,0.2,0.2,0.4c0,0.1,0,0.1,0.1,0.2c0,0.1,0.1,0.2,0.1,0.4c0,0.1,0,0.1,0,0.2c0,0.2,0.1,0.4,0.1,0.6
			C60.9,12.3,60.9,12.5,60.9,12.7L60.9,12.7z M77.1,4.7h-2.8c-0.2,0-0.5,0-0.7,0c-0.1,0-0.2,0-0.2,0c-0.2,0-0.3,0-0.4,0.1
			c-0.1,0-0.2,0-0.3,0.1c-0.1,0-0.3,0.1-0.4,0.1c-0.1,0-0.2,0.1-0.3,0.1c-0.1,0-0.2,0.1-0.3,0.1c-0.1,0-0.2,0.1-0.3,0.1
			c-0.1,0.1-0.2,0.1-0.3,0.2s-0.2,0.1-0.3,0.2c-0.1,0.1-0.2,0.1-0.3,0.2C70.3,5.9,70.2,6,70.1,6c-0.1,0.1-0.2,0.1-0.2,0.2
			c-0.1,0.1-0.2,0.1-0.3,0.2c0,0,0,0,0,0c0,0-0.1,0.1-0.1,0.1c-0.1,0.1-0.3,0.2-0.4,0.4C69,7,68.9,7,68.9,7.1
			c-0.1,0.1-0.2,0.3-0.3,0.4c0,0,0,0,0,0c0,0,0,0.1-0.1,0.1C68.3,7.8,68.2,8,68,8.2c0,0.1-0.1,0.1-0.1,0.2c-0.1,0.2-0.2,0.5-0.4,0.7
			c0,0,0,0.1,0,0.1c-0.1,0.3-0.2,0.6-0.3,0.8c0,0.1,0,0.1-0.1,0.2c-0.1,0.2-0.1,0.5-0.2,0.7c0,0,0,0.1,0,0.1c0,0,0,0.1,0,0.1
			c0,0.3-0.1,0.6-0.1,1v1.4c0.3,0,0.5,0,0.8,0.1c0.1,0,0.1,0,0.2,0c0.2,0,0.5,0.1,0.7,0.2c0,0,0,0,0,0c0.2,0.1,0.5,0.2,0.7,0.3
			c0.1,0,0.1,0.1,0.2,0.1c0.2,0.1,0.4,0.2,0.6,0.4c0,0,0,0,0.1,0c0.2,0.1,0.4,0.3,0.6,0.5c0,0,0.1,0.1,0.1,0.1
			c0.2,0.2,0.3,0.3,0.5,0.5c0,0,0,0,0,0.1c0.2,0.2,0.3,0.4,0.5,0.6c0,0,0.1,0.1,0.1,0.1c0.1,0.2,0.2,0.4,0.3,0.6c0,0,0,0,0,0.1
			c0.1,0.1,0.1,0.3,0.2,0.4c0,0,0,0.1,0.1,0.1c0.1,0.1,0.1,0.3,0.1,0.4c0,0,0,0.1,0,0.1c0,0.1,0.1,0.3,0.1,0.5c0,0,0,0.1,0,0.1
			c0,0.2,0,0.4,0,0.6h1.4c0.3,0,0.6,0,0.8,0c0.1,0,0.2,0,0.3,0c0.2,0,0.4-0.1,0.6-0.1c0.1,0,0.2,0,0.3-0.1c0.2,0,0.4-0.1,0.5-0.2
			c0.1,0,0.2-0.1,0.2-0.1c0.2-0.1,0.4-0.2,0.7-0.3c0,0,0.1,0,0.1,0c0.2-0.1,0.5-0.3,0.7-0.4c0.1,0,0.1-0.1,0.1-0.1
			c0.2-0.1,0.3-0.3,0.5-0.4c0.1,0,0.1-0.1,0.2-0.2c0.2-0.1,0.3-0.3,0.4-0.4c0.1-0.1,0.1-0.1,0.2-0.2c0.2-0.2,0.3-0.4,0.4-0.5
			c0,0,0,0,0.1-0.1c0,0,0,0,0,0c0.2-0.3,0.3-0.5,0.5-0.8c0-0.1,0.1-0.1,0.1-0.2c0.1-0.3,0.3-0.6,0.4-0.9c0,0,0,0,0-0.1
			c0.1-0.3,0.2-0.6,0.2-1c0-0.1,0-0.1,0-0.2c0.1-0.3,0.1-0.7,0.1-1V4.7L77.1,4.7L77.1,4.7z M74.3,15.1c-0.2,0-0.4,0-0.6-0.1
			c0,0,0,0-0.1,0c-0.2,0-0.3-0.1-0.4-0.1c-0.1,0-0.1,0-0.1-0.1c-0.1-0.1-0.3-0.1-0.4-0.2c0,0-0.1,0-0.1-0.1
			c-0.1-0.1-0.3-0.2-0.4-0.3c0,0-0.1-0.1-0.1-0.1c-0.1-0.1-0.2-0.2-0.2-0.3c0,0-0.1-0.1-0.1-0.1c-0.1-0.1-0.2-0.3-0.2-0.4
			c0,0,0-0.1,0-0.1c-0.1-0.1-0.1-0.3-0.1-0.4c0-0.1,0-0.1,0-0.1c0-0.2-0.1-0.4-0.1-0.6s0-0.4,0.1-0.5c0,0,0-0.1,0-0.1
			c0-0.2,0.1-0.3,0.2-0.5c0,0,0,0,0-0.1c0.1-0.1,0.1-0.3,0.2-0.4c0,0,0.1-0.1,0.1-0.1c0.1-0.1,0.2-0.3,0.3-0.4c0,0,0,0,0.1-0.1
			c0.1-0.1,0.2-0.2,0.3-0.3c0,0,0.1-0.1,0.1-0.1c0.1-0.1,0.3-0.2,0.4-0.2c0,0,0,0,0,0c0.2-0.1,0.3-0.1,0.5-0.1c0.1,0,0.1,0,0.1,0
			c0.2,0,0.4-0.1,0.6-0.1s0.4,0,0.6,0.1c0.1,0,0.1,0,0.1,0c0.2,0,0.3,0.1,0.5,0.1c0,0,0,0,0,0c0.2,0.1,0.3,0.1,0.4,0.2
			c0,0,0.1,0.1,0.1,0.1c0.1,0.1,0.2,0.2,0.3,0.3c0,0,0,0,0.1,0.1c0.1,0.1,0.2,0.2,0.3,0.4c0,0,0.1,0.1,0.1,0.1
			c0.1,0.1,0.2,0.2,0.2,0.4c0,0,0,0.1,0,0.1c0.1,0.2,0.1,0.3,0.2,0.5c0,0,0,0.1,0,0.1c0,0.2,0.1,0.4,0.1,0.5
			C77.3,13.8,76,15.1,74.3,15.1L74.3,15.1z"/>
		<g>
			<path class="st0" d="M106.9,28.1h3c2.5,0,4.4-2,4.4-4.4h-1.8c-2.6,1.8-4.8,3.3-6.7,4.6C106.2,28.1,106.5,28.1,106.9,28.1z"/>
			<path class="st0" d="M99.5,38.5L99.5,38.5c2.5,0,4.4-2,4.4-4.5v-3c0-0.7,0.3-1.4,0.7-1.9c-2,1.4-3.6,2.7-5.2,4.1
				C99.5,33.2,99.5,38.5,99.5,38.5z"/>
			<path class="st0" d="M94.5,38.5H98v-3.9C96.8,35.7,95.7,37,94.5,38.5z"/>
			<path class="st0" d="M92.7,24c-0.7-0.2-1.4-0.3-2.1-0.3h-4.3c-0.2,0.5-0.5,1.1-0.7,1.6C87.8,24.8,90.2,24.4,92.7,24z"/>
			<path class="st0" d="M80.1,38.5h1.6v-3.6c-0.1,0.2-0.1,0.3-0.2,0.5C81.1,36.4,80.6,37.5,80.1,38.5L80.1,38.5z"/>
			<path class="st0" d="M83.2,31.1c0,4.1,3.3,7.4,7.4,7.4h3.9c1.2-1.5,2.4-2.7,3.5-3.9v-3.5c0-3.4-2.2-6.2-5.3-7.1
				c-2.5,0.4-4.8,0.9-7.2,1.3C84.8,27,84,28.9,83.2,31.1L83.2,31.1z M90.6,28.1c1.6,0,3,1.3,3,3s-1.3,3-3,3s-3-1.3-3-3
				S88.9,28.1,90.6,28.1z"/>
			<path class="st0" d="M99.5,31v2.2c1.5-1.4,3.2-2.6,5.2-4.1c0.3-0.4,0.7-0.7,1.2-0.9c1.9-1.3,4-2.8,6.7-4.6h-5.6
				C102.8,23.6,99.5,26.9,99.5,31L99.5,31z"/>
			<path class="st0" d="M75.9,9.5c0,0,0.1,0.1,0.1,0.1c0.1,0.1,0.2,0.2,0.3,0.3c0,0,0,0,0.1,0.1c0.1,0.1,0.2,0.2,0.3,0.4
				c0,0,0.1,0.1,0.1,0.1c1.6-0.7,3.2-1.3,4.8-2V4.7h-5.1c-0.4,1.4-0.8,2.9-1.1,4.6C75.7,9.3,75.8,9.4,75.9,9.5L75.9,9.5z"/>
			<path class="st0" d="M76.9,10.4c0.1,0.1,0.2,0.2,0.2,0.4c0,0,0,0.1,0,0.1c0.1,0.2,0.1,0.3,0.2,0.5c0,0,0,0.1,0,0.1
				c0,0.2,0.1,0.4,0.1,0.5c0,1.6-1.2,2.9-2.8,3c-0.2,1.3-0.4,2.8-0.6,4.4h0.3c0.3,0,0.6,0,0.8,0c0.1,0,0.2,0,0.3,0
				c0.2,0,0.4-0.1,0.6-0.1c0.1,0,0.2,0,0.3-0.1c0.2,0,0.4-0.1,0.5-0.2c0.1,0,0.2-0.1,0.2-0.1c0.2-0.1,0.4-0.2,0.7-0.3
				c0,0,0.1,0,0.1,0c0.2-0.1,0.5-0.3,0.7-0.4c0.1,0,0.1-0.1,0.1-0.1c0.2-0.1,0.3-0.3,0.5-0.4c0.1,0,0.1-0.1,0.2-0.2
				c0.2-0.1,0.3-0.3,0.4-0.4c0.1-0.1,0.1-0.1,0.2-0.2c0.2-0.2,0.3-0.4,0.4-0.5c0,0,0,0,0.1-0.1c0,0,0,0,0,0c0.2-0.3,0.3-0.5,0.5-0.8
				c0-0.1,0.1-0.1,0.1-0.2c0.1-0.3,0.3-0.6,0.4-0.9c0,0,0,0,0-0.1c0.1-0.3,0.2-0.6,0.2-1c0-0.1,0-0.1,0-0.2c0.1-0.3,0.1-0.7,0.1-1
				V8.4C80,9.1,78.4,9.7,76.9,10.4C76.8,10.4,76.8,10.4,76.9,10.4L76.9,10.4z"/>
			<path class="st0" d="M83.2,25.7c0.8-0.2,1.6-0.3,2.4-0.5c0.2-0.6,0.5-1.1,0.7-1.6h-3.1C83.2,23.6,83.2,25.7,83.2,25.7z"/>
			<path class="st0" d="M77.2,27c0.9-0.2,1.8-0.4,2.8-0.6c0,0,0,0,0,0c0,0,0,0,0,0c0,0-0.1-0.1-0.1-0.1c-0.1-0.2-0.3-0.3-0.4-0.5
				c-0.1,0-0.1-0.1-0.2-0.1c-0.1-0.1-0.3-0.2-0.4-0.4c-0.1,0-0.1-0.1-0.2-0.1c-0.2-0.1-0.3-0.2-0.5-0.3c-0.1,0-0.1-0.1-0.2-0.1
				c-0.2-0.1-0.3-0.2-0.5-0.3c0,0-0.1,0-0.1-0.1c0,0,0,0-0.1,0c-0.2-0.1-0.3-0.1-0.5-0.2c-0.1,0-0.1,0-0.2-0.1
				C76.4,24,76.2,24,76,23.9c-0.1,0-0.1,0-0.2,0c-0.2,0-0.4-0.1-0.6-0.1c-0.1,0-0.1,0-0.2,0c-0.3,0-0.5,0-0.8,0h-1
				c-0.3,1.5-0.7,3-1.2,4.4C73.7,27.8,75.4,27.4,77.2,27L77.2,27z"/>
			<path class="st0" d="M72.1,28.2c-0.9,2.5-2.2,5-3.7,7.3c0.1,0.1,0.1,0.2,0.2,0.2c0,0,0,0.1,0.1,0.1c0.2,0.2,0.3,0.4,0.5,0.6l0,0
				c0,0,0,0,0,0c0.2,0.2,0.3,0.3,0.5,0.5c0,0,0.1,0.1,0.1,0.1c0.2,0.1,0.3,0.2,0.5,0.3c0,0,0,0,0,0c0,0,0.1,0,0.1,0
				c0.2,0.1,0.4,0.2,0.6,0.3c0.1,0,0.1,0.1,0.2,0.1c0.2,0.1,0.4,0.2,0.7,0.3c0,0,0.1,0,0.1,0c0,0,0,0,0,0c0.3,0.1,0.6,0.2,0.8,0.2
				c0,0,0,0,0.1,0c0.3,0,0.5,0.1,0.8,0.1c0,0,0.1,0,0.1,0c0.2,0,0.3,0,0.5,0h5.8c0.5-1,1-2,1.4-3.1c0.1-0.2,0.1-0.3,0.2-0.5V31
				c0-0.2,0-0.5,0-0.7c0-0.1,0-0.1,0-0.2c0-0.1,0-0.3-0.1-0.5c0-0.1,0-0.2-0.1-0.2c0-0.1-0.1-0.3-0.1-0.5c0-0.1,0-0.1-0.1-0.2
				c0,0,0,0,0,0c0,0,0-0.1-0.1-0.1c-0.1-0.2-0.1-0.4-0.2-0.5C81,28.1,81,28,81,28c-0.1-0.2-0.2-0.3-0.2-0.5c0-0.1-0.1-0.1-0.1-0.2
				c-0.1-0.1-0.2-0.3-0.3-0.5c0,0-0.1-0.1-0.1-0.1c-0.1-0.1-0.2-0.2-0.3-0.4c-1,0.2-1.9,0.4-2.8,0.6C75.4,27.3,73.7,27.7,72.1,28.2
				L72.1,28.2z M77.3,31.6c0,0.1,0,0.2-0.1,0.2c0,0.1-0.1,0.2-0.1,0.3c0,0.1-0.1,0.2-0.1,0.2c-0.1,0.1-0.1,0.2-0.2,0.3
				c0,0.1-0.1,0.1-0.1,0.2c-0.1,0.1-0.1,0.2-0.2,0.2c-0.1,0.1-0.1,0.1-0.2,0.2c-0.1,0.1-0.2,0.1-0.2,0.2c-0.1,0-0.1,0.1-0.2,0.1
				c-0.1,0.1-0.2,0.1-0.3,0.2c-0.1,0-0.1,0.1-0.2,0.1c-0.1,0-0.2,0.1-0.4,0.1c-0.1,0-0.1,0-0.2,0c-0.2,0-0.4,0.1-0.6,0.1
				c-0.2,0-0.3,0-0.5,0c-0.1,0-0.1,0-0.2,0c-0.1,0-0.3-0.1-0.4-0.1c0,0-0.1,0-0.1,0c-0.2-0.1-0.3-0.2-0.4-0.2c0,0-0.1-0.1-0.1-0.1
				c-0.1-0.1-0.2-0.2-0.3-0.2c0,0-0.1-0.1-0.1-0.1c-0.1-0.1-0.2-0.2-0.3-0.4c0,0,0,0,0,0c-0.1-0.1-0.2-0.3-0.2-0.5
				c0,0,0-0.1-0.1-0.1c-0.1-0.1-0.1-0.2-0.1-0.4c0,0,0-0.1,0-0.2c0-0.2-0.1-0.4-0.1-0.5c0-0.2,0-0.3,0.1-0.5c0,0,0-0.1,0-0.1
				c0-0.2,0.1-0.4,0.2-0.5c0-0.1,0.1-0.1,0.1-0.2c0.1-0.1,0.1-0.2,0.2-0.3c0-0.1,0.1-0.1,0.1-0.2c0.1-0.1,0.1-0.2,0.2-0.2
				c0.1-0.1,0.1-0.1,0.2-0.2c0.1-0.1,0.2-0.1,0.2-0.2c0.1,0,0.1-0.1,0.2-0.1c0.1-0.1,0.2-0.1,0.3-0.1c0.1,0,0.1-0.1,0.2-0.1
				c0.1,0,0.2-0.1,0.3-0.1c0.1,0,0.1,0,0.2-0.1c0.2,0,0.4-0.1,0.6-0.1c1.7,0,3,1.4,3,3C77.3,31.2,77.3,31.4,77.3,31.6L77.3,31.6z"/>
			<path class="st0" d="M83.2,25.7v5.3c0,0,0,0,0,0c0.9-2.2,1.7-4.1,2.4-5.8C84.7,25.4,83.9,25.6,83.2,25.7z"/>
			<path class="st0" d="M73.6,4.7c-0.1,0-0.2,0-0.2,0c-0.2,0-0.3,0-0.4,0.1c-0.1,0-0.2,0-0.3,0.1c-0.1,0-0.3,0.1-0.4,0.1
				C72.1,5,72,5,71.9,5.1c-0.1,0-0.2,0.1-0.3,0.1c-0.1,0-0.2,0.1-0.3,0.1c-0.1,0.1-0.2,0.1-0.3,0.2s-0.2,0.1-0.3,0.2
				c-0.1,0.1-0.2,0.1-0.3,0.2c-0.1,0.1-0.2,0.1-0.3,0.2c-0.1,0.1-0.2,0.1-0.2,0.2c-0.1,0.1-0.2,0.1-0.3,0.2c0,0,0,0,0,0
				c0,0-0.1,0.1-0.1,0.1c-0.1,0.1-0.3,0.2-0.4,0.4C69,7,68.9,7,68.9,7.1c-0.1,0.1-0.2,0.3-0.3,0.4c0,0,0,0,0,0c0,0,0,0.1-0.1,0.1
				c-0.2,0.2-0.3,0.4-0.4,0.6c0,0.1-0.1,0.1-0.1,0.2c-0.1,0.2-0.2,0.5-0.4,0.7c0,0,0,0.1,0,0.1c-0.1,0.3-0.2,0.6-0.3,0.8
				c0,0.1,0,0.1-0.1,0.2c-0.1,0.2-0.1,0.5-0.2,0.7c0,0,0,0.1,0,0.1c0,0,0,0.1,0,0.1c0,0.3-0.1,0.6-0.1,1v1.4c0.3,0,0.5,0,0.8,0.1
				c0.1,0,0.1,0,0.2,0c0.2,0,0.5,0.1,0.7,0.2c0,0,0,0,0,0c0.1,0,0.2,0.1,0.3,0.1c0.8-0.4,1.6-0.7,2.4-1.1c0,0,0,0,0,0
				c0-0.1,0-0.1,0-0.1c0-0.2-0.1-0.4-0.1-0.6s0-0.4,0.1-0.5c0,0,0-0.1,0-0.1c0-0.2,0.1-0.3,0.2-0.5c0,0,0,0,0-0.1
				c0.1-0.1,0.1-0.3,0.2-0.4c0,0,0.1-0.1,0.1-0.1c0.1-0.1,0.2-0.3,0.3-0.4c0,0,0,0,0.1-0.1c0.1-0.1,0.2-0.2,0.3-0.3
				c0,0,0.1-0.1,0.1-0.1c0.1-0.1,0.3-0.2,0.4-0.2c0,0,0,0,0,0c0.2-0.1,0.3-0.1,0.5-0.1c0.1,0,0.1,0,0.1,0c0.2,0,0.4-0.1,0.6-0.1
				s0.4,0,0.6,0.1c0.1,0,0.1,0,0.1,0c0.2,0,0.3,0.1,0.5,0.1c0,0,0,0,0,0c0,0,0,0,0,0c0.3-1.7,0.7-3.2,1.1-4.6h-2.3
				C74.1,4.7,73.9,4.7,73.6,4.7L73.6,4.7z"/>
			<path class="st0" d="M62.7,16.8c0.8-0.4,1.7-0.8,2.6-1.2v-3.5c0-0.2,0-0.5,0-0.7c0-0.1,0-0.1,0-0.2c0-0.2,0-0.3-0.1-0.5
				c0-0.1,0-0.2-0.1-0.2c0-0.1-0.1-0.3-0.1-0.4c0-0.1-0.1-0.2-0.1-0.2c-0.1-0.1-0.1-0.3-0.2-0.4c0-0.1-0.1-0.1-0.1-0.2
				c-0.1-0.2-0.2-0.3-0.2-0.5c0,0,0-0.1-0.1-0.1c-0.1-0.2-0.2-0.4-0.3-0.6c0-0.1-0.1-0.1-0.1-0.2c-0.1-0.1-0.2-0.2-0.3-0.3
				c-0.1-0.1-0.1-0.1-0.2-0.2c-0.1-0.1-0.2-0.2-0.3-0.3c-0.1-0.1-0.1-0.1-0.2-0.2c-0.1-0.1-0.2-0.2-0.3-0.3
				c-0.1-0.1-0.1-0.1-0.2-0.2c-0.1-0.1-0.2-0.1-0.2-0.2c0.1,1.3,0.3,2.7,0.5,4.1C63,12.4,63,14.6,62.7,16.8L62.7,16.8z"/>
			<path class="st0" d="M72.1,28.2c0.5-1.5,0.9-2.9,1.2-4.4h-2.1v-4.2c0-0.1,0-0.2,0-0.3c0-0.1,0-0.2-0.1-0.3c0-0.1,0-0.3-0.1-0.4
				c0-0.1-0.1-0.3-0.1-0.4c0-0.1-0.1-0.3-0.1-0.4c-0.1-0.1-0.1-0.2-0.2-0.4c-0.1-0.1-0.1-0.2-0.2-0.3c-0.1-0.1-0.2-0.2-0.3-0.3
				c-0.1-0.1-0.2-0.2-0.2-0.3c-0.1-0.1-0.2-0.2-0.3-0.3c-0.1-0.1-0.2-0.2-0.3-0.2c-0.1-0.1-0.3-0.2-0.4-0.2
				c-0.1-0.1-0.2-0.1-0.3-0.2c-0.2-0.1-0.3-0.1-0.5-0.2c-0.1,0-0.2-0.1-0.3-0.1c-0.3-0.1-0.6-0.1-0.9-0.1v14.3
				C68.6,29,70.3,28.6,72.1,28.2L72.1,28.2z"/>
			<path class="st0" d="M74.3,15.1c-0.2,0-0.4,0-0.6-0.1c0,0,0,0-0.1,0c-0.2,0-0.3-0.1-0.4-0.1c-0.1,0-0.1,0-0.1-0.1
				c-0.1-0.1-0.3-0.1-0.4-0.2c0,0-0.1,0-0.1-0.1c-0.1-0.1-0.3-0.2-0.4-0.3c0,0-0.1-0.1-0.1-0.1c-0.1-0.1-0.2-0.2-0.2-0.3
				c0,0-0.1-0.1-0.1-0.1c-0.1-0.1-0.2-0.3-0.2-0.4c0,0,0-0.1,0-0.1c-0.1-0.1-0.1-0.2-0.1-0.4c-0.8,0.4-1.6,0.7-2.4,1.1
				c0.1,0.1,0.3,0.1,0.4,0.2c0.1,0,0.1,0.1,0.2,0.1c0.2,0.1,0.4,0.2,0.6,0.4c0,0,0,0,0.1,0c0.2,0.1,0.4,0.3,0.6,0.5
				c0,0,0.1,0.1,0.1,0.1c0.2,0.2,0.3,0.3,0.5,0.5c0,0,0,0,0,0.1c0.2,0.2,0.5,0.7,0.5,0.7c0.1,0.2,0.2,0.4,0.3,0.6c0,0,0,0,0,0.1
				c0.1,0.1,0.1,0.3,0.2,0.4c0,0,0,0.1,0.1,0.1c0.1,0.1,0.1,0.3,0.1,0.4c0,0,0,0.1,0,0.1c0,0.1,0.1,0.3,0.1,0.5c0,0,0,0.1,0,0.1
				c0,0.2,0,0.4,0,0.6h1.1c0.2-1.6,0.4-3,0.6-4.4C74.4,15.1,74.4,15.1,74.3,15.1L74.3,15.1z"/>
			<path class="st0" d="M59.4,28.5c0.1,0,0.2,0.1,0.2,0.1c0.1,0.1,0.2,0.1,0.2,0.2c0.1,0.1,0.1,0.1,0.2,0.2c0.1,0.1,0.1,0.2,0.2,0.2
				c0,0.1,0.1,0.1,0.2,0.2c0.1,0.1,0.1,0.2,0.2,0.3c0,0.1,0.1,0.1,0.1,0.2c0,0.1,0.1,0.2,0.1,0.4c0,0.1,0,0.1,0.1,0.2
				c0,0.2,0.1,0.4,0.1,0.6c0,0,0,0,0,0c1.4-0.4,2.9-0.8,4.3-1.2v-0.2c-0.2,0-0.4,0-0.6,0c-0.1,0-0.2,0-0.3,0c-0.1,0-0.2,0-0.3,0
				c-0.1,0-0.2,0-0.3-0.1c-0.1,0-0.2,0-0.2-0.1c-0.1,0-0.2-0.1-0.3-0.1c-0.1,0-0.2-0.1-0.2-0.1s-0.2-0.1-0.2-0.1
				c-0.1,0-0.2-0.1-0.3-0.1c-0.1,0-0.2-0.1-0.2-0.1c-0.1,0-0.2-0.1-0.2-0.1c-0.2-0.1-0.3-0.2-0.4-0.3c0,0-0.1-0.1-0.1-0.1
				c-0.2-0.1-0.3-0.3-0.5-0.5c0,0-0.1-0.1-0.1-0.1c-0.1-0.1-0.2-0.3-0.3-0.4c0-0.1-0.1-0.1-0.1-0.2c-0.1-0.1-0.2-0.3-0.3-0.4
				c0,0-0.1-0.1-0.1-0.2c0,0,0,0,0,0c-0.3,0.6-0.5,1.2-0.8,1.8C59.4,28.4,59.4,28.4,59.4,28.5L59.4,28.5z"/>
			<path class="st0" d="M61,24.2c0,0.1,0,0.2,0,0.2c0,0,0,0.1,0,0.1c0,0.2,0.1,0.5,0.2,0.7c0,0,0,0.1,0.1,0.1
				c0.1,0.2,0.2,0.4,0.3,0.6c0,0,0,0,0.1,0.1c0.1,0.2,0.3,0.4,0.4,0.5c0,0,0,0.1,0.1,0.1c0.1,0.1,0.3,0.2,0.4,0.4
				c0,0,0.1,0.1,0.2,0.1c0,0,0.1,0.1,0.1,0.1c0.2,0.1,0.4,0.2,0.6,0.3c0,0,0,0,0.1,0c0,0,0.1,0,0.1,0c0.2,0.1,0.5,0.2,0.7,0.2
				c0,0,0.1,0,0.1,0C64.8,28,65,28,65.3,28V15.5c-0.9,0.4-1.7,0.8-2.6,1.2C62.5,19.3,61.9,21.7,61,24.2L61,24.2z"/>
			<path class="st0" d="M66.9,29.4v1.6c0,0.3,0,0.6,0.1,1c0,0.1,0,0.2,0,0.2c0.1,0.3,0.1,0.6,0.2,0.8c0,0,0,0.1,0,0.1
				c0.1,0.3,0.2,0.6,0.3,0.9c0,0.1,0.1,0.1,0.1,0.2c0.1,0.2,0.3,0.5,0.4,0.7c0,0,0,0,0,0.1c0,0,0,0,0,0c0.1,0.1,0.2,0.2,0.2,0.3
				c1.5-2.3,2.8-4.7,3.7-7.3C70.3,28.6,68.6,29,66.9,29.4L66.9,29.4z"/>
			<path class="st0" d="M57,38.5h0.9c0,0,0,0,0,0c0.2,0,0.5,0,0.7,0c0.1,0,0.2,0,0.2,0c0.2,0,0.3,0,0.4-0.1c0.1,0,0.2,0,0.3-0.1
				c0.1,0,0.3-0.1,0.4-0.1c0.1,0,0.2-0.1,0.3-0.1c0.1,0,0.1,0,0.2-0.1c0.1,0,0.2-0.1,0.3-0.1c0,0,0,0,0,0c0.1,0,0.2-0.1,0.3-0.2
				c0.1,0,0.2-0.1,0.3-0.1s0.2-0.1,0.3-0.2c0.1-0.1,0.2-0.1,0.3-0.2c0.1-0.1,0.2-0.1,0.2-0.2c0.1-0.1,0.2-0.2,0.3-0.2
				c0.1-0.1,0.2-0.1,0.2-0.2c0,0,0.1-0.1,0.2-0.1c0,0,0,0,0.1-0.1c0.2-0.2,0.5-0.5,0.7-0.7c0,0,0-0.1,0.1-0.1
				c0.2-0.2,0.4-0.5,0.5-0.8c0,0,0.1-0.1,0.1-0.2c0.2-0.3,0.3-0.6,0.4-0.9c0-0.1,0-0.1,0.1-0.2c0.1-0.3,0.2-0.7,0.3-1c0,0,0,0,0,0
				l0,0c0-0.2,0.1-0.4,0.1-0.6c0,0,0-0.1,0-0.1c0-0.2,0-0.5,0-0.8v-1.2c-1.5,0.4-2.9,0.8-4.3,1.2c0,0.2,0,0.4-0.1,0.6
				c0,0.1,0,0.2-0.1,0.2c0,0.1-0.1,0.2-0.1,0.3c0,0,0,0.1-0.1,0.1c-0.1,0.1-0.1,0.2-0.2,0.4c0,0-0.1,0.1-0.1,0.2
				c-0.1,0.1-0.2,0.2-0.2,0.3c0,0-0.1,0.1-0.1,0.1c-0.1,0.1-0.3,0.2-0.4,0.3c0,0,0,0-0.1,0c-0.1,0.1-0.3,0.2-0.4,0.2
				c0,0-0.1,0-0.2,0.1c-0.1,0-0.2,0.1-0.4,0.1c0,0-0.1,0-0.2,0c-0.2,0-0.4,0.1-0.5,0.1c-0.2,0-0.4,0-0.6-0.1c0,0,0,0,0,0
				c-0.2,0-0.3-0.1-0.5-0.2c0,0-0.1,0-0.2-0.1c-0.1,0-0.2-0.1-0.3-0.2c-1,1.6-2.2,3.2-3.4,4.8L57,38.5L57,38.5z"/>
			<path class="st0" d="M50.5,5.5c0.2,0.7,0.3,1.5,0.4,2.2c1.3-1,2.5-2,3.8-3h-4.2C50.5,4.7,50.5,5.5,50.5,5.5z"/>
			<path class="st0" d="M51.1,14.8c0,0,0,0.1,0,0.1c0,0.1,0.1,0.2,0.2,0.3c0,0.1,0.1,0.2,0.2,0.3c0.1,0.1,0.1,0.2,0.2,0.3
				c0.1,0.1,0.1,0.2,0.2,0.3c0.1,0.1,0.2,0.2,0.2,0.3c0.1,0.1,0.1,0.2,0.2,0.3c0.1,0.1,0.2,0.2,0.3,0.3c0.1,0.1,0.1,0.1,0.2,0.2
				c0.1,0.1,0.2,0.2,0.3,0.3c0.1,0.1,0.1,0.1,0.2,0.2c0.1,0.1,0.2,0.2,0.3,0.3c0.1,0.1,0.2,0.1,0.2,0.2c0.1,0.1,0.2,0.1,0.4,0.2
				c0.1,0,0.2,0.1,0.2,0.1c0.1,0.1,0.3,0.1,0.4,0.2c0.1,0,0.2,0.1,0.2,0.1c0.1,0.1,0.3,0.1,0.4,0.2c0.1,0,0.2,0.1,0.2,0.1
				c0.1,0,0.3,0.1,0.4,0.1c0.1,0,0.2,0,0.3,0.1c0.2,0,0.3,0.1,0.4,0.1c0.1,0,0.2,0,0.3,0c0.2,0,0.3,0,0.5,0c0,0,0,0,0,0
				c1.7-0.9,3.5-1.8,5.2-2.6c0.2-2.2,0.3-4.3,0-6.5c-0.2-1.5-0.3-2.8-0.5-4.1c0,0-0.1-0.1-0.1-0.1C62.2,6,62.1,6,62,5.9
				c-0.2-0.1-0.4-0.2-0.5-0.3c-0.1,0-0.2-0.1-0.2-0.1c-0.1-0.1-0.2-0.1-0.4-0.2c-0.1,0-0.2-0.1-0.3-0.1c-0.1-0.1-0.2-0.1-0.3-0.1
				C60.2,5,60.1,5,60,5c0,0-0.1,0-0.2-0.1c0,0-0.1,0-0.2,0c-0.2,0-0.3-0.1-0.5-0.1c-0.1,0-0.2,0-0.3,0c-0.2,0-0.4,0-0.6-0.1
				c0,0-0.1,0-0.2,0c-0.1,0-0.1,0-0.2,0h-3.2c-1.3,1-2.6,2-3.8,3C51.2,10,51.3,12.4,51.1,14.8L51.1,14.8z M54.9,11.5
				c0-0.1,0-0.2,0.1-0.3c0-0.1,0.1-0.2,0.1-0.3c0-0.1,0.1-0.2,0.1-0.2c0-0.1,0.1-0.2,0.2-0.3c0-0.1,0.1-0.1,0.1-0.2
				c0.1-0.1,0.1-0.2,0.2-0.2c0.1-0.1,0.1-0.1,0.2-0.2c0.1-0.1,0.2-0.1,0.2-0.2c0.1-0.1,0.1-0.1,0.2-0.1c0.1-0.1,0.2-0.1,0.3-0.2
				c0.1,0,0.1-0.1,0.2-0.1c0.1-0.1,0.2-0.1,0.4-0.1c0.1,0,0.1,0,0.2-0.1c0.2,0,0.4-0.1,0.6-0.1s0.4,0,0.6,0.1c0.1,0,0.1,0,0.2,0.1
				c0.1,0,0.2,0.1,0.3,0.1c0,0,0.1,0.1,0.2,0.1c0.1,0.1,0.2,0.1,0.3,0.2c0,0,0.1,0.1,0.2,0.1c0.1,0.1,0.2,0.2,0.3,0.2
				c0,0,0.1,0.1,0.1,0.1c0.1,0.1,0.2,0.3,0.3,0.4c0,0,0,0.1,0.1,0.1c0.1,0.1,0.1,0.2,0.2,0.4c0,0.1,0,0.1,0.1,0.2
				c0,0.1,0.1,0.2,0.1,0.4c0,0.1,0,0.1,0,0.2c0,0.2,0.1,0.4,0.1,0.6c0,0.2,0,0.4-0.1,0.6c0,0.1,0,0.1-0.1,0.2c0,0.1-0.1,0.2-0.1,0.4
				c0,0.1-0.1,0.1-0.1,0.2c0,0.1-0.1,0.2-0.2,0.3c0,0.1-0.1,0.1-0.2,0.2c-0.1,0.1-0.1,0.2-0.2,0.2c-0.1,0.1-0.1,0.1-0.2,0.2
				c-0.1,0.1-0.2,0.1-0.2,0.2c-0.1,0.1-0.2,0.1-0.2,0.1c-0.1,0.1-0.2,0.1-0.3,0.1s-0.2,0.1-0.3,0.1c-0.1,0-0.2,0.1-0.3,0.1
				c-0.1,0-0.2,0-0.3,0.1c-0.1,0-0.3,0-0.4,0c-1.7,0-3-1.4-3-3C54.9,11.9,54.9,11.7,54.9,11.5L54.9,11.5z"/>
			<path class="st0" d="M49.1,35v-4c0-1.4-0.4-2.6-1-3.7c-1.3,3.4-3,6.8-5,9.9C45,36.5,47,35.7,49.1,35L49.1,35z"/>
			<path class="st0" d="M57.5,19.4c0.1,0,0.1,0,0.2,0c0.1,0,0.2,0,0.2,0h3v4.2c0,0.2,0,0.4,0.1,0.5c0.8-2.4,1.4-4.9,1.7-7.4
				C61,17.6,59.2,18.5,57.5,19.4z"/>
			<path class="st0" d="M55.4,32.8c0,0,0-0.1-0.1-0.1c-0.1-0.1-0.1-0.2-0.2-0.4c0-0.1,0-0.1-0.1-0.2c0-0.1-0.1-0.2-0.1-0.4
				c0-0.1,0-0.1,0-0.2c0-0.2-0.1-0.4-0.1-0.5s0-0.4,0.1-0.6c0-0.1,0-0.1,0-0.2c0-0.1,0.1-0.2,0.1-0.4c0-0.1,0.1-0.1,0.1-0.2
				c0-0.1,0.1-0.2,0.2-0.3c0-0.1,0.1-0.1,0.1-0.2c0.1-0.1,0.1-0.2,0.2-0.2c0-0.1,0.1-0.1,0.2-0.2c0.1-0.1,0.2-0.1,0.2-0.2
				c0.1,0,0.1-0.1,0.2-0.1c0.1-0.1,0.2-0.1,0.3-0.2c0.1,0,0.1-0.1,0.2-0.1c0.1,0,0.2-0.1,0.4-0.1c0.1,0,0.1,0,0.2,0
				c0.2,0,0.4-0.1,0.6-0.1c0.1,0,0.3,0,0.4,0c0.1,0,0.2,0,0.3,0c0.1,0,0.2,0.1,0.3,0.1s0.2,0.1,0.3,0.1c0,0,0.1,0,0.2,0.1
				c0.3-0.6,0.5-1.2,0.8-1.8c-0.1-0.2-0.2-0.4-0.3-0.6c0,0,0-0.1,0-0.1c-0.1-0.2-0.1-0.4-0.2-0.6c0-0.1,0-0.1-0.1-0.2
				c0-0.2-0.1-0.3-0.1-0.5c0-0.1,0-0.1,0-0.2c0-0.2,0-0.5,0-0.7h-1.4c-0.1,0-0.2,0-0.4,0c-0.1,0-0.2,0-0.2,0c-0.1,0-0.2,0-0.3,0
				c-0.1,0-0.3,0-0.4,0.1c-0.1,0-0.2,0-0.3,0c-0.2,0-0.3,0.1-0.4,0.1c-0.1,0-0.2,0-0.2,0.1c-0.2,0.1-0.4,0.1-0.6,0.2c0,0,0,0,0,0
				c-0.3,0.1-0.6,0.3-0.9,0.5c-0.1,0-0.1,0.1-0.2,0.1c-0.6,0.4-1.1,0.8-1.5,1.2c0,0-0.1,0.1-0.1,0.1c-0.2,0.2-0.4,0.5-0.6,0.8l0,0
				c0,0.1-0.1,0.2-0.1,0.2c-0.1,0.1-0.1,0.2-0.2,0.4c-0.1,0.2-0.2,0.4-0.3,0.6l0,0c-0.2,0.6-0.4,1.2-0.5,1.9c0,0.3-0.1,0.7-0.1,1
				v3.4C52.2,33.9,53.8,33.3,55.4,32.8L55.4,32.8L55.4,32.8z"/>
			<path class="st0" d="M49.1,35c-2,0.7-4,1.5-6,2.3c-0.2,0.4-0.5,0.8-0.7,1.2h6.7C49.1,38.5,49.1,35,49.1,35z"/>
			<path class="st0" d="M56.3,33.7c0,0-0.1-0.1-0.2-0.1c-0.1-0.1-0.2-0.2-0.3-0.2c0,0-0.1-0.1-0.1-0.1c-0.1-0.1-0.2-0.3-0.3-0.4
				c-1.7,0.5-3.3,1.1-4.9,1.7v4h2.4C54.2,36.9,55.3,35.3,56.3,33.7C56.4,33.7,56.3,33.7,56.3,33.7L56.3,33.7z"/>
			<path class="st0" d="M50.5,5.5V8c0.1-0.1,0.2-0.2,0.4-0.3C50.8,6.9,50.7,6.2,50.5,5.5z"/>
			<path class="st0" d="M39.5,17.5c0.9-0.8,1.8-1.6,2.7-2.4c-0.2,0-0.4,0.1-0.5,0.1h-2.1C39.6,15.9,39.6,16.7,39.5,17.5L39.5,17.5z"
				/>
			<path class="st0" d="M44.6,12.1c0,0.3-0.1,0.6-0.2,0.9c1.5-1.3,3-2.6,4.6-3.9V4.7l0,0c-2.5,0-4.5,2-4.5,4.5L44.6,12.1L44.6,12.1z
				"/>
			<path class="st0" d="M42.2,15c-0.9,0.8-1.8,1.6-2.7,2.4c0,0.7-0.1,1.4-0.2,2h2.3c4.1,0,7.4-3.3,7.4-7.4l0,0V9.2
				c-1.6,1.3-3.1,2.6-4.6,3.9C44.1,14,43.3,14.8,42.2,15L42.2,15z"/>
			<path class="st0" d="M50.9,7.7c-0.1,0.1-0.2,0.2-0.4,0.3v4.1c0,0.2,0,0.5,0,0.8c0,0.1,0,0.2,0,0.2c0,0.2,0,0.3,0.1,0.5
				c0,0.1,0,0.2,0.1,0.3c0,0.1,0.1,0.3,0.1,0.4c0,0.1,0.1,0.2,0.1,0.3c0,0.1,0.1,0.2,0.1,0.3C51.3,12.4,51.2,10,50.9,7.7L50.9,7.7z"
				/>
			<path class="st0" d="M38.8,30.4c0.3-1.3,1.5-2.3,2.9-2.3c0.2,0,0.4,0,0.6,0.1c1.4-0.9,2.8-1.8,4.3-2.6c-1.3-1.1-3-1.9-4.9-1.9
				c-1.1,0-2.1,0.2-3,0.6c-0.5,2.5-1.1,5.1-1.9,7.5C37.4,31.3,38.1,30.9,38.8,30.4L38.8,30.4z"/>
			<path class="st0" d="M48.1,27.3c-0.4-0.7-0.9-1.3-1.5-1.9c-1.5,0.9-2.9,1.8-4.3,2.6c1.4,0.3,2.4,1.5,2.4,2.9c0,1.6-1.3,3-3,3
				s-3-1.3-3-3c0-0.2,0-0.4,0.1-0.7c-0.7,0.5-1.4,0.9-2.1,1.4c-0.4,1.1-0.8,2.3-1.2,3.4c1.1,1.7,2.9,2.8,5,3.2
				c0.8-0.4,1.7-0.7,2.6-1.1C45.1,34.1,46.7,30.8,48.1,27.3L48.1,27.3z"/>
			<path class="st0" d="M40.5,38.4c0.4,0.1,0.8,0.1,1.1,0.1h0.7c0.2-0.4,0.5-0.8,0.7-1.2C42.2,37.6,41.4,38,40.5,38.4L40.5,38.4z"/>
			<path class="st0" d="M39.6,15.1h-0.9c-2.5,0-4.5,2-4.5,4.4h3.1c0.7-0.7,1.5-1.4,2.2-2C39.5,16.7,39.6,15.9,39.6,15.1z"/>
			<path class="st0" d="M32.8,19.5L32.8,19.5c0-2.3-1.8-4.2-4-4.4c0.2,1.5,0.4,2.9,0.5,4.4H32.8z"/>
			<path class="st0" d="M30.8,26c-0.4-0.5-1-0.9-1.5-1.2c0,1-0.1,2-0.1,3C29.7,27.2,30.2,26.6,30.8,26L30.8,26z"/>
			<path class="st0" d="M30.5,23.4c0,0.8,0.3,1.5,0.8,2.1c1.3-1.4,2.7-2.8,4.2-4.2c-0.5-0.5-1.2-0.8-2-0.8
				C31.9,20.4,30.5,21.7,30.5,23.4L30.5,23.4z"/>
			<path class="st0" d="M31.4,25.4c0.5,0.6,1.3,0.9,2.1,0.9c1.6,0,3-1.3,3-3c0-0.9-0.4-1.6-0.9-2.1C34.1,22.6,32.7,24,31.4,25.4
				L31.4,25.4z"/>
			<path class="st0" d="M37.3,19.5h2c0.1-0.7,0.1-1.4,0.2-2C38.7,18.1,38,18.8,37.3,19.5L37.3,19.5z"/>
			<path class="st0" d="M38.6,24.3C36,25.4,34.2,28,34.2,31c0,0.8,0.1,1.5,0.3,2.2c0.7-0.5,1.4-1,2.1-1.5
				C37.5,29.3,38.1,26.8,38.6,24.3z"/>
			<path class="st0" d="M32.8,31c0-1.9-0.8-3.7-2-5c-0.6,0.6-1.1,1.2-1.6,1.8c-0.2,3.5-0.8,7-1.5,10.3c0.6-0.2,1.1-0.5,1.6-0.8
				c0.4-0.3,0.9-0.7,1.3-1C31.9,35,32.8,33.1,32.8,31L32.8,31z"/>
			<path class="st0" d="M34.6,33.3c0.2,0.7,0.5,1.3,0.9,1.9c0.4-1.1,0.8-2.2,1.2-3.4C36,32.3,35.3,32.8,34.6,33.3L34.6,33.3z"/>
			<path class="st0" d="M16.5,0.1V11c0.1,0.1,0.1,0.3,0.2,0.4c1.1-2.9,2.3-6,3.7-9C19.6,1.1,18.1,0.1,16.5,0.1z"/>
			<path class="st0" d="M15,4.6L15,4.6c-0.6,0-1.3,0.2-1.8,0.4c0.6,1,1.3,2,1.8,3.1V4.6z"/>
			<path class="st0" d="M19,17.6c1.3,1.1,3,1.9,4.9,1.9h0.5c0.9-1.5,1.9-3,2.9-4.4h-3.4c-1.6,0-3-1.3-3-3l0,0V4.6
				c0-0.8-0.2-1.5-0.6-2.1c-1.3,3.1-2.6,6.1-3.7,9C17.5,13.5,18.3,15.5,19,17.6L19,17.6z"/>
			<path class="st0" d="M21.2,24.9c-0.1,0.1-0.3,0.2-0.4,0.3c0,0.1,0,0.2,0.1,0.3C20.9,25.3,21.1,25.1,21.2,24.9z"/>
			<path class="st0" d="M29.2,19.5c-0.1-1.5-0.2-3-0.5-4.4c-0.1,0-0.3,0-0.4,0h-1.1c-1,1.5-1.9,3-2.9,4.4L29.2,19.5L29.2,19.5z"/>
			<path class="st0" d="M21.8,36.6c0.7-1,1.5-1.9,2.2-2.9c-1-0.5-1.7-1.5-1.7-2.7c0-1.6,1.3-3,3-3c1,0,1.9,0.5,2.4,1.3
				c0.5-0.5,0.9-1,1.4-1.5c0.1-1,0.1-2,0.1-3c-1.1-0.7-2.5-1.1-3.9-1.1c-1.5,0-3,0.5-4.2,1.3c-0.1,0.2-0.2,0.4-0.3,0.6
				C21.4,29.3,21.8,33,21.8,36.6L21.8,36.6z"/>
			<path class="st0" d="M27.8,29.3c0.3,0.5,0.5,1.1,0.5,1.7c0,1.6-1.3,3-3,3c-0.5,0-0.9-0.1-1.3-0.3c-0.8,1-1.5,1.9-2.2,2.9
				c0,0.6,0,1.2,0,1.9h3.5c0.8,0,1.6-0.1,2.3-0.4c0.7-3.3,1.3-6.8,1.5-10.3C28.7,28.3,28.2,28.8,27.8,29.3L27.8,29.3z"/>
			<path class="st0" d="M16.5,11v1c0.1-0.2,0.1-0.4,0.2-0.6C16.6,11.3,16.5,11.2,16.5,11z"/>
			<path class="st0" d="M12.6,23.7c-0.2,0-0.4-0.1-0.6-0.1h-0.5c0.2,0.5,0.4,0.9,0.6,1.4C12.3,24.6,12.4,24.1,12.6,23.7L12.6,23.7z"
				/>
			<path class="st0" d="M10.5,9V15l0,0c0,1.3-0.9,2.4-2,2.8c0.8,1.3,1.5,2.6,2.1,3.9c1.7-0.8,3.1-2.2,3.8-3.9
				c0.1-0.3,0.2-0.6,0.3-0.9c0.2-0.6,0.3-1.3,0.3-1.9V8.1C14.4,7,13.8,6,13.1,5C11.6,5.7,10.5,7.2,10.5,9L10.5,9z"/>
			<path class="st0" d="M15.8,35.6c0.2-0.5,0.4-1,0.7-1.5v-6.1c0-2.3-1.7-4.1-3.9-4.4c-0.1,0.5-0.3,0.9-0.4,1.4
				C13.7,28.6,14.9,32.1,15.8,35.6L15.8,35.6z"/>
			<path class="st0" d="M20.8,25.2c-1.7,1.4-2.8,3.5-2.8,5.8c0.9-1.8,1.9-3.6,2.9-5.5C20.8,25.4,20.8,25.3,20.8,25.2z"/>
			<path class="st0" d="M16.5,12L16.5,12L16.5,12c0,2.3,1,4.3,2.5,5.6c-0.6-2.1-1.4-4.2-2.3-6.2C16.6,11.7,16.5,11.8,16.5,12
				L16.5,12z"/>
			<path class="st0" d="M20.8,25.5c-1,1.9-2,3.7-2.9,5.5c0,0,0,0,0,0v7.4h2.5c0.4-0.6,0.9-1.2,1.4-1.9C21.8,33,21.5,29.3,20.8,25.5
				L20.8,25.5z"/>
			<path class="st0" d="M16.5,38.5v-4.3c-0.2,0.5-0.4,1-0.6,1.5C16,36.6,16.3,37.5,16.5,38.5z"/>
			<path class="st0" d="M20.5,38.5h1.4c0-0.6,0-1.2,0-1.9C21.4,37.2,20.9,37.8,20.5,38.5L20.5,38.5z"/>
			<path class="st0" d="M0.2,22.2c0.1,0.1,0.1,0.1,0.2,0.2h3.5C3.9,20.9,4,19.5,4.2,18C2,18.2,0.3,20,0.2,22.2z"/>
			<path class="st0" d="M3.8,23.6H1.4c0.8,0.9,1.5,1.8,2.2,2.8C3.7,25.5,3.7,24.6,3.8,23.6L3.8,23.6z"/>
			<path class="st0" d="M7.6,17.9h-3c-0.2,0-0.3,0-0.4,0c-0.1,1.5-0.2,3-0.3,4.4h3.7c1.1,0,2.1-0.2,3.1-0.7
				c-0.7-1.3-1.4-2.6-2.1-3.9C8.2,17.9,7.9,17.9,7.6,17.9L7.6,17.9z"/>
			<path class="st0" d="M4.9,28.2c0.7,0.1,1.2,0.7,1.2,1.4v0.3c1.3,2,2.5,4,3.6,6.1c0.2-1.4,0.5-2.8,0.8-4.2v-3.6l0,0
				c0.3,0,0.6,0.1,0.8,0.3c0.3-1.1,0.6-2.2,0.9-3.3c-0.2-0.5-0.4-0.9-0.6-1.4H3.8c0,0.9-0.1,1.9-0.1,2.8C4.1,27,4.5,27.6,4.9,28.2
				L4.9,28.2z"/>
			<path class="st0" d="M12.2,25.1c-0.3,1.1-0.6,2.2-0.9,3.3c0.4,0.3,0.7,0.7,0.7,1.2V34c0,1.9,1.1,3.4,2.8,4.1
				c0.3-0.8,0.7-1.7,1-2.5C14.9,32.2,13.7,28.6,12.2,25.1z"/>
			<path class="st0" d="M10.5,37.6v-5.9c-0.3,1.4-0.6,2.9-0.8,4.2C10,36.5,10.3,37.1,10.5,37.6z"/>
			<path class="st0" d="M14.8,38.1c0.5,0.2,1.1,0.3,1.7,0.3l0,0c-0.2-0.9-0.4-1.9-0.6-2.8C15.4,36.5,15.1,37.3,14.8,38.1z"/>
			<path class="st0" d="M0.1,22.4h0.2c-0.1-0.1-0.1-0.1-0.2-0.2C0.2,22.2,0.1,22.3,0.1,22.4z"/>
			<path class="st0" d="M3.6,26.4c-0.7-0.9-1.5-1.9-2.2-2.8H0.1v10c1.3,1.3,2.5,2.6,3.7,3.9C3.6,34.1,3.5,30.4,3.6,26.4L3.6,26.4z"
				/>
			<path class="st0" d="M3.8,37.6c0.3,0.3,0.5,0.6,0.7,0.9c0,0,0,0,0,0l0,0V28.1l0,0c0.1,0,0.2,0,0.3,0.1C4.5,27.6,4,27,3.6,26.4
				C3.5,30.4,3.6,34.1,3.8,37.6L3.8,37.6z"/>
			<path class="st0" d="M6.1,29.9V34c0,2,1.4,3.7,3.2,4.3c0.1-0.8,0.2-1.5,0.4-2.3C8.6,33.9,7.4,31.9,6.1,29.9z"/>
			<path class="st0" d="M9.3,38.3c0.4,0.1,0.8,0.2,1.2,0.2v-0.9c-0.3-0.5-0.5-1.1-0.8-1.6C9.5,36.8,9.4,37.5,9.3,38.3z"/>
			<path class="st0" d="M3.9,38.4c0-0.3,0-0.5-0.1-0.8c-1.1-1.3-2.4-2.6-3.7-3.9V34C0.2,36.2,1.8,38.1,3.9,38.4L3.9,38.4z"/>
			<path class="st0" d="M3.9,38.4c0.2,0,0.5,0.1,0.7,0.1c-0.2-0.3-0.5-0.6-0.7-0.9C3.9,37.9,3.9,38.1,3.9,38.4z"/>
		</g>
	</g>
</g>
</svg>
