<?xml version="1.0" encoding="utf-8"?>
<!-- Generator: Adobe Illustrator 27.6.1, SVG Export Plug-In . SVG Version: 6.00 Build 0)  -->
<svg version="1.1" id="Layer_1" xmlns="http://www.w3.org/2000/svg" xmlns:xlink="http://www.w3.org/1999/xlink" x="0px" y="0px"
	 viewBox="0 0 135 25" style="enable-background:new 0 0 135 25;" xml:space="preserve">
<style type="text/css">
	.st0{fill:#FFFFFF;}
</style>
<g id="Artboard">
	<g id="logo_english">
		<polygon id="Fill-303" class="st0" points="34.3,23.6 31.9,23.6 31.9,9.2 2.4,9.2 2.4,23.6 0,23.6 0,6.8 34.3,6.8 		"/>
		<polygon id="Fill-304" class="st0" points="84.5,23.6 50.3,23.6 50.3,6.8 52.6,6.8 52.6,21.3 82.2,21.3 82.2,6.8 84.5,6.8 		"/>
		<polygon id="Fill-305" class="st0" points="125.7,23.6 91.5,23.6 91.5,6.8 93.8,6.8 93.8,21.3 125.7,21.3 		"/>
		<polygon id="Fill-306" class="st0" points="41.2,23.6 43.6,23.6 43.6,6.8 41.2,6.8 		"/>
		<polygon id="Fill-307" class="st0" points="41.2,5 43.6,5 43.6,0.1 41.2,0.1 		"/>
		<polygon id="Fill-308" class="st0" points="132.5,23.6 134.8,23.6 134.8,6.8 132.5,6.8 		"/>
		<polygon id="Fill-309" class="st0" points="132.5,5 134.8,5 134.8,0.1 132.5,0.1 		"/>
	</g>
</g>
</svg>
