<?xml version="1.0" encoding="UTF-8"?>
<svg id="Layer_2" data-name="Layer 2" xmlns="http://www.w3.org/2000/svg" viewBox="0 0 119.46 119.46">
  <defs>
    <style>
      .cls-1 {
        fill: #fff;
      }

      .cls-2 {
        fill: #f14144;
      }
    </style>
  </defs>
  <g id="Ready_Set_Yummy" data-name="Ready, Set, Yummy">
    <g>
      <path class="cls-2" d="m55.37,35.42v-14.07s-.8.32-2.68-1.79c-1.87-2.12-2.04-3.86-2.16-5.38-.42-5.12,1.1-12.79,1.1-12.79C51.69.6,52.2,0,52.81,0h1.04c.61,0,1.12.6,1.19,1.4l1.1,12.79c.16.22.58.25.8,0l1.1-12.79C58.09.6,58.6,0,59.21,0h1.04c.61,0,1.12.6,1.19,1.4l1.1,12.79c.09.17.7.19.8,0l1.1-12.79C64.5.6,65.01,0,65.61,0h1.04c.61,0,1.12.6,1.19,1.4,0,0,1.52,7.67,1.1,12.79-.13,1.51-.29,3.26-2.16,5.38-1.87,2.12-2.68,1.79-2.68,1.79v14.07c0,1.33-.82,2.41-1.83,2.41h-5.07c-1.01,0-1.83-1.08-1.83-2.41Z"/>
      <path class="cls-2" d="m64.1,84.04v14.07s.8-.32,2.68,1.79,2.04,3.86,2.16,5.38c.42,5.12-1.1,12.79-1.1,12.79-.07.8-.58,1.4-1.19,1.4h-1.04c-.61,0-1.12-.6-1.19-1.4l-1.1-12.79c-.16-.22-.58-.25-.8,0l-1.1,12.79c-.07.8-.58,1.4-1.19,1.4h-1.04c-.61,0-1.12-.6-1.19-1.4l-1.1-12.79c-.09-.17-.7-.19-.8,0l-1.1,12.79c-.07.8-.58,1.4-1.19,1.4h-1.04c-.61,0-1.12-.6-1.19-1.4,0,0-1.52-7.67-1.1-12.79.13-1.51.29-3.26,2.16-5.38,1.87-2.12,2.68-1.79,2.68-1.79v-14.07c0-1.33.82-2.41,1.83-2.41h5.07c1.01,0,1.83,1.08,1.83,2.41Z"/>
      <path class="cls-2" d="m35.42,64.1h-14.07s.32.8-1.79,2.68-3.86,2.04-5.38,2.16c-5.12.42-12.79-1.1-12.79-1.1C.6,67.77,0,67.26,0,66.65v-1.04c0-.61.6-1.12,1.4-1.19l12.79-1.1c.22-.16.25-.58,0-.8l-12.79-1.1C.6,61.37,0,60.86,0,60.25v-1.04c0-.61.6-1.12,1.4-1.19l12.79-1.1c.17-.09.19-.7,0-.8l-12.79-1.1C.6,54.97,0,54.46,0,53.85v-1.04c0-.61.6-1.12,1.4-1.19,0,0,7.67-1.52,12.79-1.1,1.51.13,3.26.29,5.38,2.16,2.12,1.87,1.79,2.68,1.79,2.68h14.07c1.33,0,2.41.82,2.41,1.83v5.07c0,1.01-1.08,1.83-2.41,1.83Z"/>
      <path class="cls-2" d="m84.04,55.37h14.07s-.32-.8,1.79-2.68c2.12-1.87,3.86-2.04,5.38-2.16,5.12-.42,12.79,1.1,12.79,1.1.8.07,1.4.58,1.4,1.19v1.04c0,.61-.6,1.12-1.4,1.19l-12.79,1.1c-.22.16-.25.58,0,.8l12.79,1.1c.8.07,1.4.58,1.4,1.19v1.04c0,.61-.6,1.12-1.4,1.19l-12.79,1.1c-.17.09-.19.7,0,.8l12.79,1.1c.8.07,1.4.58,1.4,1.19v1.04c0,.61-.6,1.12-1.4,1.19,0,0-7.67,1.52-12.79,1.1-1.51-.13-3.26-.29-5.38-2.16s-1.79-2.68-1.79-2.68h-14.07c-1.33,0-2.41-.82-2.41-1.83v-5.07c0-1.01,1.08-1.83,2.41-1.83Z"/>
      <path class="cls-1" d="m51.42,51.42h11.57c2.79,0,5.05,2.26,5.05,5.05v11.57h-11.57c-2.79,0-5.05-2.26-5.05-5.05v-11.57h0Z" transform="translate(59.73 -24.74) rotate(45)"/>
      <path class="cls-1" d="m26.42,77.6h4.21c6.2,0,11.23,5.03,11.23,11.23v4.21h-4.21c-6.2,0-11.23-5.03-11.23-11.23v-4.21h0Z" transform="translate(119.46 51.18) rotate(90)"/>
      <path class="cls-1" d="m77.6,26.42h4.21c6.2,0,11.23,5.03,11.23,11.23v4.21h-4.21c-6.2,0-11.23-5.03-11.23-11.23v-4.21h0Z" transform="translate(119.46 -51.18) rotate(90)"/>
      <path class="cls-1" d="m77.6,77.6h4.21c6.2,0,11.23,5.03,11.23,11.23v4.21h-4.21c-6.2,0-11.23-5.03-11.23-11.23v-4.21h0Z"/>
      <path class="cls-1" d="m26.42,26.42h4.21c6.2,0,11.23,5.03,11.23,11.23v4.21h-4.21c-6.2,0-11.23-5.03-11.23-11.23v-4.21h0Z"/>
    </g>
  </g>
</svg>