<?xml version="1.0" encoding="UTF-8"?>
<svg id="Layer_2" data-name="Layer 2" xmlns="http://www.w3.org/2000/svg" viewBox="0 0 93 51.38">
  <defs>
    <style>
      .cls-1 {
        fill: #fff;
      }
    </style>
  </defs>
  <g id="Layer_1-2" data-name="Layer 1">
    <g id="Artwork_34" data-name="Artwork 34">
      <g>
        <path class="cls-1" d="m49.88,34.04l4.35-9.03h-15.28c-3.14,0-6.01,1.8-7.38,4.63l-2.12,4.4h5.8l-2.1,4.24h-7.51c-6.98,0-12.64-5.73-12.54-12.73.11-6.89,5.85-12.35,12.73-12.35h14.27L46.42.09h-20.5C11.7.09,0,11.53,0,25.74c0,7.07,2.88,13.48,7.51,18.12,3.79,3.8,8.78,6.4,14.34,7.23,1.24.19,2.51.28,3.79.28h15.82l6.31-13.1,2.1-4.24Z"/>
        <path class="cls-1" d="m71.15.28c-1.24-.18-2.51-.28-3.79-.28h-15.82l-9.91,20.71h9.44c3.16,0,6.04-1.82,7.4-4.68l1.39-2.93h7.31c6.88,0,12.63,5.47,12.73,12.35.1,7-5.56,12.73-12.54,12.73h-14.47l-6.31,13.1h20.51c14.21,0,25.92-11.44,25.91-25.65,0-7.08-2.87-13.49-7.51-18.13-3.79-3.79-8.78-6.4-14.34-7.23"/>
      </g>
    </g>
  </g>
</svg>