<?xml version="1.0" encoding="UTF-8"?>
<svg id="Layer_2" data-name="Layer 2" xmlns="http://www.w3.org/2000/svg" viewBox="0 0 71.21 79.92">
  <defs>
    <style>
      .cls-1 {
        fill: #ed1c24;
      }

      .cls-2 {
        fill: #00a651;
      }

      .cls-3 {
        fill: #d09b2c;
      }
    </style>
  </defs>
  <g id="Layer_1-2" data-name="Layer 1">
    <g>
      <path class="cls-2" d="m48.52,24.5c-4.72.74-8.32,4.82-8.32,9.74,0,.24,0,.49.03.73,1.17-3.9,4.71-6.78,8.94-6.99-2.19,1.7-3.6,4.35-3.6,7.33,0,.29.01.58.04.86.03.36.09.72.16,1.07.12.56.29,1.1.5,1.61,0-.56.06-1.11.16-1.64.1-.6.26-1.17.47-1.73.76-2.06,2.15-3.81,3.94-5.02.33-.22.67-.42,1.03-.6.16,5.96.18,13.69-.55,18.57.53.39,1.05.79,1.55,1.18.07.06.15.11.22.17.07-.06.15-.11.22-.17.51-.39,1.03-.79,1.56-1.18-.71-4.86-.63-12.55-.44-18.51.32.17.63.35.92.55,1.79,1.2,3.18,2.95,3.94,5.02.21.55.36,1.13.47,1.73.09.54.15,1.08.16,1.64.21-.51.38-1.05.5-1.61.07-.35.13-.71.16-1.07.03-.28.04-.57.04-.86,0-2.98-1.41-5.63-3.6-7.33,4.23.21,7.76,3.1,8.94,6.99.02-.24.03-.48.03-.73,0-4.92-3.6-9-8.32-9.74,1.1-.42,2.29-.66,3.54-.66,2.35,0,4.51.82,6.2,2.2-1.64-2.96-4.8-4.96-8.43-4.96-.69,0-1.37.07-2.02.21,1.26-1.55,2.98-2.71,4.96-3.25-.43-.06-.87-.09-1.32-.09-2.52,0-4.8.97-6.52,2.55-.15-1.1-.46-2.15-.92-3.12-.51.96-.89,2.01-1.09,3.11-1.72-1.58-4-2.54-6.51-2.54-.45,0-.89.03-1.32.09,1.98.54,3.71,1.7,4.96,3.25-.65-.14-1.32-.21-2.02-.21-3.62,0-6.78,2-8.43,4.96,1.69-1.38,3.85-2.2,6.2-2.2,1.25,0,2.44.23,3.54.66"/>
      <path class="cls-3" d="m66.67,45.25c-1.54.1-3.07.41-4.55.9-2.22.74-4.26,1.92-6.29,3.08-2.18,1.24-4.36,2.47-6.52,3.75-1.55.92-3.04,1.96-4.59,2.89-1.21.73-2.43,1.55-3.79,1.93-.44.12-.94.03-1.24-.34-.1-.12-.14-.3-.33-.3-.34,0-.31.49-.29.72.06.84.83,1.41,1.59,1.61,1.1.3,2.26-.06,3.26-.54,2.16-1.03,4.15-2.41,6.19-3.65,1.49-.91,2.98-1.81,4.46-2.73,2.69-1.67,5.32-3.44,8.2-4.77,2.59-1.19,5.43-1.99,8.44-2.1-1.45-.44-3.01-.53-4.54-.45"/>
      <path class="cls-3" d="m39.51,45.25c1.54.1,3.07.41,4.55.9,2.22.74,4.26,1.92,6.29,3.08,2.18,1.24,4.36,2.47,6.52,3.75,1.55.92,3.04,1.96,4.59,2.89,1.21.73,2.43,1.55,3.79,1.93.44.12.94.03,1.24-.34.1-.12.14-.3.33-.3.34,0,.31.49.29.72-.07.84-.83,1.41-1.59,1.61-1.1.3-2.26-.06-3.26-.54-2.16-1.03-4.15-2.41-6.19-3.65-1.49-.91-2.98-1.81-4.46-2.73-2.68-1.67-5.32-3.44-8.2-4.77-2.59-1.19-5.43-1.99-8.44-2.1,1.45-.44,3.01-.53,4.54-.45"/>
      <path class="cls-1" d="m53.06,72.81c-18.34,0-33.2-14.87-33.2-33.2S34.73,6.41,53.06,6.41c4.03,0,7.89.72,11.46,2.03C57.75,3.15,49.22,0,39.96,0,17.89,0,0,17.89,0,39.96s17.89,39.96,39.96,39.96c10.03,0,19.2-3.7,26.21-9.8-4.02,1.73-8.45,2.69-13.11,2.69"/>
    </g>
  </g>
</svg>