<?xml version="1.0" encoding="utf-8"?>
<!-- Generator: Adobe Illustrator 27.6.1, SVG Export Plug-In . SVG Version: 6.00 Build 0)  -->
<svg version="1.1" id="Layer_2_00000180359957109199091890000004138624668930990264_"
	 xmlns="http://www.w3.org/2000/svg" xmlns:xlink="http://www.w3.org/1999/xlink" x="0px" y="0px" viewBox="0 0 531.4 592"
	 style="enable-background:new 0 0 531.4 592;" xml:space="preserve">
<style type="text/css">
	.st0{fill:#462917;}
	.st1{fill:#CA9E69;}
</style>
<g id="Layer_1-2">
	<g>
		<g>
			<path class="st0" d="M71.8,421.4c114.3-2.7,227.9,22,330,74c1.6,0.8,3.1,2,4.3,3.4l59.9,71.1c9.2,10.9-2.7,26.6-15.8,20.8
				c-103.1-45.9-216.4-65.8-329.4-58c-4.8,0.3-9.4-1.9-12.1-5.8c-18.5-27.6-34.8-56.2-48.8-86.3C55.7,431.7,62,421.6,71.8,421.4
				L71.8,421.4z"/>
			<path class="st1" d="M325.7,403.5l-21-24.9c-1.4-1.7-3.2-3-5.2-3.8c-83.5-34.5-173.1-51.5-263.4-51.5c-8.9,0-15.1,8.6-12.8,17.1
				c5.8,20.9,12.7,41.4,20.6,61.6c2.2,5.8,8.2,9.1,14.4,8.3c84.8-11.7,171.1-6.7,253.7,14.7C324.8,428.4,334.2,413.6,325.7,403.5
				L325.7,403.5z"/>
			<path class="st1" d="M235,295.9l-29-34.4c-1.6-1.8-3.6-3.2-5.8-4.1c-58.8-21-120.6-33.2-182.9-37.6c-8.2-0.6-15,6.4-14.2,14.6
				c2.3,22.7,6,45.1,10.8,67.4c1.4,6.7,7.8,11.1,14.6,10.4c64.7-6.8,130.1-5.1,194.2,5.4C234.9,319.8,243,305.4,235,295.9L235,295.9
				z"/>
			<path class="st1" d="M149.4,194.4l-37.5-44.5c-1.5-1.8-3.5-3.2-5.7-4c-28.9-10.6-58.9-18.6-89.1-25.1C9.1,119,1.4,124.8,1,132.9
				c-1.2,21.4-1.2,43-0.3,64.4c0.3,7.4,6.7,13,14.2,12.6c40.9-2,81.9-0.2,122.2,6.2C149.3,218.2,157.4,203.9,149.4,194.4
				L149.4,194.4z"/>
		</g>
		<g>
			<path class="st0" d="M428.1,121.1c-22,112.2-16.9,228.4,17.1,337.7c0.5,1.8,1.4,3.4,2.6,4.8l59.9,71.1c9.2,10.9,26.7,1.8,23.2-12
				c-27.8-109.3-28.2-224.4-1.4-334.5c1.1-4.7-0.2-9.6-3.7-12.9c-24.1-22.9-49.5-43.9-76.8-62.8C441,107,430,111.6,428.1,121.1
				L428.1,121.1z"/>
			<path class="st1" d="M367.5,368.4l-21-24.9c-1.4-1.7-2.4-3.7-2.9-5.8c-19.8-88.2-21.5-179.3-6.2-268.3c1.5-8.7,11-13.5,19-9.7
				c19.6,9.3,38.6,19.5,57.3,30.7c5.3,3.2,7.6,9.7,5.7,15.6c-25.9,81.6-35.6,167.5-28.4,252.6C392.2,371.7,376,378.4,367.5,368.4
				L367.5,368.4z"/>
			<path class="st1" d="M276.8,260.7l-29-34.4c-1.6-1.8-2.6-4.1-3-6.4c-10.8-61.5-12.3-124.5-6.1-186.7c0.8-8.2,8.9-13.7,16.8-11.5
				c22,6.2,43.4,13.6,64.6,22c6.4,2.5,9.7,9.5,7.8,16.1c-17.6,62.6-27.1,127.4-27.5,192.4C300.3,264.7,284.8,270.2,276.8,260.7
				L276.8,260.7z"/>
			<path class="st1" d="M191.2,159.2l-37.5-44.5c-1.5-1.8-2.6-4-3-6.3c-5.6-30.3-8.4-61.2-9.7-92.1c-0.4-8.1,6.7-14.7,14.8-13.8
				c21.3,2.4,42.5,6.1,63.5,10.6c7.3,1.6,11.7,8.9,10.1,16.1c-8.9,39.9-14,80.6-14.5,121.5C214.7,163.1,199.2,168.7,191.2,159.2
				L191.2,159.2z"/>
			<path class="st1" d="M107.5,1.2C82.9-0.3,57.9-0.4,33.4,0.9c-5.9,0.3-10.9,4.6-12.2,10.3c-5.5,23.9-9.6,48.6-12.3,73.1
				C8,91.8,13.7,98.4,21.2,99.1c27.5,2.3,54.7,6.4,81.4,13.1c3,0.8,6,0.4,8.5-0.7c2.3-1,4.2-2.6,5.6-4.6c1.7-2.4,2.6-5.4,2.3-8.6
				c-2.1-27.5-1.6-55,0.8-82.4C120.6,8.3,115.1,1.6,107.5,1.2L107.5,1.2z"/>
		</g>
	</g>
</g>
</svg>
