<?xml version="1.0" encoding="utf-8"?>
<!-- Generator: Adobe Illustrator 27.6.1, SVG Export Plug-In . SVG Version: 6.00 Build 0)  -->
<svg version="1.1" id="Layer_2_00000155837918513084678050000015668812388163545006_"
	 xmlns="http://www.w3.org/2000/svg" xmlns:xlink="http://www.w3.org/1999/xlink" x="0px" y="0px" viewBox="0 0 134.3 189.9"
	 style="enable-background:new 0 0 134.3 189.9;" xml:space="preserve">
<style type="text/css">
	.st0{fill:#5D7289;}
	.st1{fill:#B2A094;}
</style>
<g>
	<path class="st0" d="M134.2,3.8v183.4c0,1.5-1.2,2.7-2.7,2.7H1.2c0.5-13.6,1.6-25.3,3.8-31.4c0.7-1.8,4-4.4,5.6-5.4
		c13.2-8,19.4-2.7,24.3-6.6c4.4-3.5,11.5-14.4,10.6-20c-0.6-3.6-13-9.8-12.4-11.8c0.5-1.5,11.7-7.4,22.5-14.4c0,0,0,0,0,0
		c0.6,0.4,6.4,2,12.9,3c8.2,1.2,16.1,1,18,0c0.7-0.4,1.3-0.7,1.9-1.1c22.1-16.3-7.9-33.8-14.1-39.3c-7.4-6.7-10.5-15.8-8.2-21.5
		c4-9.7,17,8.8,29.8,0.1c9.8-6.7,10-14,14.7-16.3c1.2-0.6,7.7,5.5,11.6,3.7c3.7-1.7,7.7-11,10.1-18.4c0.8-2.5,1.4-4.8,1.8-6.5
		C134.1,4,134.2,3.9,134.2,3.8z"/>
	<path class="st1" d="M132.5-0.1c-0.2,0.5-0.4,1-0.7,1.7c-1.5,4-3.2,10.6-5.6,14.5c-1.3,2.1-9.9-2.9-10.5-3.8
		c-0.4-0.6,0.2-2.6-0.5-2.8c-2.4-0.7-6.5,9.7-8.4,13c-1,1.8-3.9,5.1-5.9,5.5c-5,1-8-4.3-13.9-6.2c-1.8-0.6-5-0.2-8.6,1.2
		C68.6,26.8,58.2,38.1,55.3,57c-0.2,1.7,0.1,3.3,0.8,4.9c-0.4,0-0.7,0.1-1,0.2c-6.6,2.9-18.3,17.6-11,31.6c0,0.1-0.3,0.3-0.8,0.6
		c-5.5,3.6-15.7,5.6-21.2,33.3c0,0.2-0.3,1.1-1.4,1.6c-3.6,1.4-8.4,2.8-13.8,10.6c-3.6,5.2-5.6,16-6.9,25.1
		c-0.1,0.7-0.2,1.5-0.3,2.2V2.6c0-1.5,1.2-2.7,2.7-2.7H132.5z"/>
	<g>
		<path class="st0" d="M87.2,91.1c-1,2-12.6-0.1-17.2-1.5c4.1-3.9,6.6-7.6,6-10.8c0.2,0.2,0.5,0.3,0.7,0.5
			C80,81.6,88.7,88.1,87.2,91.1z"/>
		<path class="st1" d="M67.1,82.8c-0.3,2.1-6.8,4.6-9,4.2c-3.7-0.7-11.6-4.7-10.8-10.1c0.3-1.9,4.2-4.4,6.1-4.5
			C58.5,72,67.5,79.9,67.1,82.8z"/>
	</g>
</g>
<g>
	<path class="st1" d="M132.5-0.1c-0.2,0.5-0.4,1-0.7,1.7c-1.5,4-3.2,10.6-5.6,14.5c-1.3,2.1-9.9-2.9-10.5-3.8
		c-0.4-0.6,0.2-2.6-0.5-2.8c-2.4-0.7-6.5,9.7-8.4,13c-1,1.8-3.9,5.1-5.9,5.5c-5,1-8-4.3-13.9-6.2c-1.8-0.6-5-0.2-8.6,1.2
		C68.6,26.8,58.2,38.1,55.3,57c-0.2,1.7,0.1,3.3,0.8,4.9c-0.4,0-0.7,0.1-1,0.2c-6.6,2.9-18.3,17.6-11,31.6c0,0.1-0.3,0.3-0.8,0.6
		c-5.5,3.6-15.7,5.6-21.2,33.3c0,0.2-0.3,1.1-1.4,1.6c-3.6,1.4-8.4,2.8-13.8,10.6c-3.6,5.2-5.6,16-6.9,25.1
		c-0.1,0.7-0.2,1.5-0.3,2.2V2.6c0-1.5,1.2-2.7,2.7-2.7H132.5z"/>
	<g>
		<path class="st1" d="M67.1,82.8c-0.3,2.1-6.8,4.6-9,4.2c-3.7-0.7-11.6-4.7-10.8-10.1c0.3-1.9,4.2-4.4,6.1-4.5
			C58.5,72,67.5,79.9,67.1,82.8z"/>
	</g>
</g>
</svg>
