<?xml version="1.0" encoding="UTF-8"?>
<svg id="Layer_2" data-name="Layer 2" xmlns="http://www.w3.org/2000/svg" viewBox="0 0 785 250.9">
  <defs>
    <style>
      .cls-1 {
        fill: #fff;
      }
    </style>
  </defs>
  <g id="Layer_10" data-name="Layer 10">
    <path class="cls-1" d="m784.9,0l-30.8,36.8h-114.5c-19.4,4.4-29.1,19-29.8,38-.4,24.3,13.7,35.9,36.8,39.7h138v35.1h-149.1c-44.8-4.3-65.8-35.9-67.2-74.8,2.5-36.9,20.4-67.4,66-74.8h150.6Zm-308.7,140v21.9c2.9,18.3,15.9,30.4,40,35.6h268.8v-35.6h-256.8c-5.9-1-10.4-3.7-12-10.8v-61.4l-40,50.3Zm0-70.3h40V0h-40v69.7Zm-5.6,7.9l-142.2,173.3h50.7l137.2-173.3h-45.7Zm-160.5-32.1v36c85.2-10.1,86.2,78.2-.4,78.7l-26.4-.1-33.1,37.4h98.8c4.9-.2,8.9-1.5,11.4-4.3l51.4-63.9c4-47.2-16.6-82.6-67.5-83.7l-34.2-.1h0ZM124.5,0v153.7c-.3,24.1,8.7,40.1,39.1,43.8h76.8v-36.8h-65.2c-8.1-.2-10.9-2.4-11.7-7V0h-39Zm-47.6,0v153.7c-.7,4.7-3.6,6.9-11.7,7H0v36.8h76.8c30.4-3.8,39.1-19.4,39.1-43.8V0h-39Zm96.7,250.9h66.9v-36.8h-66.9v36.8Z"/>
  </g>
</svg>