<?xml version="1.0" encoding="UTF-8"?>
<svg id="Layer_2" data-name="Layer 2" xmlns="http://www.w3.org/2000/svg" viewBox="0 0 177.88 183.11">
  <defs>
    <style>
      .cls-1 {
        fill: #fff;
      }
    </style>
  </defs>
  <g id="Layer_1-2" data-name="Layer 1">
    <g>
      <path class="cls-1" d="m165.49,85.3l6.29,6.24v29.86l-6.29,4.08v-40.17m-6.1-14.65v66.05l18.5-11.99v-35.72l-18.5-18.34h0Z"/>
      <path class="cls-1" d="m12.39,85.3v40.17l-6.29-4.08v-29.86l6.29-6.24m6.1-14.65L0,88.99v35.72l18.5,11.99v-66.05h0Z"/>
      <polygon class="cls-1" points="121.83 33.43 121.83 85.62 129.16 85.62 129.16 51 142.26 63.99 142.26 139.08 129.16 147.57 129.16 132.16 121.83 132.16 121.83 161.05 149.58 143.06 149.58 60.93 121.83 33.43 121.83 33.43"/>
      <polygon class="cls-1" points="56.05 33.43 28.3 60.93 28.3 143.06 56.05 161.05 56.05 132.16 48.72 132.16 48.72 147.57 35.63 139.08 35.63 63.99 48.72 51 48.72 85.62 56.05 85.62 56.05 33.43 56.05 33.43"/>
      <polygon class="cls-1" points="88.94 0 88.73 .21 70.24 18.54 70.24 85.62 78.78 85.62 78.78 22.11 88.94 12.03 99.65 22.65 99.65 85.62 108.2 85.62 108.2 19.09 89.16 .21 88.94 0 88.94 0"/>
      <polygon class="cls-1" points="108.2 132.16 99.65 132.16 99.65 165.99 88.94 172.93 78.78 166.34 78.78 132.16 70.24 132.16 70.24 170.99 88.73 182.97 88.94 183.11 89.16 182.97 108.2 170.63 108.2 132.16 108.2 132.16"/>
      <g>
        <path class="cls-1" d="m66.5,114.65c.97,0,1.8-.35,2.51-1.05.7-.7,1.06-1.53,1.06-2.49v-14.41c0-.99-.35-1.83-1.05-2.52-.7-.68-1.53-1.03-2.5-1.03h-25.53v31.48h8.11v-9.98h9.17l3.92,9.98h7.97l-3.89-9.98h.23Zm-4.55-6.76c0,.09-.08.19-.25.28-.17.09-.34.14-.5.14h-12.1v-8.44h12.1c.17,0,.34.05.5.14.17.09.25.2.25.33v7.55Z"/>
        <path class="cls-1" d="m99.65,93.2c-.26-.03-.52-.05-.79-.05h-19.83c-.08,0-.16,0-.24,0-1.44.05-2.59.5-3.43,1.36-.6.62-.89,1.47-.89,2.33v27.78h8.13v-7.83h12.73v7.83s4.33,0,4.33,0h3.77v-27.78c0-.86-.29-1.72-.9-2.33-.73-.75-1.69-1.18-2.87-1.32Zm-4.34,16.79h-12.73v-9.47c0-.25.17-.47.5-.65.33-.19.75-.28,1.25-.28h8.99c.61,0,1.09.09,1.46.26.36.17.54.4.54.68v9.47Z"/>
        <polygon class="cls-1" points="129.16 93.15 128.32 93.15 122.49 107.84 121.83 106.31 116.15 93.15 108.2 93.15 107.94 93.15 107.94 124.63 108.2 124.63 115.4 124.63 115.4 106.82 120.77 118.99 121.83 118.99 123.94 118.99 129.16 106.72 129.25 106.49 129.25 124.63 136.9 124.63 136.9 93.15 129.16 93.15"/>
      </g>
    </g>
  </g>
</svg>