<?xml version="1.0" encoding="UTF-8"?>
<svg id="Layer_2" data-name="Layer 2" xmlns="http://www.w3.org/2000/svg" viewBox="0 0 771.89 771.96">
  <defs>
    <style>
      .cls-1 {
        fill: #ccab84;
      }

      .cls-2 {
        fill: #1b3e71;
      }

      .cls-3 {
        fill: #4a98d0;
      }

      .cls-4 {
        fill: #82ccf1;
      }
    </style>
  </defs>
  <g id="Layer_1-2" data-name="Layer 1">
    <g>
      <path class="cls-1" d="m414.18,5.23c-8.26-3.49-16.98-5.23-25.93-5.23s-17.07,1.65-25.06,4.86l-74.35,30.2,61.04,25.15c9.18-5.55,18.82-10.28,28.68-14.14l6.61-2.57,6.61,2.52c9.96,3.86,19.6,8.54,28.68,14.04l62.19-25.88-68.48-28.96Zm260.96,131.49c-6.7-16.48-19.41-29.37-35.8-36.3l-74.35-31.44,25.47,61.18c10.37,2.52,20.47,5.97,30.2,10.23l6.47,2.85,2.89,6.47c4.31,9.68,7.8,19.83,10.42,30.29l62.74,25.84-28.04-69.12Zm-253.52,574.1c-9.18,5.55-18.77,10.28-28.68,14.14l-6.56,2.57-6.65-2.57c-9.91-3.81-19.55-8.49-28.68-14l-63.11,26.25,69.81,29.51c8.26,3.44,16.98,5.23,25.93,5.23s17.03-1.65,25.01-4.91l75.27-30.52-62.33-25.7Zm-240.15-69.92c-10.42-2.56-20.54-6-30.28-10.29l-6.46-2.82-2.89-6.52c-4.32-9.7-7.82-19.83-10.38-30.18l-63.19-26.06,28.49,70.23c3.41,8.28,8.31,15.71,14.64,22.04,6.1,6.1,13.21,10.87,21.16,14.21l74.8,31.64-25.9-62.24Zm459.67-50.69c-2.57,10.42-6.01,20.61-10.28,30.29l-2.89,6.47-6.47,2.89c-9.73,4.27-19.83,7.76-30.2,10.33l-26.11,63.38,69.99-28.41c16.48-6.7,29.42-19.41,36.39-35.8l31.67-74.99-62.1,25.84ZM136.7,96.79c-16.48,6.7-29.37,19.41-36.3,35.8l-31.16,73.71,61.18-25.47c2.57-10.42,6.01-20.56,10.33-30.29l2.89-6.56,6.52-2.85c9.73-4.27,19.78-7.71,30.06-10.28l25.61-62.1-69.12,28.04Zm630.37,266.42l-30.57-75.27-25.43,61.73c5.46,9.04,10.19,18.63,14.09,28.59l2.62,6.65-2.57,6.61c-3.81,9.96-8.49,19.6-14,28.73l26.25,63.11,29.19-69.16c6.84-16.16,6.98-34.74.41-50.99Zm-720.74,29.6l-2.62-6.65,2.62-6.7c3.86-9.96,8.54-19.55,14-28.64l-25.88-62.19-29.24,69.12c-6.84,16.16-6.93,34.74-.37,50.94l30.2,74.35,25.43-61.68c-5.51-9.09-10.23-18.63-14.14-28.55Z"/>
      <path class="cls-2" d="m249.69,58.61l-27.49,66.73c1.01,0,2.02-.05,2.98-.05,12.67,0,25.29,1.33,37.63,3.86,6.1,1.24,12.16,2.85,18.17,4.73,2.89-5.55,6.01-10.97,9.45-16.2,7.53-11.52,16.2-22.08,25.93-31.58l-66.69-27.49Zm296.57,587.14c-11.98,0-23.96-1.19-35.71-3.49h-.05l-1.84-.37c-6.06-1.24-12.16-2.8-18.17-4.73-2.89,5.6-6.01,11.01-9.41,16.2-7.53,11.52-16.2,22.08-25.98,31.58l66.69,27.49,27.49-66.73c-1.01,0-2.02.05-3.03.05ZM128.99,263.39c-2.85-13.4-4.18-26.99-3.99-40.53l-66.59,27.72,27.72,66.59c7.11-7.39,14.87-14.14,23.22-20.29v-.32l8.31-5.51c5.23-3.4,10.6-6.56,16.11-9.45-1.88-5.97-3.49-12.07-4.77-18.22Zm556.43,190.46c-9.45,9.78-19.96,18.5-31.53,26.07-5.19,3.44-10.56,6.61-16.11,9.5,1.93,5.97,3.53,12.02,4.77,18.08,2.85,13.49,4.13,27.12,3.99,40.71l66.59-27.77-27.72-66.59Zm-567.49,26.94c-11.52-7.48-22.08-16.15-31.58-25.93l-27.49,66.69,66.69,27.49c-.18-13.59,1.06-27.12,3.86-40.57,1.24-6.1,2.85-12.21,4.73-18.22-5.55-2.89-10.97-6.01-16.2-9.45ZM645.95,221.95c.23,13.58-1.06,27.17-3.81,40.62-1.29,6.15-2.85,12.21-4.73,18.22,5.6,2.85,10.97,6.01,16.2,9.41l8.35,5.42v.37c8.31,6.1,16.06,12.85,23.22,20.19l27.49-66.73-66.73-27.49Zm-125.25-163.8l-66.59,27.72c9.73,9.41,18.45,19.96,26.02,31.48,3.44,5.23,6.61,10.6,9.5,16.11,5.97-1.88,12.02-3.49,18.17-4.77l1.88-.37h.05c11.93-2.39,24.14-3.58,36.3-3.58.78,0,1.61,0,2.43.05l-27.77-66.64Zm-229.38,595.54c-3.4-5.19-6.56-10.6-9.45-16.11-5.92,1.88-12.02,3.49-18.17,4.77l-1.84.37h-.09c-11.93,2.34-24.09,3.58-36.26,3.58-.83,0-1.61-.05-2.43-.05l27.72,66.64,66.59-27.72c-9.78-9.45-18.45-19.96-26.07-31.48Z"/>
      <path class="cls-3" d="m255.43,165.13c-9.96-2.07-20.1-3.12-30.25-3.12-9.41,0-18.91.92-28.18,2.71-8.63,1.65-17.17,4.13-25.43,7.25-3.12,8.26-5.55,16.8-7.21,25.52-3.72,19.41-3.53,39.06.55,58.38.78,3.67,1.7,7.34,2.71,10.92l69.81-29.05,28.87-69.94c-3.63-1.06-7.25-1.93-10.88-2.66Zm351.19,349.9c-.73-3.63-1.65-7.21-2.71-10.79l-69.85,29.1-28.82,69.9c3.12.92,6.24,1.7,9.41,2.39l1.47.28c9.87,2.07,20.06,3.12,30.15,3.12,9.45,0,18.95-.92,28.27-2.71,8.67-1.7,17.21-4.13,25.47-7.3,3.12-8.17,5.55-16.71,7.21-25.47,3.67-19.41,3.49-39.1-.6-58.52Zm-459.27-199c-2.48,1.38-4.96,2.8-7.34,4.31l-2.25,1.47c-16.61,10.92-30.57,24.74-41.54,41.03-4.96,7.34-9.27,15.1-12.9,23.22,3.63,8.08,7.94,15.83,12.9,23.13,11.2,16.34,25.24,30.06,41.72,40.85,3.17,2.02,6.38,3.95,9.64,5.78l28.82-69.94-29.05-69.85Zm527.93,45.8c-11.15-16.34-25.2-30.11-41.72-40.85l-2.71-1.79c-2.25-1.38-4.54-2.71-6.88-3.99l-28.82,69.94,29.1,69.85c3.21-1.79,6.38-3.72,9.5-5.74,16.57-10.92,30.57-24.74,41.58-41.08,5-7.34,9.32-15.1,12.9-23.18-3.63-8.12-7.99-15.88-12.94-23.18Zm-68.7-165.08c-1.7-8.77-4.13-17.3-7.3-25.47-8.26-3.12-16.8-5.55-25.52-7.21-9.09-1.74-18.45-2.62-27.72-2.62-10.28,0-20.61,1.1-30.66,3.17l-1.84.41c-3.03.64-6.06,1.42-9.04,2.29l29.1,69.9,69.9,28.82c1.01-3.58,1.93-7.21,2.66-10.88,3.99-19.37,4.13-39.01.41-58.42Zm-157.1-59.2c-10.92-16.61-24.74-30.61-41.03-41.58-7.39-5.05-15.15-9.32-23.18-12.9-8.03,3.58-15.83,7.89-23.18,12.9-16.34,11.2-30.11,25.24-40.89,41.76-2.07,3.12-3.95,6.29-5.74,9.59l69.9,28.82,69.9-29.1c-1.84-3.21-3.76-6.38-5.78-9.5Zm-211.53,396.26l-69.9-28.82c-1.06,3.58-1.93,7.25-2.66,10.88-4.04,19.32-4.18,38.96-.41,58.42,1.65,8.72,4.13,17.26,7.3,25.47,8.22,3.12,16.75,5.55,25.47,7.21,9.13,1.74,18.45,2.62,27.77,2.62,10.28,0,20.61-1.1,30.66-3.21l1.84-.37c3.03-.69,6.06-1.42,9.04-2.29l-29.1-69.9Zm148.2,61.09l-69.9,29.1c1.84,3.21,3.72,6.43,5.78,9.5,10.88,16.57,24.69,30.57,41.08,41.58,7.34,5,15.1,9.32,23.18,12.9,8.03-3.58,15.79-7.89,23.18-12.94,16.29-11.15,30.06-25.2,40.89-41.72,2.02-3.12,3.95-6.29,5.74-9.55l-69.94-28.87Z"/>
      <path class="cls-4" d="m565.36,409.16l-7.02-16.89-2.94-7.02,2.89-7.07,6.98-16.94,15.24-36.9-26.07,10.83-120.66,50.26,120.84,49.84,26.07,10.74-15.33-36.85Zm-348.44-73.39h-.05l-26.02-10.74,15.33,36.76v.05l7.02,16.94,2.94,7.02-2.89,7.02-7.02,16.98-15.19,36.9,26.07-10.83,120.7-50.26-120.89-49.84Zm192.44-129.88l-16.94,7.07-7.02,2.94-7.02-2.89-16.94-6.98h-.05l-36.76-15.19,10.83,25.98,50.21,120.7,49.84-120.84v-.05l10.74-26.07-36.9,15.33Zm26.76,348.34v-.05l-50.26-120.75-49.84,120.93-10.74,26.07,36.81-15.33,16.94-7.02,7.02-2.94,7.02,2.89,16.98,6.98,36.9,15.24-10.83-26.02Zm104.55-85h-.05l-120.89-49.89,50.26,120.75v.05l10.83,26.02,15.24-36.95,6.98-16.89,2.89-7.07,7.02-2.89,16.89-7.02,36.9-15.38-26.07-10.74Zm-11.15-193.95l-16.98-6.98-7.02-2.94-2.94-7.02-7.02-16.94-15.33-36.81-10.74,26.07-49.84,120.84,120.7-50.21,26.07-10.83-36.9-15.19Zm-177.61,144.25l-49.8,120.84-10.74,26.11-15.38-36.85-7.07-16.94-2.89-7.02-7.02-2.89-16.98-7.02-36.85-15.19,26.02-10.83,120.7-50.21Zm-.14-67.88l-120.84-49.84-26.02-10.74,36.72-15.28h.05l16.89-7.02,7.02-2.94,2.89-7.02,7.02-17.03,15.24-36.9,10.83,26.07,50.21,120.7Z"/>
    </g>
  </g>
</svg>