<?xml version="1.0" encoding="utf-8"?>
<!-- Generator: Adobe Illustrator 27.6.1, SVG Export Plug-In . SVG Version: 6.00 Build 0)  -->
<svg version="1.1" id="Layer_2_00000137814310938169413620000009853913683792707763_"
	 xmlns="http://www.w3.org/2000/svg" xmlns:xlink="http://www.w3.org/1999/xlink" x="0px" y="0px" viewBox="0 0 243.2 218.8"
	 style="enable-background:new 0 0 243.2 218.8;" xml:space="preserve">
<style type="text/css">
	.st0{fill:#FFFFFF;}
	.st1{opacity:0.19;fill:url(#SVGID_1_);enable-background:new    ;}
	.st2{opacity:0.19;fill:url(#SVGID_00000114758358517354978350000005702956257946006432_);enable-background:new    ;}
	.st3{opacity:0.19;fill:url(#SVGID_00000123416072187166171300000018374816358127986111_);enable-background:new    ;}
	.st4{opacity:0.19;fill:url(#SVGID_00000117638994215547633620000014182868910831364763_);enable-background:new    ;}
</style>
<g id="Layer_1-2">
	<g>
		<g>
			<path class="st0" d="M125.5,172.7L125.5,172.7C125.5,172.8,125.6,172.8,125.5,172.7C125.5,172.8,125.5,172.8,125.5,172.7z
				 M232.8,139.2c-5.3-5.7-11.9-10.2-19.3-13.9c-13.1-6.4-28.8-9.9-44.5-11.9c7-19.7,11-39.5,11.5-56.5c1.3-31-24-57-55-56.9h0
				C94.6,0,69.3,25.9,70.6,57c0.5,17,4.5,36.8,11.5,56.5c-15.6,1.9-31.3,5.5-44.5,11.9c-7.4,3.6-14.1,8.2-19.4,13.9
				C11,147.2,7.2,158.1,8,168.8c0.2,4.3,1,8.7,2.3,12.8c7.3,23.9,30.9,39.4,55.7,36.9c22.5-2,42.6-14.2,59.5-31.8h0
				c16.9,17.6,37,29.8,59.5,31.8c24.8,2.6,48.3-13,55.7-36.9c1.3-4.1,2.1-8.4,2.3-12.8C243.9,158.1,240.2,147.2,232.8,139.2
				L232.8,139.2z M118.6,181.1c-12.2,13.4-28,24.4-46.1,27.4c-5.8,0.9-11.8,1.2-17.5,0.2c-18.2-3-32.7-18.6-34-37
				c-1.3-14.4,5.9-23.5,18.5-29.9c1.4-0.7,2.8-1.4,4.3-2c0,0,0,0,0,0c5-2.1,10.2-3.6,15.5-4.9c9.7-2.2,19.6-3.6,29.6-4.4
				c3.7,8.4,8,16.6,12.7,24.4c5.4,8.9,11.4,17.4,18,25.1C119.2,180.4,118.9,180.7,118.6,181.1L118.6,181.1z M125.6,172.8
				L125.6,172.8L125.6,172.8C125.6,172.8,125.5,172.7,125.6,172.8c-5.7-7.4-10.8-15.3-15.3-23.7c-3.4-6.2-6.4-12.7-9.1-19.3
				c-2.3-5.8-4.4-11.6-6.2-17.6c-5.3-17.7-8.2-36.1-8.3-53.6c0-1.4,0-3.6,0.2-5.1c1.6-19.9,18.7-35.7,38.6-35.5h0
				c20-0.1,37,15.7,38.6,35.5c0.2,1.4,0.2,3.7,0.2,5.1c-0.1,17.5-3,35.8-8.3,53.6c-1.8,5.9-3.8,11.8-6.2,17.6
				C143.7,145.3,135.5,160,125.6,172.8C118.9,181.3,118.9,181.3,125.6,172.8L125.6,172.8z M230.1,171.8c-1.3,18.4-15.8,34-34,37
				c-5.8,1-11.8,0.7-17.5-0.2c-18.1-3-33.9-14.1-46.2-27.4c-0.3-0.3-0.6-0.7-0.9-1c12.4-14.4,22.7-31.6,30.7-49.5
				c10,0.8,19.9,2.2,29.6,4.4c5.3,1.3,10.5,2.8,15.5,4.9c0,0,0,0,0,0c1.5,0.6,2.9,1.3,4.3,2C224.2,148.2,231.4,157.3,230.1,171.8
				L230.1,171.8z M125.5,172.7L125.5,172.7C125.5,172.8,125.5,172.8,125.5,172.7C125.5,172.8,125.5,172.7,125.5,172.7z"/>
			
				<linearGradient id="SVGID_1_" gradientUnits="userSpaceOnUse" x1="167.5187" y1="100.947" x2="201.1587" y2="82.727" gradientTransform="matrix(1 0 0 -1 0 217.89)">
				<stop  offset="0" style="stop-color:#241F1F"/>
				<stop  offset="1" style="stop-color:#241F1F;stop-opacity:0"/>
			</linearGradient>
			<path class="st1" d="M213.5,125.4l-6.1,14.5c0,0,0,0,0,0c-5-2.1-10.2-3.6-15.5-4.9c-9.7-2.2-19.6-3.6-29.6-4.4l6.8-17.1
				C184.7,115.4,200.4,119,213.5,125.4L213.5,125.4z"/>
			
				<linearGradient id="SVGID_00000004515382654987623950000000359845668319514251_" gradientUnits="userSpaceOnUse" x1="5801.6484" y1="100.9471" x2="5835.2886" y2="82.7271" gradientTransform="matrix(-1 0 0 -1 5885.2402 217.89)">
				<stop  offset="0" style="stop-color:#241F1F"/>
				<stop  offset="1" style="stop-color:#241F1F;stop-opacity:0"/>
			</linearGradient>
			
				<path style="opacity:0.19;fill:url(#SVGID_00000004515382654987623950000000359845668319514251_);enable-background:new    ;" d="
				M37.6,125.4l6.1,14.5c0,0,0,0,0,0c5-2.1,10.2-3.6,15.5-4.9c9.7-2.2,19.6-3.6,29.6-4.4l-6.8-17.1C66.4,115.4,50.7,119,37.6,125.4
				L37.6,125.4z"/>
			
				<linearGradient id="SVGID_00000007419847190293645970000002631998362250923422_" gradientUnits="userSpaceOnUse" x1="129.4954" y1="41.5758" x2="144.5454" y2="64.6958" gradientTransform="matrix(1 0 0 -1 0 217.89)">
				<stop  offset="0" style="stop-color:#241F1F"/>
				<stop  offset="1" style="stop-color:#241F1F;stop-opacity:0"/>
			</linearGradient>
			
				<path style="opacity:0.19;fill:url(#SVGID_00000007419847190293645970000002631998362250923422_);enable-background:new    ;" d="
				M125.6,172.8l6,7.3c6.6-7.7,12.6-16.1,18-25.1l-8.7-5.9C136.4,157.5,131.2,165.4,125.6,172.8L125.6,172.8L125.6,172.8z"/>
			
				<linearGradient id="SVGID_00000169525647285661842950000009848487989228697246_" gradientUnits="userSpaceOnUse" x1="120.8882" y1="33.3215" x2="102.4182" y2="16.9815" gradientTransform="matrix(1 0 0 -1 0 217.89)">
				<stop  offset="0" style="stop-color:#241F1F"/>
				<stop  offset="1" style="stop-color:#241F1F;stop-opacity:0"/>
			</linearGradient>
			
				<path style="opacity:0.19;fill:url(#SVGID_00000169525647285661842950000009848487989228697246_);enable-background:new    ;" d="
				M125.5,186.7c-7.4,7.7-15.5,14.4-24,19.7l-5.5-6.6c8.4-5,16-11.5,22.6-18.7c0.3-0.3,0.6-0.7,0.9-1L125.5,186.7z"/>
		</g>
	</g>
</g>
</svg>
