<?xml version="1.0" encoding="UTF-8"?>
<svg xmlns="http://www.w3.org/2000/svg" viewBox="0 0 167.71 111.76">
  <defs>
    <style>
      .cls-1 {
        isolation: isolate;
      }

      .cls-1, .cls-2, .cls-3 {
        fill: none;
      }

      .cls-4 {
        fill: #fff;
      }

      .cls-2, .cls-3 {
        mix-blend-mode: multiply;
      }

      .cls-3 {
        opacity: .7;
      }
    </style>
  </defs>
  <g class="cls-1">
    <g id="Layer_2" data-name="Layer 2">
      <g id="Layer_1-2" data-name="Layer 1">
        <g>
          <g class="cls-2">
            <polygon class="cls-4" points="31.52 48.66 59.02 82.97 58.5 74.94 43.42 54.79 31.52 48.66"/>
          </g>
          <g class="cls-2">
            <polygon class="cls-4" points="33.5 48.89 61.19 83.83 58.2 58.65 77.58 42.3 33.5 48.89"/>
          </g>
          <g class="cls-2">
            <polygon class="cls-4" points="58.35 80.24 56.24 57.87 33.5 48.89 58.35 80.24"/>
          </g>
          <g class="cls-3">
            <polygon class="cls-4" points="65.15 50.42 48.63 52.91 57.37 56.36 57.37 56.36 65.15 50.42"/>
          </g>
          <g class="cls-2">
            <polygon class="cls-4" points="66.88 30.1 42.51 36.34 32.3 45 74.52 32.68 66.89 30.1 66.88 30.1"/>
          </g>
          <g class="cls-2">
            <polygon class="cls-4" points="44.01 0 33.27 43.26 76.13 31.01 51.72 24.15 44.01 0"/>
          </g>
          <g class="cls-2">
            <polygon class="cls-4" points="50.25 25.68 33.27 43.26 33.28 43.26 71.74 32.27 50.25 25.68"/>
          </g>
          <g class="cls-3">
            <polygon class="cls-4" points="46.77 14.6 42.77 30.81 49.29 24.05 46.77 14.6"/>
          </g>
          <g class="cls-2">
            <polygon class="cls-4" points="24.64 29.5 23.57 32.68 23.57 32.69 26.16 42.83 29.77 47.08 24.64 29.5"/>
          </g>
          <g class="cls-2">
            <polygon class="cls-4" points="23.94 28.83 21.09 39 11.03 42.2 29.05 46.68 23.94 28.83"/>
          </g>
          <g class="cls-2">
            <polygon class="cls-4" points="24.46 30.66 21.72 39.61 29.05 46.68 24.46 30.66"/>
          </g>
          <g class="cls-3">
            <polygon class="cls-4" points="21.05 40 17.11 41.06 23.86 42.72 21.05 40"/>
          </g>
          <g class="cls-2">
            <polygon class="cls-4" points="1.05 60.01 6.56 61.42 23.4 55.74 30.14 49.09 1.05 60.01"/>
          </g>
          <g class="cls-2">
            <polygon class="cls-4" points="0 61.27 17.56 64.81 24.27 81.42 29.55 50.37 0 61.27"/>
          </g>
          <g class="cls-2">
            <polygon class="cls-4" points="29.55 50.37 3.03 60.15 18.52 63.66 29.55 50.37"/>
          </g>
          <g class="cls-3">
            <polygon class="cls-4" points="19.28 64.75 21.55 71.28 23.52 59.64 19.28 64.75"/>
          </g>
          <path class="cls-4" d="m73.6,104.35c0-.08.01-.16.04-.23.03-.07.07-.13.12-.18.05-.06.11-.1.18-.13.07-.03.15-.05.23-.05s.15.01.23.05c.07.03.13.07.18.13.05.05.1.11.13.18.03.07.05.15.05.23s-.02.15-.05.23c-.03.07-.07.13-.13.18-.05.05-.11.09-.18.12-.07.03-.15.05-.23.05-.16,0-.3-.05-.41-.17-.11-.11-.17-.25-.17-.41"/>
          <path class="cls-4" d="m80.59,111.05c0-.08.01-.16.05-.23.03-.07.07-.13.12-.18.05-.05.11-.09.18-.13.07-.03.14-.04.23-.04.08,0,.15.02.23.04.07.03.13.07.18.13.05.05.09.11.13.18.03.07.05.15.05.23,0,.08-.02.16-.05.23-.03.07-.07.13-.13.18-.05.05-.11.09-.18.12-.07.03-.15.05-.23.05-.17,0-.3-.06-.41-.17-.11-.11-.16-.25-.16-.41"/>
          <path class="cls-4" d="m82.15,111.05c0-.08.01-.16.05-.23.03-.07.07-.13.12-.18.05-.05.11-.09.18-.13.07-.03.15-.04.23-.04s.15.02.23.04c.07.03.13.07.18.13.05.05.1.11.12.18.03.07.05.15.05.23,0,.08-.01.16-.05.23-.03.07-.07.13-.12.18-.05.05-.11.09-.18.12-.07.03-.15.05-.23.05-.16,0-.3-.06-.41-.17-.11-.11-.17-.25-.17-.41"/>
          <path class="cls-4" d="m84.48,111.05c0-.08.02-.16.05-.23.03-.07.07-.13.12-.18.05-.05.11-.09.18-.13.07-.03.15-.04.22-.04s.16.02.23.04c.07.03.13.07.19.13.05.05.1.11.13.18.03.07.04.15.04.23,0,.08-.01.16-.04.23-.03.07-.07.13-.13.18-.05.05-.11.09-.19.12-.07.03-.15.05-.23.05-.16,0-.3-.06-.41-.17-.11-.11-.17-.25-.17-.41"/>
          <path class="cls-4" d="m86.03,111.05c0-.08.02-.16.05-.23.03-.07.07-.13.12-.18.05-.05.11-.09.18-.13.07-.03.15-.04.23-.04.08,0,.16.02.23.04.07.03.13.07.19.13.05.05.09.11.13.18.03.07.05.15.05.23,0,.08-.02.16-.05.23-.03.07-.07.13-.13.18-.05.05-.12.09-.19.12-.07.03-.15.05-.23.05-.16,0-.3-.06-.41-.17-.11-.11-.17-.25-.17-.41"/>
          <path class="cls-4" d="m89.6,105.21v3.23h-1.79s0,0,0,0h-.04c-.31,0-.57-.03-.8-.08-.22-.06-.42-.14-.58-.25v-2.89h-.98v2.61c0,.21-.03.36-.1.46-.07.1-.16.15-.28.15h-1.15c-.31,0-.58-.03-.8-.08-.22-.06-.42-.14-.58-.25v-2.89h-.98v2.61c0,.21-.03.36-.1.46-.07.1-.16.15-.28.15h-2.9s0,0,0,0h-.04c-.33,0-.62-.03-.85-.1-.23-.07-.44-.17-.61-.31-.02-.15-.04-.3-.07-.46-.03-.16-.06-.31-.1-.45-.03-.15-.07-.29-.11-.42-.04-.13-.08-.26-.12-.36l-.97.27c.07.14.12.3.17.47.05.17.09.34.13.51.03.17.06.33.07.48.02.15.03.28.03.38,0,.37-.05.7-.15.99-.1.29-.25.54-.44.74-.19.2-.43.36-.71.46-.28.11-.6.16-.96.16-.33,0-.63-.05-.89-.16-.26-.11-.48-.25-.65-.44-.18-.18-.31-.4-.4-.65-.09-.25-.13-.52-.13-.8,0-.13,0-.26.03-.4.02-.14.04-.27.08-.4.03-.13.07-.25.12-.37.05-.12.1-.22.16-.32l-.83-.46c-.09.13-.16.28-.23.44-.07.16-.13.34-.18.52-.05.18-.09.37-.12.56-.03.19-.05.38-.05.56,0,.38.06.75.19,1.09.12.34.31.65.56.92.25.26.56.48.94.63.38.16.83.24,1.34.24.48,0,.92-.07,1.3-.2.38-.13.71-.32.99-.56.28-.24.5-.54.66-.87.17-.34.28-.71.33-1.12.17.13.37.23.61.31.23.08.52.12.86.12h3.16c.23,0,.42-.05.58-.15.15-.1.27-.22.36-.37.18.15.39.27.64.37.25.1.56.15.94.15h1.36c.23,0,.42-.05.57-.15.15-.1.27-.22.36-.37.17.15.39.27.64.37.25.1.56.15.95.15h2.83v-4.21h-.98Z"/>
          <path class="cls-4" d="m89.56,103.25c0-.08.01-.16.05-.23.03-.07.07-.13.12-.18.05-.05.11-.09.18-.12.07-.03.15-.05.23-.05s.15.02.23.05c.07.03.13.07.18.12.05.06.1.12.13.18.03.07.05.15.05.23s-.02.16-.05.23c-.03.07-.07.13-.13.18-.05.05-.11.09-.18.12-.07.03-.15.05-.23.05-.16,0-.3-.06-.41-.17-.11-.11-.17-.25-.17-.41"/>
          <path class="cls-4" d="m99.71,105.21v3.23h-1.79s0,0,0,0h-1.16v-.93c0-.34-.03-.63-.09-.89-.06-.26-.14-.48-.24-.66-.1-.19-.22-.34-.35-.46-.14-.12-.28-.21-.43-.29-.15-.07-.3-.12-.46-.15-.15-.03-.31-.04-.45-.04-.36,0-.68.06-.96.18-.28.11-.53.28-.73.48-.2.2-.36.44-.47.72-.11.28-.16.57-.16.89,0,.25.04.5.13.76.08.25.22.48.41.68.19.21.43.37.75.5.3.13.68.19,1.13.19h.89c-.11.39-.4.71-.84.95-.45.24-1.04.38-1.79.43l.1.94c.44-.04.85-.12,1.24-.21.39-.1.73-.24,1.04-.42.31-.18.56-.41.77-.68.21-.28.36-.61.46-1.01h4.02v-4.21h-.98Zm-3.95,3.23h-.97c-.27,0-.49-.03-.66-.1-.18-.07-.33-.15-.45-.26-.12-.11-.2-.23-.25-.38-.05-.15-.08-.3-.08-.47,0-.19.03-.36.09-.52.06-.16.15-.29.25-.41.11-.11.24-.2.38-.26.14-.06.3-.09.47-.09.15,0,.3.03.44.08.15.05.28.14.39.28.11.14.21.32.28.57.07.25.11.56.11.95v.61Z"/>
          <path class="cls-4" d="m99.67,103.25c0-.08.01-.16.04-.23.03-.07.07-.13.12-.18.05-.05.11-.09.18-.12.07-.03.14-.05.23-.05s.15.02.23.05c.07.03.13.07.19.12.05.06.09.12.13.18.03.07.05.15.05.23s-.02.16-.05.23c-.03.07-.08.13-.13.18-.05.05-.12.09-.19.12-.07.03-.15.05-.23.05-.17,0-.3-.06-.41-.17-.11-.11-.16-.25-.16-.41"/>
          <path class="cls-4" d="m106.2,103.25c0-.08.02-.16.05-.23.03-.07.07-.13.13-.18.05-.05.11-.09.18-.12.07-.03.15-.05.23-.05s.15.02.23.05c.07.03.13.07.19.12.05.06.09.12.12.18.03.07.05.15.05.23s-.02.16-.05.23c-.03.07-.07.13-.12.18-.05.05-.12.09-.19.12-.07.03-.15.05-.23.05-.16,0-.3-.06-.41-.17-.11-.11-.17-.25-.17-.41"/>
          <path class="cls-4" d="m107.75,103.25c0-.08.02-.16.05-.23.03-.07.08-.13.12-.18.05-.05.11-.09.18-.12.07-.03.14-.05.23-.05s.16.02.23.05c.07.03.13.07.19.12.05.06.09.12.13.18.03.07.05.15.05.23s-.02.16-.05.23c-.03.07-.08.13-.13.18-.05.05-.12.09-.19.12-.07.03-.15.05-.23.05-.16,0-.3-.06-.41-.17-.11-.11-.17-.25-.17-.41"/>
          <path class="cls-4" d="m112.21,101.59v6.85h-1.48s0,0,0,0h-1.39c.03-.08.07-.17.12-.27.05-.11.09-.23.13-.36.04-.13.08-.27.1-.42.03-.15.04-.3.04-.46,0-.26-.04-.51-.13-.75-.08-.24-.21-.44-.37-.61-.17-.17-.37-.31-.61-.42-.24-.1-.52-.15-.84-.15-.36,0-.69.06-.98.17-.29.11-.54.27-.74.47-.2.2-.35.42-.46.68-.11.26-.16.54-.16.82,0,.09,0,.19.03.31.02.11.06.23.1.34.05.12.11.23.18.34.07.11.15.21.25.29v.02s-1.51,0-1.51,0c0,0,0,0,0,0h-.37c-.11,0-.2-.02-.27-.05-.07-.03-.13-.09-.17-.16-.04-.07-.07-.18-.09-.31-.02-.13-.02-.29-.02-.49v-5.85h-.98v6.24c0,.23.03.44.08.63.05.19.14.36.25.5.12.14.26.25.44.33.17.08.38.12.62.12h1.09c.26,0,.51,0,.78,0,.26,0,.52-.02.78-.03.25-.01.5-.03.74-.05.24-.02.46-.05.67-.09.29.06.61.11.97.13.35.03.74.05,1.17.05h3.05v-7.83h-.98Zm-3.53,5.93c-.03.13-.06.26-.11.37-.04.11-.09.22-.14.31-.05.1-.1.17-.14.24h-.34c-.22,0-.43-.03-.62-.1-.19-.07-.36-.16-.51-.28-.15-.13-.26-.27-.34-.44-.08-.17-.13-.37-.13-.58,0-.2.04-.37.11-.51.07-.14.17-.27.28-.36.11-.09.25-.16.39-.21.15-.04.3-.07.44-.07s.29.03.43.08c.14.05.26.13.36.24.11.1.19.23.26.39.06.15.1.33.1.53,0,.14-.02.28-.05.41Z"/>
          <rect class="cls-4" x="115.05" y="101.6" width=".98" height="7.83"/>
          <path class="cls-4" d="m123.31,104.35c0-.08.02-.16.05-.23.03-.07.07-.13.13-.18.05-.06.11-.1.18-.13.07-.03.15-.05.23-.05s.15.01.23.05c.07.03.13.07.19.13.05.05.09.11.12.18.03.07.05.15.05.23s-.02.15-.05.23c-.03.07-.07.13-.12.18-.05.05-.12.09-.19.12-.07.03-.14.05-.23.05-.16,0-.3-.05-.41-.17-.11-.11-.17-.25-.17-.41"/>
          <g>
            <path class="cls-4" d="m129.48,110.64c-.05-.05-.11-.09-.18-.13-.07-.03-.15-.04-.23-.04s-.16.02-.23.04c-.07.03-.13.07-.18.13-.05.05-.09.11-.12.18-.03.07-.05.15-.05.23,0,.16.05.3.17.41.11.11.25.17.41.17.08,0,.15-.02.23-.05.07-.03.13-.07.18-.12.06-.05.1-.11.12-.18.03-.07.05-.15.05-.23,0-.08-.01-.16-.05-.23-.03-.07-.07-.13-.12-.18Z"/>
            <path class="cls-4" d="m131.04,110.64c-.05-.05-.12-.09-.19-.13-.07-.03-.15-.04-.23-.04s-.16.02-.23.04c-.07.03-.13.07-.18.13-.05.05-.09.11-.12.18-.03.07-.05.15-.05.23,0,.16.05.3.17.41.11.11.25.17.41.17.08,0,.15-.02.23-.05.07-.03.13-.07.19-.12.05-.05.09-.11.12-.18.03-.07.05-.15.05-.23,0-.08-.02-.16-.05-.23-.03-.07-.08-.13-.12-.18Z"/>
            <path class="cls-4" d="m134.2,110.64c-.05-.05-.12-.09-.19-.13-.07-.03-.15-.04-.23-.04s-.15.02-.22.04c-.07.03-.13.07-.18.13-.06.05-.09.11-.13.18-.03.07-.04.15-.04.23,0,.16.05.3.17.41.11.11.25.17.41.17.08,0,.15-.02.23-.05.07-.03.13-.07.19-.12.05-.05.09-.11.12-.18.03-.07.05-.15.05-.23,0-.08-.02-.16-.05-.23-.03-.07-.07-.13-.12-.18Z"/>
            <path class="cls-4" d="m143.98,108.44h-.79c-.27,0-.53-.02-.76-.07-.24-.05-.45-.14-.63-.26v-2.3h-.98v2.02c0,.21-.03.36-.1.46-.07.1-.16.15-.27.15h-.38c-.26,0-.51-.02-.75-.07-.24-.05-.45-.14-.64-.27v-1.83h-.98v1.56c0,.21-.03.36-.1.46-.07.1-.16.15-.27.15h-1.64c-.31,0-.58-.03-.8-.08-.23-.06-.42-.14-.58-.25v-2.89h-.98v2.61c0,.21-.03.36-.1.46-.07.1-.16.15-.28.15h-1.15c-.3,0-.57-.03-.79-.08-.23-.06-.42-.14-.58-.25v-2.89h-.98v2.61c0,.21-.03.36-.1.46-.07.1-.16.15-.27.15h-1.1s0,0,0,0h-.05c-.34,0-.62-.03-.85-.1-.23-.07-.44-.17-.61-.31-.01-.15-.04-.3-.07-.46-.03-.16-.06-.31-.09-.45-.04-.15-.08-.29-.11-.42-.04-.13-.08-.26-.12-.36l-.96.27c.06.14.12.3.17.47.05.17.1.34.12.51.03.17.06.33.08.48.02.15.02.28.02.38,0,.37-.05.7-.15.99-.11.29-.25.54-.44.74-.19.2-.43.36-.71.46-.28.11-.6.16-.96.16-.33,0-.63-.05-.89-.16-.26-.11-.48-.25-.65-.44-.18-.18-.31-.4-.4-.65-.09-.25-.14-.52-.14-.8,0-.13.01-.26.03-.4.02-.14.04-.27.07-.4.04-.13.07-.25.12-.37.05-.12.1-.22.16-.32l-.83-.46c-.08.13-.16.28-.24.44-.07.16-.13.34-.18.52-.05.18-.09.37-.12.56-.03.19-.05.38-.05.56,0,.38.06.75.18,1.09.13.34.31.65.56.92.25.26.57.48.95.63.38.16.83.24,1.34.24.49,0,.92-.07,1.3-.2.38-.13.71-.32.99-.56.27-.24.49-.54.66-.87.17-.34.28-.71.33-1.12.17.13.37.23.61.31.23.08.52.12.86.12h1.36c.23,0,.42-.05.57-.15.15-.1.27-.22.36-.37.17.15.39.27.64.37.25.1.56.15.94.15h1.36c.23,0,.42-.05.58-.15.15-.1.27-.22.36-.37.18.15.39.27.64.37.25.1.57.15.94.15h1.86c.23,0,.42-.05.58-.15.15-.1.27-.22.37-.37.11.1.22.17.35.24.12.06.26.12.4.16.14.04.28.07.42.09.14.02.28.03.42.03h.59c.23,0,.42-.05.57-.15.15-.1.27-.22.36-.36.11.1.24.19.38.25.14.07.28.12.42.16.14.04.28.06.42.08.14.01.27.02.38.02h1.78v-4.21h-.98v3.23Z"/>
            <path class="cls-4" d="m161.62,108.5c-.07-.05-.16-.07-.3-.07h-.04c-.33,0-.61-.03-.84-.1-.23-.06-.43-.16-.6-.29.08-.23.11-.44.11-.64,0-.16-.02-.32-.05-.5-.04-.17-.09-.35-.17-.51-.08-.17-.17-.33-.29-.49-.12-.16-.25-.29-.41-.41-.16-.12-.34-.21-.54-.28-.2-.07-.42-.1-.66-.1-.11,0-.24.01-.37.04-.13.02-.27.07-.42.14-.14.07-.29.16-.44.29-.15.12-.29.28-.44.48-.15.2-.28.44-.41.72-.13.28-.25.62-.35,1-.06.23-.18.39-.36.5-.17.1-.38.15-.6.15h-.25s0,0,0,0h-.5c-.13,0-.24-.05-.33-.14-.09-.1-.15-.23-.22-.39-.05-.17-.1-.35-.14-.57-.03-.21-.07-.44-.11-.67-.04-.26-.11-.49-.21-.71-.1-.21-.22-.4-.38-.55-.15-.16-.34-.28-.55-.37-.22-.09-.46-.13-.75-.13s-.52.02-.74.08c-.22.05-.43.1-.65.17v.89c.07-.03.14-.06.24-.08.09-.03.19-.05.3-.07.11-.02.21-.04.31-.05.1-.02.19-.02.27-.02.28,0,.51.05.68.16.17.1.31.24.41.41.1.17.17.36.22.57.05.21.08.42.11.63.03.23.07.41.12.54.05.13.11.24.19.31h-4.23c-.11,0-.2-.02-.28-.05-.07-.03-.13-.09-.17-.16-.04-.07-.07-.18-.09-.31-.02-.13-.02-.29-.02-.49v-5.85h-.98v6.24c0,.23.02.44.08.63.05.19.14.36.26.5.11.14.26.25.43.33.18.08.38.12.62.12h.51s0,0,0,0h5.57s0,0,0,0h.43c.15,0,.28-.01.4-.04.12-.03.23-.07.33-.12.1-.06.19-.14.27-.23.09-.1.17-.21.24-.36.08.09.19.19.32.29.13.1.28.18.44.26.17.08.35.14.56.19.21.05.43.07.66.07.38,0,.72-.07.98-.22.27-.14.49-.32.67-.54.09.1.19.19.31.27.11.08.23.16.38.22.14.06.3.11.48.15.18.03.38.05.61.05h.05c.06,0,.11,0,.16-.01.04,0,.09-.02.13-.04.04-.02.06-.06.08-.1.02-.04.03-.1.03-.17v-.37c0-.11-.03-.18-.1-.22Zm-2.65-.5c-.06.12-.15.22-.27.29-.12.07-.27.12-.44.15-.17.03-.36.04-.56.04-.14,0-.3-.01-.45-.04-.16-.03-.31-.07-.45-.11-.14-.05-.26-.1-.37-.15-.11-.06-.18-.11-.21-.16.04-.25.1-.49.2-.73.09-.24.2-.45.34-.63.13-.18.29-.33.46-.44.18-.11.37-.17.58-.17s.41.05.57.15c.16.1.29.23.4.38.1.15.18.31.23.49.05.17.07.32.07.46,0,.19-.03.35-.1.47Z"/>
          </g>
          <path class="cls-4" d="m163.79,108.09c.17.12.36.2.59.26.23.06.49.09.81.09h.05c.13,0,.23.02.29.07.07.04.1.12.1.22v.38c0,.07,0,.13-.03.17-.02.04-.04.07-.08.1-.04.02-.08.03-.13.04-.05,0-.1.01-.15.01h-.05c-.39,0-.7-.05-.95-.15-.25-.1-.47-.22-.65-.37-.08.15-.2.27-.36.37-.15.1-.35.15-.58.15h-1.31c-.13,0-.22-.02-.29-.07-.07-.04-.1-.12-.1-.22v-.38c0-.07,0-.13.03-.17.02-.04.05-.07.08-.1.04-.02.08-.03.13-.04.05,0,.1-.01.15-.01h1.1c.12,0,.21-.05.28-.15.07-.1.1-.26.1-.46v-6.23h.98v6.5Z"/>
          <path class="cls-4" d="m165.23,109.42c-.13,0-.23-.02-.29-.07-.07-.04-.1-.12-.1-.22v-.38c0-.07,0-.13.03-.17.02-.04.04-.07.08-.1.04-.02.08-.03.12-.04.05-.01.1-.01.15-.01h1.48v-6.85h.98v7.83h-2.46Z"/>
          <g>
            <path class="cls-4" d="m72.5,88.47c.08,0,.15-.01.23-.05.07-.03.13-.07.18-.12.05-.05.1-.11.12-.18.03-.07.05-.14.05-.23s-.02-.15-.05-.23c-.03-.07-.07-.13-.12-.18-.05-.06-.11-.1-.18-.13-.07-.03-.15-.05-.23-.05s-.15.02-.23.05c-.07.03-.13.07-.18.13-.05.05-.09.11-.12.18-.03.07-.04.15-.04.23,0,.16.05.3.16.41.11.11.25.17.41.17Z"/>
            <path class="cls-4" d="m87.97,90.12h-.98v3.23h-11.62c-.15,0-.28-.01-.38-.04-.09-.02-.17-.07-.22-.12-.05-.06-.09-.14-.1-.24-.02-.1-.03-.22-.03-.36v-3.37h-.98v.58c-.19.05-.41.11-.66.18-.24.07-.48.15-.73.25-.25.1-.49.21-.73.34-.23.13-.44.28-.63.44-.18.17-.33.36-.44.58-.11.22-.17.46-.17.73,0,.29.06.54.17.75.12.21.26.38.44.51.18.13.38.23.6.29.22.06.44.09.66.09.25,0,.49-.03.74-.1.24-.07.5-.19.77-.35.03.11.08.21.13.31.06.1.14.19.26.26.11.07.25.13.42.18.17.04.38.07.62.07h12.84v-4.21Zm-14.3,2.56c-.17.11-.37.2-.58.27-.22.06-.46.1-.71.1-.14,0-.28-.01-.41-.04-.13-.03-.25-.08-.36-.14-.11-.06-.2-.15-.26-.26-.07-.11-.11-.24-.11-.4,0-.2.06-.37.18-.53.12-.16.29-.3.5-.42.21-.13.47-.23.77-.33.3-.09.63-.17.99-.25v2.01Z"/>
            <path class="cls-4" d="m135.51,88.47c.08,0,.15-.01.23-.05.07-.03.13-.07.19-.12.05-.05.09-.11.13-.18.03-.07.04-.14.04-.23s-.01-.15-.04-.23c-.03-.07-.08-.13-.13-.18-.05-.06-.12-.1-.19-.13-.07-.03-.15-.05-.23-.05s-.15.02-.22.05c-.07.03-.13.07-.18.13-.05.05-.09.11-.12.18-.03.07-.05.15-.05.23,0,.16.06.3.17.41.11.11.25.17.41.17Z"/>
            <path class="cls-4" d="m74.05,88.47c.08,0,.15-.01.23-.05.07-.03.13-.07.18-.12.05-.05.1-.11.12-.18.03-.07.05-.14.05-.23s-.01-.15-.05-.23c-.03-.07-.07-.13-.12-.18-.05-.06-.11-.1-.18-.13-.07-.03-.15-.05-.23-.05s-.16.02-.23.05c-.07.03-.14.07-.18.13-.05.05-.09.11-.12.18-.03.07-.04.15-.04.23,0,.16.05.3.17.41.11.11.25.17.41.17Z"/>
            <path class="cls-4" d="m86.87,95.56c-.05-.05-.11-.09-.18-.12-.07-.03-.15-.05-.23-.05-.08,0-.16.02-.23.05-.07.03-.13.07-.18.12-.05.05-.09.11-.12.19-.03.07-.05.14-.05.23,0,.16.05.3.16.41.11.11.25.16.41.16.08,0,.15-.01.23-.05.07-.03.13-.07.18-.12.05-.05.09-.11.13-.18.03-.07.05-.15.05-.23s-.02-.16-.05-.23c-.03-.07-.07-.13-.13-.19Z"/>
            <path class="cls-4" d="m151.24,88.66h-.21c-.19,0-.35-.03-.48-.07-.13-.04-.24-.11-.33-.18-.09-.07-.16-.15-.2-.25-.04-.09-.07-.18-.07-.28,0-.19.07-.33.2-.41.14-.08.31-.12.51-.12.1,0,.18,0,.26.02.08.01.13.02.17.03l.1-.62c-.12-.02-.22-.03-.31-.03-.09,0-.18,0-.26,0-.22,0-.41.03-.58.08-.16.06-.3.13-.4.22-.11.09-.19.2-.24.32-.05.12-.08.25-.08.37s.02.24.05.34c.04.1.08.2.13.27.05.08.1.14.16.2.05.06.1.1.14.13h-.83v.61h2.25v-.61Z"/>
            <path class="cls-4" d="m133.96,88.47c.08,0,.16-.01.23-.05.07-.03.13-.07.18-.12.05-.05.1-.11.13-.18.03-.07.05-.14.05-.23s-.02-.15-.05-.23c-.03-.07-.07-.13-.13-.18-.05-.06-.11-.1-.18-.13-.07-.03-.15-.05-.23-.05s-.15.02-.23.05c-.07.03-.13.07-.18.13-.05.05-.09.11-.12.18-.03.07-.05.15-.05.23,0,.16.06.3.17.41.11.11.25.17.41.17Z"/>
            <path class="cls-4" d="m163.9,93.35h-3.16v-.03c.16-.16.29-.36.39-.58.09-.22.14-.48.14-.75,0-.24-.04-.48-.12-.72-.07-.24-.18-.45-.31-.64-.13-.19-.29-.34-.47-.46-.18-.12-.37-.18-.58-.18-.08,0-.18.03-.31.07-.13.05-.27.13-.42.24-.15.11-.32.25-.49.43-.17.17-.34.38-.49.63-.16.25-.31.54-.45.87-.14.33-.25.7-.34,1.12h-1.36c-.31,0-.57-.03-.8-.09-.22-.05-.41-.14-.58-.25v-2.89h-.98v2.61c0,.21-.03.36-.1.46-.07.1-.16.15-.28.15h-1.14c-.31,0-.58-.03-.8-.09-.22-.05-.42-.14-.58-.25v-2.89h-.98v2.61c0,.21-.03.36-.1.46-.07.1-.16.15-.28.15h-12.48c-.16,0-.28-.01-.38-.04-.1-.02-.17-.07-.22-.12-.05-.06-.09-.14-.1-.24-.01-.1-.02-.22-.02-.36v-3.37h-.98v.58c-.2.05-.41.11-.65.18-.24.07-.49.15-.73.25-.25.1-.5.21-.73.34-.24.13-.45.28-.63.44-.18.17-.33.36-.44.58-.11.22-.17.46-.17.73,0,.29.06.54.17.75.11.21.26.38.44.51.18.13.38.23.6.29.22.06.44.09.66.09.25,0,.5-.03.74-.1.24-.07.5-.19.77-.35.03.11.07.21.13.31.06.1.15.19.25.26.11.07.26.13.42.18.17.04.38.07.62.07h12.93c.23,0,.42-.05.58-.15.15-.1.27-.22.36-.37.18.15.39.27.64.37.25.1.57.15.94.15h1.36c.23,0,.43-.05.58-.15.15-.1.27-.22.36-.37.17.15.39.27.64.37.25.1.56.15.94.15h1.26c0,.43.04.8.11,1.13.07.33.17.61.3.85.13.24.27.44.43.6.16.16.33.29.51.39.17.1.35.16.52.2.18.04.34.06.48.06.19,0,.38-.04.57-.12.19-.08.37-.2.53-.36.16-.15.29-.34.39-.57.1-.23.15-.49.15-.78,0-.32-.05-.59-.16-.81-.11-.23-.24-.41-.4-.56v-.02h4.26v-7.83h-.98v6.85Zm-28.77-.67c-.17.11-.37.2-.59.27-.22.06-.45.1-.71.1-.14,0-.27-.01-.4-.04-.14-.03-.26-.08-.37-.14-.11-.06-.2-.15-.26-.26-.07-.11-.1-.24-.1-.4,0-.2.06-.37.17-.53.12-.16.28-.3.5-.42.22-.13.47-.23.77-.33.3-.09.63-.17.99-.25v2.01Zm25.12,3.33c-.04.12-.08.22-.15.31-.06.09-.13.16-.22.22-.09.06-.18.08-.28.08-.16,0-.32-.04-.51-.12-.17-.08-.34-.22-.49-.4-.15-.18-.28-.42-.38-.71-.1-.29-.14-.64-.14-1.05h1.02c.19,0,.35.03.5.11.15.07.27.17.38.29.1.12.18.26.24.42.06.16.08.32.08.48,0,.13-.02.25-.05.37Zm.06-3.35c-.06.14-.15.26-.26.37-.11.1-.24.18-.4.24-.15.06-.33.09-.51.09h-.92c.02-.2.06-.4.12-.6.06-.2.14-.38.22-.56.08-.17.17-.33.27-.48.1-.15.19-.27.29-.38.1-.11.19-.19.27-.25.08-.06.15-.09.2-.09.1,0,.19.03.29.1.1.07.18.16.25.27.07.11.14.24.19.38.05.14.07.29.07.45,0,.17-.03.32-.09.46Z"/>
            <rect class="cls-4" x="126.7" y="86.51" width=".98" height="7.83"/>
            <path class="cls-4" d="m153.64,95.56c-.05-.05-.11-.09-.18-.12-.07-.03-.14-.05-.23-.05s-.15.02-.22.05c-.07.03-.14.07-.18.12-.05.05-.09.11-.12.19-.03.07-.05.14-.05.23,0,.16.05.3.16.41.11.11.25.16.41.16.08,0,.15-.01.23-.05.07-.03.14-.07.18-.12.06-.05.1-.11.12-.18.03-.07.05-.15.05-.23s-.02-.16-.05-.23c-.03-.07-.07-.13-.12-.19Z"/>
            <path class="cls-4" d="m155.19,95.56c-.05-.05-.11-.09-.18-.12-.07-.03-.15-.05-.23-.05s-.15.02-.23.05c-.07.03-.13.07-.18.12-.05.05-.09.11-.12.19-.03.07-.04.14-.04.23,0,.16.05.3.17.41.11.11.25.16.41.16.08,0,.15-.01.23-.05.07-.03.13-.07.18-.12.05-.05.1-.11.12-.18.03-.07.05-.15.05-.23s-.01-.16-.05-.23c-.03-.07-.07-.13-.12-.19Z"/>
            <path class="cls-4" d="m93.27,90.96c-.18-.27-.39-.52-.62-.76-.23-.25-.46-.47-.71-.68l-.73.71c.21.18.43.36.64.56.21.2.4.41.57.62.17.21.3.42.4.63.11.21.16.41.16.61,0,.11-.01.21-.05.29-.04.08-.1.16-.2.22-.09.06-.22.1-.39.13-.16.03-.37.05-.63.05h-1.86v.98h1.99c.36,0,.68-.05.94-.13.25-.08.47-.21.63-.36.16-.15.28-.34.36-.55.08-.21.11-.45.11-.7s-.06-.54-.17-.82c-.11-.28-.26-.55-.45-.81Z"/>
            <path class="cls-4" d="m88.42,95.56c-.05-.05-.11-.09-.18-.12-.07-.03-.15-.05-.23-.05s-.16.02-.23.05c-.07.03-.13.07-.19.12-.05.05-.09.11-.12.19-.03.07-.04.14-.04.23,0,.16.05.3.16.41.11.11.25.16.41.16.08,0,.15-.01.23-.05.07-.03.13-.07.18-.12.05-.05.1-.11.13-.18.03-.07.05-.15.05-.23s-.02-.16-.05-.23c-.03-.07-.07-.13-.13-.19Z"/>
            <path class="cls-4" d="m123.87,93.35h-1.53c-.35,0-.63-.03-.87-.1-.24-.07-.44-.17-.61-.31v-2.82h-.98v2.62c0,.21-.03.36-.1.46-.07.1-.16.15-.28.15h-.38c-.28,0-.55-.03-.79-.09-.24-.06-.46-.15-.64-.29v-2.26h-.98v2.02c0,.21-.03.36-.1.46-.07.1-.16.15-.28.15h-.38c-.25,0-.49-.02-.72-.06-.23-.04-.44-.12-.63-.25v-1.86h-.98v1.56c0,.21-.03.36-.1.46-.07.1-.16.15-.28.15h-2.05c-.18,0-.36,0-.53-.02-.17-.01-.33-.03-.48-.06-.15-.02-.29-.04-.41-.08-.12-.03-.22-.06-.31-.11.27-.28.49-.53.65-.77.16-.23.29-.45.37-.65.08-.19.14-.37.17-.52.03-.16.04-.29.04-.4,0-.16-.05-.3-.15-.41-.11-.12-.24-.22-.4-.29-.16-.08-.34-.13-.54-.17-.2-.04-.4-.06-.59-.06-.26,0-.51.02-.74.06-.24.04-.45.09-.65.14-.2.05-.38.12-.53.19-.16.07-.3.13-.41.2-.03.02-.07.07-.11.13-.04.07-.08.15-.11.24-.03.09-.06.19-.09.28-.03.1-.05.18-.07.26.07.07.15.18.26.33.11.15.23.31.35.49.13.17.27.34.42.51.15.17.31.31.46.43-.04.03-.1.06-.2.09-.09.03-.21.06-.34.08-.14.03-.29.04-.47.06-.17.02-.36.03-.56.03h-6.5v-.93c0-.34-.03-.63-.09-.89-.06-.26-.14-.48-.24-.66-.1-.18-.22-.34-.36-.46-.13-.12-.28-.21-.43-.28-.15-.07-.31-.12-.46-.15-.16-.03-.31-.04-.45-.04-.36,0-.68.06-.97.18-.29.12-.53.28-.73.48-.2.2-.36.45-.47.72-.11.28-.16.57-.16.89,0,.25.04.5.13.76.08.25.22.48.4.68.2.2.44.37.75.49.31.13.69.19,1.13.19h.9c-.12.39-.4.71-.85.95-.45.24-1.05.38-1.79.43l.1.94c.44-.04.85-.12,1.24-.21.39-.1.73-.24,1.04-.42.3-.18.56-.41.77-.68.21-.28.36-.61.46-1.01h6.5c.24,0,.47-.02.69-.06.22-.03.44-.08.64-.14.2-.06.39-.13.56-.2.17-.07.33-.15.49-.24.08.05.2.11.35.18.15.07.33.14.53.21.21.07.43.12.69.17.25.04.52.07.82.07h2.53c.23,0,.42-.05.56-.14.15-.1.27-.21.36-.35.11.09.23.17.35.23.13.06.26.11.39.15.13.04.27.07.41.08.14.02.28.03.41.03h.59c.24,0,.43-.06.59-.16.15-.1.28-.23.37-.38.22.2.47.34.76.42.29.08.57.12.86.12h.59c.25,0,.45-.06.61-.17.16-.11.28-.25.37-.41.18.17.4.31.66.41.26.11.59.16.99.16h2.52v-7.83h-.98v6.85Zm-25.11,0h-.97c-.26,0-.48-.03-.66-.1-.18-.07-.33-.15-.45-.27-.11-.11-.2-.23-.25-.38-.06-.15-.08-.3-.08-.47,0-.19.03-.36.09-.52.06-.16.15-.29.26-.41.11-.11.23-.2.38-.26.14-.06.3-.09.47-.09.15,0,.3.03.44.08.15.05.28.14.39.28.12.14.21.33.28.57.07.24.1.56.1.95v.62Zm10.36-1.02c-.14.13-.29.25-.46.35-.15-.09-.3-.22-.46-.37-.15-.15-.3-.31-.44-.46-.14-.16-.26-.32-.36-.46-.11-.15-.18-.27-.23-.36.28-.12.55-.22.79-.27.24-.05.47-.08.67-.08.18,0,.34.02.48.05.14.04.26.08.35.14.1.06.18.12.23.19.05.07.07.15.07.23,0,.07-.03.17-.07.28-.05.12-.13.23-.22.36-.1.13-.21.26-.35.39Z"/>
            <rect class="cls-4" x="166.73" y="86.51" width=".98" height="7.83"/>
          </g>
          <path class="cls-4" d="m158.76,66.97h2.68l5.56,14.42h-2.71l-1.35-3.82h-5.76l-1.35,3.82h-2.6l5.54-14.42Zm-.89,8.68h4.4l-2.16-6.2h-.06l-2.18,6.2Z"/>
          <path class="cls-4" d="m72.87,76.58c0,.55.09,1.02.28,1.41.19.39.45.71.79.96.34.25.72.43,1.16.55.44.12.91.17,1.42.17.55,0,1.02-.06,1.41-.19.39-.13.71-.29.95-.49.25-.2.42-.43.53-.69.11-.26.16-.53.16-.8,0-.55-.13-.96-.37-1.22-.25-.26-.52-.44-.82-.55-.51-.19-1.11-.36-1.79-.53-.68-.17-1.52-.39-2.51-.66-.62-.16-1.13-.37-1.54-.64-.41-.26-.74-.55-.98-.88-.24-.32-.41-.67-.51-1.03-.1-.37-.15-.74-.15-1.11,0-.73.15-1.36.46-1.89.3-.53.7-.97,1.2-1.32.5-.35,1.06-.61,1.7-.78.63-.17,1.27-.25,1.92-.25.75,0,1.46.1,2.13.29.67.19,1.25.49,1.76.88.51.39.91.87,1.2,1.44.3.57.44,1.23.44,1.99h-2.52c-.07-.93-.38-1.58-.95-1.97-.57-.38-1.29-.58-2.16-.58-.3,0-.6.03-.91.09-.31.06-.59.16-.85.3-.26.14-.47.33-.64.58-.17.25-.25.54-.25.91,0,.51.16.91.48,1.2.31.29.73.51,1.24.66.05.01.27.07.64.17.37.1.78.21,1.24.33.46.12.91.24,1.34.36.44.11.75.2.94.25.47.15.88.35,1.23.6.35.26.64.55.88.88.23.33.41.69.53,1.06.11.38.17.75.17,1.13,0,.81-.17,1.5-.49,2.07-.33.57-.77,1.04-1.3,1.4-.54.36-1.15.63-1.84.8-.69.16-1.39.25-2.1.25-.82,0-1.6-.1-2.32-.3-.73-.2-1.36-.51-1.9-.93-.54-.42-.97-.95-1.29-1.61-.32-.65-.49-1.42-.5-2.31h2.52Z"/>
          <path class="cls-4" d="m97.61,66.62c1.08,0,2.04.2,2.9.61.86.4,1.58.95,2.17,1.64.59.69,1.05,1.49,1.36,2.4.32.92.47,1.89.47,2.91s-.16,2.01-.47,2.93c-.32.92-.77,1.72-1.36,2.4-.59.68-1.31,1.23-2.17,1.62-.85.4-1.82.6-2.9.6s-2.05-.2-2.9-.6c-.86-.4-1.58-.94-2.18-1.62-.59-.69-1.04-1.49-1.36-2.4-.32-.92-.47-1.89-.47-2.93s.16-1.99.47-2.91c.32-.92.77-1.72,1.36-2.4.59-.69,1.32-1.24,2.18-1.64.85-.41,1.82-.61,2.9-.61m0,2.06c-.77,0-1.43.16-1.99.46-.56.31-1.01.72-1.37,1.24-.35.52-.61,1.11-.78,1.76-.16.66-.25,1.34-.25,2.02s.09,1.36.25,2.02c.17.66.43,1.25.78,1.77.35.52.81.93,1.37,1.25.56.31,1.22.46,1.99.46s1.43-.15,1.99-.46c.56-.31,1.01-.72,1.36-1.25.35-.51.61-1.1.78-1.77.17-.66.25-1.33.25-2.02s-.09-1.36-.25-2.02c-.17-.66-.43-1.24-.78-1.76-.35-.52-.8-.93-1.36-1.24-.56-.31-1.22-.46-1.99-.46"/>
          <path class="cls-4" d="m123.72,71.55c-.11-.42-.25-.8-.44-1.15-.19-.35-.43-.66-.73-.91-.29-.25-.64-.46-1.04-.6-.4-.14-.86-.21-1.38-.21-.77,0-1.43.16-1.99.46-.56.31-1.02.72-1.37,1.24-.35.52-.61,1.11-.78,1.76-.17.66-.25,1.34-.25,2.02s.08,1.36.25,2.02c.17.66.43,1.25.78,1.76.35.52.81.93,1.37,1.25.56.31,1.22.46,1.99.46.57,0,1.06-.1,1.49-.29.43-.19.8-.47,1.11-.81.31-.34.55-.74.73-1.2.17-.46.29-.95.34-1.47h2.47c-.06.86-.24,1.65-.56,2.36-.32.72-.74,1.33-1.28,1.85-.54.52-1.17.92-1.9,1.2-.73.28-1.53.42-2.4.42-1.08,0-2.04-.2-2.9-.6-.86-.4-1.58-.94-2.17-1.62-.59-.69-1.05-1.49-1.36-2.4-.32-.92-.47-1.89-.47-2.93s.16-1.99.47-2.91c.32-.92.77-1.72,1.36-2.4.59-.69,1.32-1.24,2.17-1.64.86-.4,1.82-.61,2.9-.61.81,0,1.57.11,2.28.33.71.22,1.34.54,1.89.97.55.42.99.94,1.33,1.55.34.61.54,1.3.62,2.08h-2.53Z"/>
          <path class="cls-4" d="m135.73,66.97h6.36c1.03,0,1.86.15,2.51.44.65.3,1.15.67,1.49,1.11.35.44.59.93.72,1.46.13.52.19,1.01.19,1.45s-.06.92-.19,1.44c-.12.52-.37,1-.72,1.45-.35.44-.85.81-1.49,1.1-.65.29-1.48.43-2.51.43h-3.84v5.53h-2.52v-14.42Zm2.52,6.83h3.7c.28,0,.57-.04.87-.12.3-.08.57-.21.82-.39.25-.18.45-.43.61-.73.16-.3.23-.68.23-1.14s-.07-.86-.2-1.17c-.14-.31-.32-.55-.54-.74-.23-.18-.49-.3-.79-.37-.3-.07-.61-.1-.95-.1h-3.74v4.77Z"/>
        </g>
      </g>
    </g>
  </g>
</svg>