<?xml version="1.0" encoding="utf-8"?>
<!-- Generator: Adobe Illustrator 27.6.1, SVG Export Plug-In . SVG Version: 6.00 Build 0)  -->
<svg version="1.1" id="Layer_2_00000008139335495034655450000005796332361629682576_"
	 xmlns="http://www.w3.org/2000/svg" xmlns:xlink="http://www.w3.org/1999/xlink" x="0px" y="0px" viewBox="0 0 57 89.9"
	 style="enable-background:new 0 0 57 89.9;" xml:space="preserve">
<style type="text/css">
	.st0{fill:#F8B716;}
	.st1{fill:#F9B816;}
	.st2{fill:#515050;}
	.st3{fill:#AFCD36;}
</style>
<g id="Artwork_1_1_">
	<g>
		<g>
			<path class="st0" d="M1.4,61.5c-0.1,1-0.2,2-0.2,3.1c0,13.3,10.8,24.1,24.1,24.1c7.6,0,14.4-3.5,18.8-9
				c-4.4,3.1-9.8,4.9-15.6,4.9C14.8,84.6,3.5,74.6,1.4,61.5"/>
			<path class="st1" d="M28.5,80.8c8.9,0,16.6-4.9,20.6-12.2c0.2-1.3,0.4-2.6,0.4-4c0-13.3-10.8-24.1-24.1-24.1
				c-8,0-15,3.9-19.4,9.8c-0.7,2.2-1,4.5-1,6.9C4.9,70.2,15.5,80.8,28.5,80.8"/>
			<path class="st2" d="M28.5,29.7C13.3,29.7,1.1,42,1.1,57.2c0,1.5,0.1,2.9,0.4,4.3c2.1,13.1,13.4,23.1,27.1,23.1
				c5.8,0,11.2-1.8,15.6-4.9c7.1-5,11.8-13.2,11.8-22.5C56,42,43.7,29.7,28.5,29.7 M28.5,80.8c-13,0-23.6-10.6-23.6-23.6
				c0-2.4,0.4-4.7,1-6.9c3-9.6,11.9-16.7,22.5-16.7c13,0,23.6,10.6,23.6,23.6c0,4.1-1.1,8-3,11.4C45.1,75.8,37.4,80.8,28.5,80.8"/>
			<path class="st3" d="M5.5,1.1c0,0-3.3,22.4,25.7,25.7C32.3,4.4,19.9,1.3,5.5,1.1"/>
			<path class="st2" d="M7.8,3.6c3.5,0.1,6.3,0.5,8.7,1.1C19.8,5.6,22.4,7,24.3,9c3,3.2,4.5,8.1,4.5,15c-7.8-1.3-13.5-4.3-17-8.8
				c-2-2.6-3.3-5.7-3.8-9.2C7.9,5.1,7.8,4.3,7.8,3.6 M5.5,1.1c0,0-3.3,22.4,25.7,25.7C32.3,4.4,19.9,1.3,5.5,1.1"/>
			<path class="st3" d="M52.1,10.4c0,0-14.9-2.2-17.1,17.1C49.9,28.2,52,20,52.1,10.4"/>
			<path class="st2" d="M49.6,12.8c-0.2,3-0.7,6-2.2,8.2c-0.9,1.3-2,2.2-3.6,2.9c-1.6,0.7-3.6,1.1-6,1.2c0.9-4.6,2.9-8,5.7-10.1
				C45.7,13.4,48,12.9,49.6,12.8 M50.7,10.3c-3.7,0-13.9,1.4-15.7,17.2c0.6,0,1.2,0,1.8,0c13.3,0,15.2-7.9,15.3-17.1
				C52.1,10.4,51.6,10.3,50.7,10.3"/>
		</g>
	</g>
</g>
</svg>
