<?xml version="1.0" encoding="utf-8"?>
<!-- Generator: Adobe Illustrator 27.6.1, SVG Export Plug-In . SVG Version: 6.00 Build 0)  -->
<svg version="1.1" id="Layer_2_00000054263011026822754770000008266368408060832676_"
	 xmlns="http://www.w3.org/2000/svg" xmlns:xlink="http://www.w3.org/1999/xlink" x="0px" y="0px" viewBox="0 0 117 136.6"
	 style="enable-background:new 0 0 117 136.6;" xml:space="preserve">
<style type="text/css">
	.st0{fill:#F9AB72;}
</style>
<g id="Layer_1-2">
	<g>
		<g>
			<path class="st0" d="M19.1,111.1c-0.5,2.5-0.4,20.5-0.4,20.5c0,0.4,0,0.8,0.2,0.8c0.4,0,0.8-0.1,0.8,0.7c0.1,0.8-0.4,2.7,0,3.2
				s5.1,0.7,5.3,0c0.2-0.7,0.8-7.4,0.6-8c-0.1-0.4-0.9-1.6-1.8-2.2c0-0.5-0.1-0.9-0.1-1.4c-0.1-3.2,1-13.3,1-13.3s6.6-1.7,11.3-6.3
				S41.7,95,41.7,95s-9.2,2-16.6,7.8C20.4,106.5,19.6,108.5,19.1,111.1L19.1,111.1z"/>
			<path class="st0" d="M87,80.6c-2.3,2.6-5.5,6.2-6.9,8.6c-2,3.5-2.3,4.7-2.8,8.1c-0.6,4-0.2,7.3,0,14.3c0.2,5.7,0.1,16.3,0.5,16.3
				s0.8-0.1,0.8,0.7c0.1,0.8-0.3,2.8,0.2,3.3s5,0.6,5.1-0.1s0.8-7.4,0.6-8c-0.1-0.3-0.6-1.2-1.3-1.8c-0.2-2.6-0.2-6.2-0.2-10
				c0-7-0.5-13.9,2.2-18.4c1.2-2.1,7.2-3.4,9.4-11.1C96.9,75,94.2,68,94.2,68S93.3,73.5,87,80.6L87,80.6z"/>
			<path class="st0" d="M69.4,59.3c-5,2.9-11.2,4.8-17.2,6.2c5,7.2,15.2,11.7,23,14c2.2,0.7,4.5,1.2,6.8,1.6
				c2.2-3.7,4.1-7.9,5.6-15.9c1.5-8.3-1.2-21.5-5-27.9c-2.5-4.2-9.7-6.2-13.4-4c-0.6,0.6-1.1,1.1-1.4,1.3c-1.3,1.1-7,5.6-7,5.6
				s-0.8,3.6,3,4.5c3.2,0.8,11.8-2,13.3-0.3c1,1.1,1.8,2.8,0.9,5.8C77.2,53.2,75.8,55.6,69.4,59.3L69.4,59.3z"/>
			<path class="st0" d="M81.5,81.7c-3.8,0.2-9.4-0.6-14-1.3c-8.1-1.2-19.6-6-24.6-13.2l0,0c-6,0.9-8.3,1-11.3,1.8c0,0,0,0-0.1,0
				s-0.2,0-0.3,0.1c-5.3,1.4-8.6,2.8-10.8,7.4s-2.6,10-3.8,13.3c-3.5,9.9-10.2,13-11.5,17.6c-1,3.7-2.1,8.5-3,12.7
				c-0.1,0.3-0.6,2.6-1.1,4.8c-0.5,2.2-1,4.4-1,4.4s-0.4,2.9,0,2.9s1,0,1,0.8c0.1,0.8-0.4,2.7,0,3.2s5.1,0.7,5.3,0s0.8-7.4,0.6-8
				c-0.1-0.2-0.2-0.5-0.4-0.8c1.1-3.9,2.7-9.1,4-12.2c0.1-0.2,0.1-0.3,0.2-0.5s0.1-0.3,0.2-0.5c0.1-0.2,0.2-0.4,0.3-0.6
				c5-9.9,18.2-16.8,25.4-19.2c13.3-4.5,27.4-4,27.2,5c-0.3,12.7,0,20.5-0.1,27.1c0,0.9-0.1,4.8,0.3,4.8c0.4,0,0.8-0.1,0.8,0.7
				c0.1,0.8-0.3,2.7,0.1,3.2s4.8,0.7,4.9,0c0.2-0.7,0.8-7.4,0.6-8c-0.1-0.2-0.3-0.6-0.6-1c-0.1-2-0.5-11.3,0.3-16.3
				c0.7-4.1,1.8-10.4,4.5-16.1l0,0c1-3.6,3.4-6.7,5.3-9.5C80.5,83.4,81,82.6,81.5,81.7L81.5,81.7z"/>
			<path class="st0" d="M83.9,81.4L83.9,81.4L83.9,81.4z"/>
			<path class="st0" d="M103.2,8.8c0-0.2,0-0.4-0.1-0.6c0-0.1,0-0.1,0-0.2S103,7.7,103,7.6s-0.1-0.3-0.1-0.4
				c-0.2-0.7-0.4-1.3-0.5-1.7V5.4c0-0.1-0.1-0.2-0.1-0.3V5c0-0.1-0.1-0.2-0.1-0.2c-0.1-0.1-0.1-0.2-0.2-0.4c0-0.1-0.1-0.2-0.1-0.2
				c-0.1-0.2-0.2-0.3-0.3-0.4l-0.1-0.1c-0.1-0.1-0.2-0.2-0.3-0.2c-0.1,0-0.1,0-0.1,0.1c0,0,0,0-0.1,0.1c0,0-0.1,0.1-0.1,0.2
				c-0.1,0.1-0.1,0.3-0.1,0.6c0,0.1,0,0.2,0,0.3c0,0.2,0,0.4,0,0.7v0.1c0,0.1,0,0.1,0,0.2c0,0.2,0,0.4,0,0.7c0,0.2,0,0.4,0,0.6
				c0,0.7,0,1.5,0,1.9c-0.1,0.8-0.6,1.8-0.9,1.6l-0.1-0.1c0,0,0-0.1-0.1-0.1c-0.1-0.1-0.1-0.2-0.2-0.4c0-0.1-0.1-0.2-0.1-0.3
				c-0.1-0.1-0.1-0.3-0.1-0.4c-0.1-0.2-0.1-0.4-0.2-0.6V8.6C99,8.1,99,8,99,8c-0.1-0.2-0.1-0.4-0.2-0.6s-0.1-0.3-0.2-0.5
				c-0.1-0.1-0.1-0.3-0.2-0.4C98,5.8,97.5,5,96.6,4.1c-0.2-0.2-0.4-0.4-0.6-0.6l0,0c-1-1-2.3-1.9-3.3-2.4c-0.2-0.1-0.4-0.2-0.6-0.3
				c-0.1,0-0.2-0.1-0.3-0.1c-0.3-0.1-0.5-0.2-0.8-0.3c-0.1-0.1-0.3-0.1-0.4-0.1s-0.3-0.1-0.4-0.1c-0.7-0.2-1.3-0.2-1.5,0l-0.1,0.1
				l0,0c0,0,0.1,0.1,0.1,0.2l0.1,0.1c0.2,0.2,0.5,0.5,0.9,0.8c0.3,0.2,0.6,0.4,0.8,0.7c0.2,0.1,0.4,0.3,0.5,0.4l0.1,0.1
				c0.1,0.1,0.2,0.1,0.2,0.2l0.1,0.1c0.3,0,0.4,0.1,0.4,0.1c0.1,0,0.1,0.1,0.2,0.1c0.1,0.1,0.2,0.1,0.2,0.2l0.1,0.1
				c0.1,0.1,0.2,0.2,0.3,0.3c0.2,0.2,0.3,0.4,0.5,0.6c0,0.1,0.1,0.1,0.1,0.2c0.1,0.1,0.1,0.2,0.2,0.2c0.1,0.2,0.3,0.3,0.4,0.5
				c0.1,0.1,0.1,0.2,0.2,0.3c0.6,0.9,1.2,1.8,1.5,2.7c0.2,0.4,0.3,0.7,0.4,1.1C96,9.6,96,9.8,96.1,10c0.4,1.5,0.5,3.1,0.3,4.7
				c-0.1,1-0.5,1.9-0.9,2.7c-0.2,0.4-0.4,0.7-0.6,1.1c-0.2,0.3-0.4,0.5-0.6,0.8c-0.1,0.1-0.2,0.2-0.3,0.3c-0.2,0.2-0.4,0.5-0.6,0.7
				c-0.1,0.1-0.2,0.2-0.3,0.3c-0.2,0.2-0.4,0.3-0.6,0.5c-1.3,1-2.7,1.7-3.6,2c-0.1,0-0.1,0-0.2,0.1c-0.2,0.1-0.3,0.1-0.5,0.2l0,0
				c-0.2,0.1-0.3,0.1-0.5,0.2s-0.3,0.1-0.5,0.1c-0.1,0-0.1,0-0.2,0h-0.1c-0.1,0-0.1,0-0.2,0s-0.1,0-0.2,0c0,0,0,0-0.1,0l0,0
				c-0.1,0-0.1,0-0.2,0l0,0c0,0,0,0-0.1,0l0,0v-0.1c0,0,0,0,0-0.1c0,0,0,0,0-0.1c0,0,0-0.1,0.1-0.1c0-0.1,0.1-0.2,0.2-0.4
				c0,0,0-0.1,0.1-0.1c0.1-0.3,0.2-0.6,0.4-1c0-0.1,0-0.1,0.1-0.2c0-0.1,0.1-0.3,0.1-0.5c0-0.1,0-0.2,0.1-0.2c0-0.2,0.1-0.4,0.1-0.5
				c0-0.5,0-1-0.1-1.6c0-0.1,0-0.2,0-0.3c-0.1-0.3-0.1-0.5-0.2-0.8l0,0c-0.5-1.5-1.7-2.3-2.7-2.6c-0.7-0.2-1.2-0.2-1.4-0.1l0,0l0,0
				c-0.1,0.2,0.4,0.6,0.8,1.3c0.1,0.1,0.1,0.1,0.1,0.2c0.3,0.5,0.6,1.2,0.7,2.1c0.2,1.9-0.7,3.4-2,4.3c-0.1,0.1-0.2,0.1-0.4,0.2
				c-0.5,0.2-1,0.4-1.5,0.5c-0.2,0-0.3,0.1-0.5,0.1c-0.1,0-0.2,0-0.2,0c-1.5,0.1-2.6,0.1-3.4-0.2c-0.2,0-0.3-0.1-0.5-0.2
				s-0.3-0.1-0.4-0.2s-0.2-0.1-0.3-0.2c-0.1,0-0.1-0.1-0.1-0.1c-0.1-0.1-0.2-0.1-0.2-0.2c-0.1-0.1-0.2-0.2-0.3-0.3
				c-0.1-0.1-0.2-0.3-0.3-0.5c-0.4-0.6-0.5-1.4-0.6-2.1c-0.1-0.9,0.1-1.8,0.4-2.6c0,0,0-0.1,0.1-0.1c0.1-0.1,0.1-0.3,0.2-0.4
				c0.1-0.3,0.2-0.5,0.3-0.7c0-0.1,0-0.1,0.1-0.1v-0.1v-0.1c0-0.1,0-0.1,0-0.1l0,0c0,0,0,0,0-0.1l0,0c-0.1,0-0.2,0-0.3,0
				c-0.1,0-0.1,0-0.2,0.1l0,0c-0.2,0.1-0.5,0.2-0.8,0.4c-0.1,0.1-0.2,0.2-0.4,0.3c-0.1,0.1-0.3,0.2-0.4,0.3l0,0
				c-0.1,0-0.1,0.1-0.2,0.1c-0.2,0.1-0.3,0.3-0.4,0.5c-0.1,0.1-0.2,0.3-0.3,0.4c-0.5,0.9-0.9,2.1-0.8,3.7c0,0.3,0.1,0.6,0.2,0.9
				c0,0.1,0,0.1,0.1,0.2c0.1,0.2,0.2,0.4,0.2,0.6c0,0,0,0.1,0.1,0.1c0.1,0.1,0.1,0.2,0.2,0.3c0.2,0.2,0.3,0.5,0.5,0.6
				c0.1,0.1,0.2,0.2,0.2,0.3c0.1,0.1,0.1,0.1,0,0s0.1,0.1,0.1,0.1c0.3,0.4,0.7,0.6,0.9,0.8l0.1,0.1c0.1,0.1,0.2,0.1,0.2,0.1l0,0
				c0,0-0.1,0-0.2,0s-0.2-0.1-0.3-0.1c-0.1,0-0.1,0-0.2-0.1S73,25,73,25c-0.1,0-0.2-0.1-0.4-0.2c-0.1,0-0.2-0.1-0.4-0.2
				s-0.2-0.1-0.4-0.2l0,0l0,0c-0.1,0-0.2-0.1-0.2-0.1c-0.9-0.5-2.1-1.1-3.3-2c-0.1,0-0.2-0.1-0.2-0.2C68,22.1,68,22,68,22
				c-0.1-0.1-0.2-0.2-0.4-0.3c-0.3-0.2-0.5-0.4-0.8-0.6c-0.4-0.3-0.7-0.6-1.1-0.9c-0.1-0.1-0.1-0.1-0.2-0.2s-0.1-0.1-0.2-0.2
				s-0.2-0.2-0.3-0.3c-0.2-0.2-0.3-0.4-0.5-0.6c0,0-0.1-0.1-0.1-0.2c-0.1-0.1-0.1-0.1-0.2-0.2S64,18.3,64,18.1L63.9,18
				c-0.1-0.2-0.2-0.4-0.3-0.6c0,0,0-0.1-0.1-0.1c0-0.1-0.1-0.2-0.1-0.3c0-0.1-0.1-0.3-0.1-0.4s-0.1-0.3-0.1-0.4s-0.1-0.3-0.1-0.5
				s0-0.3-0.1-0.5c0-0.1,0-0.3,0-0.4c0-0.1,0-0.1,0-0.2c0-0.2,0-0.4,0-0.6c0-0.1,0-0.2,0-0.3l0,0c0-0.2,0-0.5,0.1-0.7
				c0-0.1,0-0.2,0.1-0.4c0-0.1,0-0.2,0.1-0.3l0,0c0-0.2,0.1-0.4,0.2-0.6c0-0.1,0.1-0.2,0.1-0.3s0-0.1,0.1-0.2v-0.1
				c0.1-0.1,0.1-0.3,0.2-0.4c0.1-0.2,0.2-0.4,0.2-0.6c0.1-0.1,0.1-0.3,0.2-0.4c0-0.1,0.1-0.1,0.1-0.2l0,0c0.1-0.2,0.2-0.4,0.3-0.6
				c0.2-0.4,0.4-0.7,0.6-1.1c0.1-0.1,0.1-0.3,0.2-0.4c0.2-0.4,0.3-0.7,0.2-0.8c-0.2-0.2-1.6,0.7-2.5,1.6c0,0.1-0.1,0.1-0.1,0.1
				c0,0.1-0.1,0.1-0.1,0.1c-0.1,0.1-0.1,0.1-0.2,0.2c-0.5,0.6-0.9,1-1,0.9l0,0c-0.2-0.2,0-1.7,0.2-2.8c0-0.1,0-0.2,0.1-0.4
				c0-0.2,0.1-0.3,0.1-0.5s0.1-0.3,0.1-0.5C62.4,5,62.5,4.5,62.7,4c0.1-0.3,0.2-0.7,0.3-1.2c0.6-2.1,0-2.1,0-2.1
				c-0.1,0-0.4,0.2-0.7,0.5l-0.1,0.1c-0.3,0.3-0.6,0.7-1,1.2c-0.4,0.6-0.8,1.2-1.2,1.7c-0.1,0.1-0.1,0.2-0.2,0.3
				c-0.1,0.1-0.1,0.2-0.2,0.3c-0.1,0.2-0.2,0.4-0.3,0.6c0,0.1-0.1,0.2-0.1,0.3l0,0C59,6,59,6.1,58.9,6.2c0,0.1-0.1,0.2-0.1,0.3l0,0
				c0,0.1-0.1,0.2-0.1,0.2c0,0.1-0.1,0.2-0.1,0.3c0,0.1-0.1,0.2-0.1,0.4v0.1c0,0.2-0.1,0.4-0.2,0.6c0,0.1,0,0.2-0.1,0.3
				c-0.1,0.4-0.2,0.9-0.3,1.4c0,0.1,0,0.3-0.1,0.4c0,0.1,0,0.2,0,0.3c0,0.2-0.1,0.4-0.1,0.7s-0.1,0.6-0.1,0.9c0,0.2,0,0.4,0,0.6v0.2
				c0,0.1,0,0.1,0,0.2v0.1c0,0.1,0,0.3,0,0.4c0,0.1,0,0.2,0,0.4c0,0.1,0,0.2,0,0.3l0,0c0,0,0,0,0,0.1s0,0.3,0.1,0.4
				c0,0.1,0,0.1,0,0.1c0,0.1,0.1,0.3,0.1,0.4l0,0c0,0.2,0.1,0.3,0.1,0.5s0.1,0.3,0.2,0.5c0.1,0.2,0.2,0.4,0.3,0.6
				c0,0.1,0.1,0.2,0.2,0.3c0.2,0.3,0.3,0.7,0.5,1c0.7,1.1,1.6,2.3,2.8,3.5l0,0c0.2,0.2,0.4,0.4,0.6,0.6c0.1,0.1,0.2,0.2,0.3,0.3
				c0.1,0.1,0.2,0.2,0.3,0.3c0.3,0.3,0.7,0.5,1,0.8c0.1,0.1,0.2,0.2,0.3,0.2c0.2,0.2,0.4,0.3,0.7,0.5c0.1,0,0.1,0.1,0.2,0.1
				s0.1,0.1,0.2,0.1c0.1,0.1,0.3,0.2,0.4,0.3c0.1,0,0.1,0.1,0.2,0.1s0.2,0.1,0.2,0.1c0.2,0.1,0.4,0.3,0.6,0.4c0.1,0,0.1,0.1,0.2,0.1
				l0,0c0.1,0,0.1,0.1,0.2,0.1l0,0c0,0,0,0,0.1,0s0.1,0.1,0.2,0.1c0.1,0.1,0.2,0.1,0.3,0.2c0.2,0.1,0.3,0.2,0.5,0.3
				c0.2,0.1,0.3,0.2,0.5,0.2c0.3,0.2,0.6,0.3,0.9,0.5c0.1,0.1,0.3,0.1,0.4,0.2l0,0c0.2,0.1,0.3,0.1,0.4,0.2s0.3,0.1,0.4,0.1
				c0.3,0.1,0.6,0.2,0.9,0.3c0.1,0,0.1,0,0.2,0s0.2,0,0.2,0c0.1,0,0.2,0,0.4,0.1l0,0l0,0c0.1,0,0.1,0,0.2,0l0,0H73h0.1l0,0
				c0.3,0,0.6,0,0.9,0l0,0c0.1,0,0.2,0,0.3,0l0,0c0.7,0,1.4,0,1.7-0.1c6.7-0.1,8.6-1.1,8.8-1.2c-1.7,2.3-0.5,7.5,1.3,13.4
				c2.1,6.9,4.7,13.4,4.9,21.1c0.2,5.8-1.5,11.8-5,17.4c0.2-0.3,0.5-0.6,0.7-0.8c0.2-0.3,0.5-0.6,0.7-0.9c0.1-0.2,0.3-0.3,0.4-0.5
				c0.2-0.2,0.3-0.4,0.5-0.7c0.1-0.2,0.3-0.4,0.4-0.6l0.1-0.1c0.2-0.3,0.5-0.7,0.7-1c0.2-0.2,0.3-0.5,0.5-0.7
				c0.1-0.2,0.2-0.4,0.3-0.5c0.3-0.5,0.5-0.9,0.8-1.4c0.1-0.2,0.2-0.4,0.3-0.6c0.2-0.3,0.3-0.6,0.4-1c0-0.1,0.1-0.2,0.1-0.3
				c0-0.1,0-0.1,0.1-0.2l0,0v-0.1c0.1-0.1,0.1-0.3,0.1-0.4c2-6.1,1.7-11.6,0.4-17.6c-0.1-0.6-0.3-1.2-0.4-1.8
				c-0.2-0.6-0.3-1.2-0.5-1.8s-0.3-1.2-0.5-1.9c-1.6-5.7-2.2-6.8-3.7-11.6c0.2,0,0.4,0,0.7,0c0.2,0,0.4,0,0.5-0.1c0.1,0,0.1,0,0.2,0
				s0.3-0.1,0.4-0.1s0.1,0,0.2-0.1s0.3-0.1,0.4-0.2s0.3-0.2,0.4-0.2s0.2-0.1,0.2-0.1c0.2-0.1,0.3-0.2,0.5-0.3c0.4-0.3,0.8-0.7,1.2-1
				c0.1-0.1,0.2-0.2,0.3-0.3c0.3-0.3,0.5-0.6,0.7-0.9c0.5-0.6,0.9-1.3,1.2-1.9c0.1-0.1,0.1-0.2,0.2-0.3c0-0.1,0.1-0.1,0.1-0.2
				c0.1-0.2,0.1-0.3,0.2-0.5s0.1-0.4,0.1-0.5s0-0.2-0.1-0.2c0,0,0,0-0.1-0.1c-0.4-0.4-2.1-0.4-3.7-0.1c-0.2,0-0.4,0.1-0.7,0.1
				c-0.2,0-0.4,0.1-0.7,0.2c-0.1,0-0.2,0.1-0.3,0.1c-0.2,0.1-0.4,0.1-0.6,0.2s-0.3,0.1-0.5,0.2c0,0-0.1,0-0.1,0.1l0,0
				c-0.1,0-0.1,0.1-0.2,0.1c0,0,0,0-0.1,0c0,0,0,0-0.1,0c0.1-0.2,0.3-0.3,0.4-0.5c0.1-0.1,0.1-0.2,0.2-0.2c0.1-0.1,0.3-0.3,0.4-0.5
				c0.2-0.2,0.4-0.5,0.6-0.7l0,0c0,0,0.1-0.1,0.2-0.2c0.2-0.2,0.5-0.4,0.9-0.7c0.1-0.1,0.2-0.2,0.4-0.3c0.1-0.1,0.3-0.2,0.4-0.3
				s0.3-0.2,0.4-0.3c1-0.8,4-2.8,4.9-3.3c0.2-0.1,0.3-0.2,0.5-0.4c0.1-0.1,0.2-0.1,0.3-0.2c0.2-0.1,0.4-0.3,0.6-0.5
				c0.1-0.1,0.2-0.2,0.3-0.3c0.1-0.1,0.1-0.1,0.2-0.2c0.2-0.2,0.3-0.4,0.5-0.5s0.3-0.4,0.5-0.6s0.3-0.4,0.5-0.6s0.3-0.4,0.5-0.7
				c0.2-0.3,0.4-0.6,0.6-0.9c0.1-0.2,0.2-0.3,0.3-0.5c0.2-0.3,0.3-0.6,0.5-0.9c0.1-0.2,0.2-0.4,0.2-0.6c0.1-0.2,0.1-0.3,0.2-0.5
				s0.1-0.4,0.2-0.6c0.1-0.6,0.2-1.2,0.3-1.8c0-0.1,0-0.2,0-0.4c0-0.1,0-0.2,0-0.3C103.2,9.9,103.2,9.3,103.2,8.8L103.2,8.8z"/>
		</g>
	</g>
</g>
</svg>
