<?xml version="1.0" encoding="utf-8"?>
<!-- Generator: Adobe Illustrator 27.6.1, SVG Export Plug-In . SVG Version: 6.00 Build 0)  -->
<svg version="1.1" id="Layer_2_00000145049310496166902120000002900487660773986973_"
	 xmlns="http://www.w3.org/2000/svg" xmlns:xlink="http://www.w3.org/1999/xlink" x="0px" y="0px" viewBox="0 0 97.9 86.4"
	 style="enable-background:new 0 0 97.9 86.4;" xml:space="preserve">
<style type="text/css">
	.st0{fill:#E9EBEC;}
	.st1{fill:#9AAFBA;}
	.st2{fill:#47B38B;}
</style>
<g>
	<path class="st0" d="M74.1,59.3c0,3-2.4,5.5-5.5,5.5c0,0,0,0,0,0H21c-0.5,0.6-1.1,1.3-1.6,2h49.1c4.1,0,7.4-3.3,7.4-7.4V26.8
		L74,27.5L74.1,59.3z"/>
	<path class="st0" d="M12.3,8.5c0-3,2.5-5.5,5.5-5.5h50.8c3,0,5.5,2.5,5.5,5.5v4.7l1.9-0.6V8.5c0-4.1-3.3-7.4-7.4-7.4H17.8
		c-4.1,0-7.4,3.3-7.4,7.4v45.8c0.6-0.9,1.3-1.8,1.9-2.7L12.3,8.5z"/>
	<path class="st1" d="M29.8,37c-1.2,0.8-2.3,1.6-3.3,2.6c-0.7,0.7-1.4,1.3-2,2c-0.6,0.7-0.9,1-1.3,1.5c-0.4,0.5-0.6,0.8-0.9,1.2v0.1
		l0,0c-0.8,1.1-1.5,2.2-2.1,3.3c-0.4,0.8-0.8,1.5-1.1,2.2c-0.5,1-0.9,2.1-1,3.2L16,55.6c-1.2,1.6-2.4,3.3-3.5,5l-1.3,2l0,0
		C9.9,64.8,8.6,67,7.5,69s-2.1,4-3,5.8l-0.9,2c-0.5,1.3-1,2.5-1.4,3.6c-0.6,1.5-1,3.2-1,4.9c3.5-7,7.7-13.6,12.5-19.8L15,64
		c1.1-1.5,2.3-2.9,3.5-4.3c1.2-1.4,2.4-2.8,3.7-4.1s2.2-2.3,3.3-3.3l0.4-0.4c0.1-0.9,0.1-1.8,0-2.7c0-0.5-0.1-1.1-0.3-1.6
		c-0.1-0.3-0.1-0.6-0.2-0.9c-0.1-0.2-0.1-0.4-0.2-0.5c-0.1-0.3-0.2-0.5-0.4-0.7c0-0.9,3.8-3.8,5.1-4.7c0-0.3,0-0.5,0-0.8v-1.3
		C29.8,38.2,29.8,37.5,29.8,37z"/>
	<path class="st2" d="M96.1,15.5l-0.2-0.1l-0.6-0.1h-0.3l-0.7-0.1h-0.4h-1h-0.2c-0.6,0-1.2,0-1.9,0.1h-0.4c-0.7,0-1.4,0.1-2.1,0.2
		h-0.4c-0.8,0.1-1.6,0.2-2.5,0.4l0,0c-0.9,0.2-1.8,0.4-2.7,0.6l-0.5,0.1l-2.9,0.7l-0.6,0.2c-0.9,0.2-1.7,0.5-2.7,0.7l-0.5,0.1
		l-0.3,0.1l-1.2,0.4l-2,0.6l-0.5,0.2c-1.1,0.4-2.2,0.8-3.4,1.2L67.6,21c-1.2,0.4-2.3,0.9-3.5,1.3l-0.5,0.2c-1.2,0.5-2.3,0.9-3.5,1.5
		l-0.4,0.2c-1.2,0.5-2.4,1.1-3.7,1.7l-0.7,0.3c-1.2,0.6-2.5,1.2-3.7,1.8L51,28.3c-1.2,0.6-2.5,1.3-3.7,1.9L47,30.4
		c-1.3,0.7-2.5,1.5-3.8,2.1L42.5,33c-1.2,0.7-2.4,1.5-3.7,2.3l-0.6,0.4c-1,0.7-2,1.3-3,2l-0.8,0.5l0,0c0-0.6-0.1-1.2-0.2-1.8
		c0-0.2,0-0.4-0.1-0.6c-0.1-0.2-0.1-0.8-0.2-1.2c-0.1-0.4-0.1-0.4-0.1-0.7c0-0.2-0.1-0.4-0.1-0.6L33.4,33c0-0.2-0.1-0.4-0.2-0.7
		c-0.1-0.2-0.2-0.6-0.3-0.9l-0.3-0.7c-0.1-0.3-0.2-0.5-0.3-0.8c-0.1-0.3-0.2-0.4-0.3-0.6s-0.2-0.5-0.3-0.7c-0.1-0.2-0.2-0.4-0.3-0.6
		l-0.3-0.7c-0.1-0.2-0.2-0.4-0.3-0.5c-0.1-0.2-0.2-0.4-0.3-0.6l-0.3-0.5l-0.3-0.5c-0.1-0.1-0.2-0.3-0.3-0.4
		c-0.1-0.1-0.2-0.3-0.3-0.4c-0.1-0.1-0.2-0.3-0.3-0.4L29,23.7l-0.3-0.4L28.5,23l-0.3-0.2l-0.3-0.2l-0.2-0.2l-0.2-0.2l-0.2-0.1
		c-0.1,0-0.1-0.1-0.2-0.1h-0.2c-0.1,0-0.1,0-0.2,0c0.1,0.5,0.2,0.9,0.4,1.4c0.1,0.5,0.4,1.2,0.6,1.8l0.1,0.4
		c0.1,0.4,0.3,0.8,0.4,1.2c0,0.3,0.1,0.5,0.2,0.8s0.2,0.7,0.3,1c0.1,0.3,0.2,0.9,0.4,1.5c0.1,0.5,0.2,1.1,0.3,1.7l0.1,0.6
		c0.2,1.3,0.3,2.6,0.3,3.9c0,0.7,0,1.5,0,2.4s0,1.3,0,2.1l0,0c0,0.4,0,0.7,0,1.1c-0.1,2-0.3,4.3-0.5,6.8l1.6-1.5L31,47l2.1-1.8
		c1.5-1.3,3.2-2.7,5.2-4.2s4.1-3.1,6.5-4.7c2.4-1.6,5-3.2,7.8-4.8c2.8-1.6,5.9-3.2,9.1-4.8c3.8-1.8,8-3.5,12.4-5.1L76,21l1.7-0.6
		c6.2-2,12.5-3.5,18.8-4.6C96.4,15.7,96.3,15.6,96.1,15.5z"/>
	<path class="st2" d="M47.1,40.6l-0.2-0.1c0.1-0.4,0.3-0.8,0.7-1c0.2-0.1,0.5-0.3,0.8-0.5l1.2-0.7l0.8-0.4l0.6-0.4l0.2-0.1l0.2,0.1
		c-0.1,0.3-0.2,0.5-0.4,0.7c-0.2,0.2-0.4,0.4-0.6,0.5L48,40c-0.2,0.1-0.4,0.2-0.6,0.3C47.3,40.4,47.2,40.5,47.1,40.6z"/>
	<path class="st2" d="M25.7,19.4c-0.3,0-0.7-0.1-0.9-0.4c-0.2-0.3-0.3-0.6-0.3-0.9c0-0.3,0.1-0.6,0.2-0.9c0.1-0.3,0.3-0.6,0.5-0.8
		c0.2-0.2,0.5-0.3,0.8-0.3c0.3,0,0.7,0.2,0.8,0.5c0.2,0.3,0.3,0.7,0.3,1.1c0,0.4-0.1,0.9-0.4,1.2C26.5,19.3,26.1,19.4,25.7,19.4z
		 M25.8,18.5c0.2,0,0.4-0.1,0.6-0.2c0.2-0.1,0.2-0.3,0.2-0.5c0-0.2-0.1-0.3-0.2-0.4c-0.2-0.1-0.4-0.2-0.6-0.2
		c-0.2,0-0.4,0.1-0.5,0.2c-0.2,0.1-0.2,0.3-0.2,0.5c0,0.2,0.1,0.4,0.2,0.5C25.4,18.4,25.6,18.5,25.8,18.5z"/>
</g>
</svg>
