<?xml version="1.0" encoding="UTF-8"?>
<svg id="Layer_2" data-name="Layer 2" xmlns="http://www.w3.org/2000/svg" viewBox="0 0 351.45 330.59">
  <defs>
    <style>
      .cls-1 {
        fill: #e6342c;
      }
    </style>
  </defs>
  <g id="Layer_1-2" data-name="Layer 1">
    <g id="Artwork_2" data-name="Artwork 2">
      <g>
        <path class="cls-1" d="m221.63,330.59c-67.96-7.07-139.4-31.15-187.77-81.56C9.79,223.95-5.91,190.69,2.12,155.53c7.67-33.55,33.37-58.67,57.36-81.7C103.28,31.8,168.74-15.37,232.95,4.82c32.73,10.29,57.22,36.7,75.26,64.73,18.88,29.33,33.83,62.91,40.03,97.34,6.78,37.62,3.67,78.54-17.77,111.22-9.92,15.12-23.32,27.8-39.12,36.69-8.16,4.59-16.97,8.17-25.99,10.7-4.62,1.3-9.48,2.46-14.21,3.28-4.1.71-9.89-.24-13.52,1.82h-16Zm49.05-60.86h13.57c-4.34-9.84-8.45-19.53-12.28-29.26,11.56-7.04,15.35-22.55,5.02-32.62-5.75-5.6-13.16-6.61-20.87-6.77-8.92-.18-18-.41-26.9.1v68.67c4.02,0,9.03.77,12.93-.34v-26.48h17.6c3.67,8.97,7.31,17.86,10.93,26.69m-68.5-29.1c5.85-4.94,10.57-8.69,11.2-16.89.48-6.15-2.13-12.86-6.86-16.88-5.8-4.93-13.02-5.72-20.33-5.81-8.57-.1-17.42-.56-25.95.16-.48,4.41-.28,66.81.19,68.49h11.62c0-8.92-.15-17.85.03-26.76,4.43,0,8.86.01,13.29,0,4.14-.01,4.83.16,6.45,3.88,3.31,7.59,6.24,15.38,9.39,23.03,4.33,0,9.02.48,13.31-.22-4.16-9.77-8.18-19.19-12.36-29.01m109.71,29.16v-68.73c-3.89,0-7.78.01-11.68.04-.51,6.22-.28,66.85.24,68.69h11.43Z"/>
        <path class="cls-1" d="m242.05,230.97c0-5.39-.7-11.51.18-16.83,7.54-.4,28.58-4.09,28.54,8.25-.04,12.7-20.75,8.58-28.72,8.58"/>
        <path class="cls-1" d="m172.15,230.97v-16.78c7.96-.89,30.14-3.87,29.02,9.07-1.01,11.71-21.16,7.71-29.02,7.71"/>
      </g>
    </g>
  </g>
</svg>