<?xml version="1.0" encoding="utf-8"?>
<!-- Generator: Adobe Illustrator 27.6.1, SVG Export Plug-In . SVG Version: 6.00 Build 0)  -->
<svg version="1.1" id="Layer_2_00000007422473532848103850000009498953939162621868_"
	 xmlns="http://www.w3.org/2000/svg" xmlns:xlink="http://www.w3.org/1999/xlink" x="0px" y="0px" viewBox="0 0 45.5 67.1"
	 style="enable-background:new 0 0 45.5 67.1;" xml:space="preserve">
<style type="text/css">
	.st0{fill:#FFFFFF;}
</style>
<g id="Layer_1-2">
	<g>
		<path class="st0" d="M3.5,8c7.8-7.1,26.7-8,36.7-8c2.4,0,4.3,0,5.3,0.1v17c-2-0.1-6.4-0.3-11.7-0.2c-9.5,0.3-17.3,1.6-23.2,3.9
			c-6.9-1.8-10.2-3.6-10.5-5.5S0.2,11,3.5,8z"/>
		<path class="st0" d="M45.5,53.9c0,0,0,0.6-2.4,1.1c-2,0.4-4.8,0.7-8,1c-10.3,1-25.6,2.6-35,11.1c0.5-12.2,4.8-20.2,13.1-24.4
			c0.1-0.1,0.2-0.1,0.3-0.1c6.1-3,13.1-3.6,19.5-4c5.2-0.4,9.9-0.8,12.5-2.7C45.4,35.8,45.5,53.9,45.5,53.9z"/>
		<path class="st0" d="M32.9,36.6c-6,0.5-13.5,1.1-19.9,4.1l0,0c-3.4-0.8-11.8-2.9-12.9-4.9V18.8c2,1.5,5.4,2.8,10.4,4l0.3,0.1
			c4.2,1,9,1.9,13.6,2.8c5.7,1.1,11,2.3,15.2,3.2c5,1.2,6,2.7,6,3.3C45.5,35.1,40.4,36,32.9,36.6z"/>
	</g>
</g>
</svg>
