<svg xmlns="http://www.w3.org/2000/svg" viewBox="0 0 172.58 172.85"><defs><style>.a32a6fb4-9f9f-4a2a-86e9-80dd9efca210{fill:#e9817d;}</style></defs><g id="a210471f-2342-43b0-8727-7fc84fedde4a" data-name="Layer 2"><g id="e72f308d-2bb0-414f-a902-0210b8d5ab7b" data-name="Layer 1"><path class="a32a6fb4-9f9f-4a2a-86e9-80dd9efca210" d="M13.06,86.28a55.58,55.58,0,0,1-10.74-19A47.24,47.24,0,0,1,0,52.59a5,5,0,0,1,1.75-4.05c6-5.34,12.65-9.62,20.44-11.77,3.81-1.05,7.74-1.63,12.08-2.51.29-1.3.74-2.83.95-4.4A51.69,51.69,0,0,1,48.5,1.67,4.48,4.48,0,0,1,52,0,49.62,49.62,0,0,1,80.77,8.94c1.84,1.27,3.62,2.64,5.47,4,1.62-1.11,3.24-2.08,4.71-3.24,5-4,10.88-6.28,17-8.07A44.33,44.33,0,0,1,120.2,0a4.64,4.64,0,0,1,3.6,1.52A45.73,45.73,0,0,1,135,20.11c1.4,4.62,2.29,9.4,3.44,14.26,3.09.61,6.44,1.23,9.77,1.93,8.34,1.77,15.39,6,21.8,11.46a7,7,0,0,1,2.55,5.89c0,6.46-1.81,12.45-4.08,18.38a43.94,43.94,0,0,1-9,14.08c1.42,1.93,2.81,3.67,4,5.52a50,50,0,0,1,9,28.16,5.49,5.49,0,0,1-1.82,4.29,50.39,50.39,0,0,1-26.52,13.14c-1.94.35-3.89.58-6,.9-.3,1.74-.62,3.4-.86,5.07A50.34,50.34,0,0,1,125,169.8a9.39,9.39,0,0,1-1.57,1.83,5.44,5.44,0,0,1-2.86,1.21c-11.25-.52-21.66-3.59-30.69-10.6-.92-.71-1.9-1.37-2.86-2a4.62,4.62,0,0,0-1-.27c-.91.63-2.12,1.37-3.23,2.23a47.58,47.58,0,0,1-30.37,10.36,5.19,5.19,0,0,1-3.81-1.65,43.64,43.64,0,0,1-8.72-12.62,57,57,0,0,1-5.11-18.11c-.06-.45-.13-.89-.23-1.33a4.12,4.12,0,0,0-.45-.73c-.57-.09-1.34-.23-2.12-.32A51.33,51.33,0,0,1,1.76,124,5.28,5.28,0,0,1,0,119.7,49.21,49.21,0,0,1,11.29,88.79C11.91,88,12.42,87.19,13.06,86.28ZM82.73,16.79C73.69,9.16,64,4.77,52.63,5c-8,7.76-14.48,23.48-12.36,29.52.49.08,1,.19,1.54.26,4.38.61,8.79,1.19,12.83,3.09,4.23,2,8.34,4.24,12.51,6.37l2.58,1.3A53.89,53.89,0,0,1,82.73,16.79Zm-49,116.09a6.63,6.63,0,0,0,.8-1.25,15,15,0,0,0,.66-2.62,49.79,49.79,0,0,1,9.1-23.43,17.93,17.93,0,0,0,1.31-2.76c-11-1.61-20.54-5.47-28.63-12.88C9,98.71,4.89,108.53,5,120.26,13.29,127.64,22.7,132.1,33.69,132.88ZM16.31,82.25c5.09-3,9.36-6.17,14.08-8.26s9.85-3.15,15-4.73c-.67-1.13-1.32-2.29-2-3.41-4.29-6.79-7.36-14-8.21-22.09a27.55,27.55,0,0,0-1-4c-1.26.07-2.23.05-3.18.2A47.6,47.6,0,0,0,7.25,50.35,5.3,5.3,0,0,0,5,55.16,43.31,43.31,0,0,0,11.76,76C13.16,78.26,14.88,80.31,16.31,82.25ZM126.74,103.1A56.66,56.66,0,0,1,138,132.67a19.44,19.44,0,0,0,3.7,0c3.16-.68,6.33-1.42,9.42-2.35a41.54,41.54,0,0,0,14.48-8.22,5,5,0,0,0,2-4.49,44.25,44.25,0,0,0-9.19-24.46c-.79-1-1.7-2-2.74-3.18C147.5,97.42,137.86,101.19,126.74,103.1Zm40.82-50.39c-6.81-8-23.43-14.24-29.46-12.36-.1.55-.23,1.16-.32,1.78-.72,5.28-1.73,10.52-4.06,15.36-1.56,3.23-3.49,6.29-5.25,9.43-.44.8-.85,1.62-1.22,2.32,5.33,1.66,10.51,2.76,15.23,4.88s9,5.24,13.65,8.07C163.66,73.82,167.68,64,167.56,52.71ZM90,155.68a21.77,21.77,0,0,0,2.15,2c2.06,1.44,4.1,2.93,6.28,4.17,6,3.37,12.27,5.62,19.21,5.7a5,5,0,0,0,5-2.62,9.36,9.36,0,0,1,1-1.31c5.23-6.33,7.7-13.83,9.2-21.73a23.65,23.65,0,0,0,0-3.81A58,58,0,0,1,103,126.72C101.29,137.83,97.48,147.39,90,155.68ZM132.72,34c.52-2.26-.25-4.72-.8-7.12a51.92,51.92,0,0,0-8.55-18.23c-2.12-3-4.45-4.09-8-3.59a49.15,49.15,0,0,0-22.94,9.59c-.83.62-1.55,1.4-2.52,2.3,7.47,8.21,11.29,17.85,13,28.38,4.91-2.52,9.37-5.3,14.19-7.14S127.15,35.43,132.72,34Zm-50,121.87c-7.56-8.43-11.19-18.17-13.26-29.14A53.11,53.11,0,0,1,39.6,138a46.8,46.8,0,0,0,13.14,29.91A47.71,47.71,0,0,0,82.68,155.85ZM89.2,89c-.44,5.93,1.34,11,3.42,15.79a46.6,46.6,0,0,0,22.49,23.6c5.37,2.71,11.11,4.58,17.64,4.36-.12-11.69-5.07-21.14-12.41-29.13A44,44,0,0,0,89.2,89Zm-5.69.47c-8-.74-22.29,3.82-33,16-6,6.84-11.89,21.62-10.38,27,6.73,1.21,23.15-4,33.17-16.77C79.32,108.06,83.37,99.6,83.51,89.44ZM83,83.57a12.77,12.77,0,0,0-.33-7.71c-2.2-7.77-5.56-14.94-11.19-21A48.31,48.31,0,0,0,46.64,40.51a61.26,61.26,0,0,0-7-.82,45.68,45.68,0,0,0,14,30.61C61.68,78.26,71.29,83,83,83.57Zm49.75-43.88a29.68,29.68,0,0,0-3.69.28c-2.55.55-5.1,1.14-7.6,1.86-9.53,2.75-16.92,8.59-23,16.18-5.24,6.48-8,14-9.26,22.19a17.46,17.46,0,0,0,0,2.7c6.4,2,20.6-3.63,29.33-12.07S132.39,52.45,132.78,39.69ZM74.56,50.19c2.4,3.33,4.75,6.19,6.64,9.33s3.37,6.65,5.22,10.38l1.43-3.36C90,61.65,92.37,56.89,96.13,53a7.61,7.61,0,0,0,1.93-7,51.76,51.76,0,0,0-5.82-17.62,33.15,33.15,0,0,0-5.78-7.63C79.71,26.34,73.57,41.57,74.56,50.19Zm0,71.52c-1.17,9.4,6.1,26.47,12.06,29.92,2.46-2.25,4.13-5.14,5.8-8a45.34,45.34,0,0,0,5.71-19,5.16,5.16,0,0,0-1.34-4.24,47.25,47.25,0,0,1-9.68-16.09c-.18-.47-.45-.91-.94-1.89C83.5,110,79.88,116.41,74.58,121.71ZM69.15,86.6l.08-.82C62,83.52,56.07,79.16,50.33,74.63,41.54,73.51,24.55,80.6,21,86.5a4.14,4.14,0,0,0,.41.67,7.9,7.9,0,0,0,1,.93,49.86,49.86,0,0,0,17.06,8.57,75.85,75.85,0,0,0,9,1.47,4.45,4.45,0,0,0,3.92-1.42,43.47,43.47,0,0,1,14.36-9C67.59,87.42,68.36,87,69.15,86.6Zm34.71-.66-.06.68c.68.35,1.35.72,2,1,4.93,2.26,9.79,4.68,13.79,8.42a7.66,7.66,0,0,0,6.7,2,50,50,0,0,0,21.32-8,53.66,53.66,0,0,0,4.25-3.52,25.69,25.69,0,0,0-2.09-2.23,35.81,35.81,0,0,0-11.67-6.65c-4-1.29-8.24-1.87-12.31-3a6.05,6.05,0,0,0-6.14,1.74,35.9,35.9,0,0,1-9.64,6.42C108,83.81,105.93,84.9,103.86,85.94Z"/></g></g></svg>