<?xml version="1.0" encoding="utf-8"?>
<!-- Generator: Adobe Illustrator 27.6.1, SVG Export Plug-In . SVG Version: 6.00 Build 0)  -->
<svg version="1.1" id="Layer_2_00000142870125025618903410000014009370695137920424_"
	 xmlns="http://www.w3.org/2000/svg" xmlns:xlink="http://www.w3.org/1999/xlink" x="0px" y="0px" viewBox="0 0 100.1 120.3"
	 style="enable-background:new 0 0 100.1 120.3;" xml:space="preserve">
<style type="text/css">
	.st0{fill-rule:evenodd;clip-rule:evenodd;fill:#FFFFFF;}
	.st1{fill-rule:evenodd;clip-rule:evenodd;fill:#F1BC35;}
</style>
<g id="Layer_3">
	<g>
		<path class="st0" d="M94.6,36.3c-8.4,1.3-16.9,3.2-24.1,6c-2.4,0.9-4.6,1.9-6.7,3c-0.7-2.8-1.7-5.5-2.8-8.1
			c2.2-1.6,4.7-3.1,7.2-4.5c5.1-2.8,10.7-5.2,16.2-7.3l0.2,0.2c2.4,1.8,4.6,3.8,6.5,6.1C92.4,33.1,93.6,34.7,94.6,36.3L94.6,36.3z"
			/>
		<path class="st0" d="M78.8,21.2c-4.2,1.8-8.4,3.9-12.3,6.2c-2.7,1.6-5.3,3.4-7.6,5.2c-1.6-2.9-3.4-5.7-5.4-8.3
			c2.6-2.6,5.5-5.1,8.4-7.4c1.9-1.4,3.8-2.8,5.7-4.1l0,0L78.8,21.2L78.8,21.2z"/>
		<path class="st0" d="M62.6,9.2C61.4,10.1,60.2,11,59,12c-3.1,2.5-6.1,5.3-8.9,8.4c-2.8-3.1-5.8-5.9-8.9-8.4
			c-1.2-1-2.4-1.9-3.6-2.8L50,0l0,0l0,0l0,0h0.1l0.1,0.1l0,0L62.6,9.2L62.6,9.2z"/>
		<path class="st0" d="M100.1,54.8c-4.2-0.4-8.5-0.7-12.6-0.9c-0.1,0-0.2,0-0.2,0c-0.1,0-0.2,0-0.3,0c-0.2,0-0.4,0-0.5,0
			s-0.2,0-0.3,0c-0.2,0-0.4,0-0.6,0c-0.3,0-0.7,0-1,0c-0.2,0-0.3,0-0.5,0s-0.3,0-0.5,0c-0.9,0-1.9,0-2.8,0c-0.2,0-0.5,0-0.7,0
			c-0.1,0-0.2,0-0.2,0c-0.2,0-0.3,0-0.5,0c-0.1,0-0.2,0-0.2,0c-0.1,0-0.2,0-0.2,0c-0.1,0-0.2,0-0.2,0c-0.2,0-0.5,0-0.7,0
			c-0.6,0-1.2,0-1.8,0.1c-0.2,0-0.3,0-0.4,0c-0.2,0-0.3,0-0.4,0s-0.2,0-0.2,0c-0.1,0-0.1,0-0.2,0s-0.2,0-0.3,0c-0.1,0-0.2,0-0.3,0
			c-0.1,0-0.1,0-0.2,0s-0.1,0-0.2,0s-0.3,0-0.4,0s-0.2,0-0.2,0c-0.1,0-0.1,0-0.2,0c-0.2,0-0.4,0-0.6,0.1c-0.1,0-0.1,0-0.2,0
			s-0.1,0-0.2,0h-0.1c-0.1,0-0.2,0-0.3,0c-0.1,0-0.2,0-0.2,0c-0.1,0-0.1,0-0.2,0c-0.2,0-0.4,0.1-0.6,0.1c-0.1,0-0.1,0-0.2,0
			s-0.1,0-0.2,0s-0.1,0-0.2,0s-0.1,0-0.2,0s-0.1,0-0.2,0s-0.1,0-0.2,0c-0.2,0-0.5,0.1-0.7,0.1c-0.1,0-0.1,0-0.1,0h-0.1
			c-0.1,0-0.1,0-0.2,0s-0.2,0-0.2,0.1C68,55,68,55,68,55c-0.1,0-0.1,0-0.2,0h-0.1c-0.1,0-0.1,0-0.2,0h-0.1c-0.3,0.1-0.6,0.2-0.8,0.3
			h-0.1c-0.1,0-0.2,0.1-0.3,0.1c0,0,0,0-0.1,0c-0.2,0.1-0.4,0.2-0.6,0.2h-0.1h-0.1c-0.1,0-0.2,0.1-0.2,0.1H65l0,0h-0.1
			c-0.1,0-0.1,0.1-0.2,0.1c0,0,0,0-0.1,0h-0.1h-0.1h-0.1c-0.1,0-0.1,0.1-0.2,0.1c0,0,0,0-0.1,0c0,0,0,0-0.1,0c0,0,0,0-0.1,0l0,0
			c0,0,0,0-0.1,0c0,0,0,0-0.1,0L63.5,56c-0.1,0.1-0.3,0.2-0.4,0.4l0,0c0,0,0,0,0,0.1s0,0-0.1,0.1c0,0,0,0,0,0.1l0,0
			c-0.1,0.1-0.1,0.2-0.2,0.3l0,0c0,0,0,0,0,0.1c0,0,0,0,0,0.1c0,0,0,0,0,0.1l0,0c0,0,0,0,0,0.1s0,0,0,0.1l0,0v0.1l0,0l0,0l0,0
			c0,0,0,0,0,0.1v0.1c0,0,0,0,0,0.1l0,0c0,0,0,0,0,0.1v0.1c0,0,0,0,0,0.1s0,0,0,0l0,0c0,0,0,0,0,0.1l0,0c0,0,0,0,0,0.1s0,0,0,0
			s0,0,0,0.1v25.3c-1.8,1.6-4.2,2.3-6.4,2.9V59.4c0-0.1,0-0.2,0-0.4l0,0v-0.1l0,0v-0.1c0-0.1,0-0.1,0-0.2v-0.1v-0.1l0,0v-0.1l0,0
			c0,0,0,0,0-0.1v-0.1V58l0,0v-0.1l0,0v-0.1l0,0v-0.1l0,0v-0.1c0,0,0-0.1,0-0.2v-0.1l0,0v-0.1v-0.1V57v-0.1l0,0c0,0,0,0,0-0.1
			s0.1-0.2,0.1-0.3v-0.1c0-0.1,0.1-0.2,0.2-0.3V56c0-0.1,0.1-0.1,0.1-0.2v-0.1c0,0,0-0.1,0.1-0.1c0,0,0,0,0-0.1c0,0,0-0.1,0.1-0.1
			c0,0,0,0,0-0.1c0,0,0,0,0-0.1s0.1-0.1,0.1-0.2c0,0,0-0.1,0.1-0.1c0,0,0,0,0.1-0.1c0-0.1,0.1-0.1,0.2-0.2c0-0.1,0.1-0.1,0.1-0.2
			c0,0,0,0,0.1-0.1c0,0,0,0,0.1-0.1S57.9,54,58,54c0,0,0,0,0.1-0.1l0.1-0.1c0.1-0.2,0.3-0.3,0.5-0.5l0.1-0.1
			c0.1-0.1,0.2-0.2,0.3-0.2c0.1-0.1,0.1-0.1,0.2-0.2c0.2-0.1,0.3-0.3,0.5-0.4l0.1-0.1c0.2-0.2,0.4-0.3,0.6-0.5c0,0,0.1,0,0.1-0.1
			c0,0,0.1,0,0.1-0.1c0,0,0.1,0,0.1-0.1c0,0,0,0,0.1-0.1c0,0,0.1-0.1,0.2-0.1c0,0,0.1-0.1,0.2-0.1c0.1-0.1,0.2-0.1,0.3-0.2
			c0.5-0.3,1.1-0.7,1.7-1c0.1,0,0.1-0.1,0.2-0.1c0.3-0.2,0.7-0.3,1.1-0.5c0.2-0.1,0.4-0.2,0.6-0.3c0.1-0.1,0.2-0.1,0.4-0.2
			c0.1,0,0.1-0.1,0.2-0.1s0.1-0.1,0.2-0.1s0.1,0,0.1-0.1h0.1c0.1,0,0.1-0.1,0.2-0.1s0.2-0.1,0.3-0.1c0.3-0.1,0.6-0.2,0.9-0.3
			c0.1,0,0.1,0,0.2-0.1c0.1,0,0.2-0.1,0.2-0.1c0.1,0,0.2-0.1,0.3-0.1c0.1,0,0.3-0.1,0.4-0.2c0.1,0,0.2-0.1,0.3-0.1
			c0.2-0.1,0.3-0.1,0.5-0.2c0.1,0,0.1,0,0.2-0.1c0.1,0,0.2-0.1,0.4-0.1c0.1,0,0.2-0.1,0.3-0.1c0.1,0,0.1,0,0.2-0.1
			c0.2-0.1,0.4-0.1,0.6-0.2c0.3-0.1,0.7-0.2,1.1-0.3c0.1,0,0.2-0.1,0.4-0.1c0.2-0.1,0.4-0.1,0.6-0.2c0.1,0,0.2-0.1,0.4-0.1l0,0
			c0.2,0,0.3-0.1,0.5-0.2c0.2,0,0.3-0.1,0.5-0.1c0.3-0.1,0.7-0.2,1.1-0.3c0.1,0,0.3-0.1,0.4-0.1c0.2,0,0.4-0.1,0.6-0.2
			c0.1,0,0.1,0,0.2,0s0.1,0,0.2,0c0.2,0,0.4-0.1,0.6-0.2c0.4-0.1,0.8-0.2,1.2-0.3c0.1,0,0.1,0,0.2,0s0.1,0,0.2,0
			c0.3-0.1,0.6-0.1,0.8-0.2c0.1,0,0.3-0.1,0.4-0.1s0.3-0.1,0.4-0.1s0.3-0.1,0.4-0.1s0.3-0.1,0.4-0.1s0.3-0.1,0.4-0.1
			c0.3-0.1,0.6-0.1,0.8-0.2c0.1,0,0.3-0.1,0.4-0.1c0.2,0,0.4-0.1,0.6-0.1l0,0c0.2,0,0.4-0.1,0.7-0.1c0.1,0,0.1,0,0.2,0
			c4-0.7,8.2-1.3,12.3-1.8c0.7,1.7,1.2,3.4,1.7,5.2C99.7,49.7,100,52.2,100.1,54.8L100.1,54.8z"/>
		<path class="st0" d="M39.1,37.2c-1.1,2.6-2.1,5.3-2.8,8.1c-2-1.1-4.3-2.1-6.7-3c-7.1-2.7-15.7-4.6-24.1-6c1-1.7,2.1-3.2,3.4-4.7
			c1.9-2.3,4.1-4.3,6.5-6.1l0.3-0.2c5.6,2.1,11.2,4.5,16.3,7.3C34.5,34.1,36.9,35.6,39.1,37.2L39.1,37.2z"/>
		<path class="st1" d="M47.7,45.1c-1.3,2.3-2.3,4.8-3,7.4c-1.3-2-3.2-3.8-5.5-5.3c0.8-2.6,1.8-5.1,3-7.5
			C44.3,41.3,46.2,43.2,47.7,45.1z"/>
		<path class="st0" d="M46.7,24.4c-2,2.6-3.8,5.3-5.4,8.3c-2.4-1.9-5-3.6-7.6-5.2c-3.9-2.4-8.1-4.4-12.4-6.2L32.6,13
			c1.9,1.3,3.9,2.7,5.7,4.1C41.3,19.3,44.1,21.7,46.7,24.4L46.7,24.4z"/>
		<path class="st1" d="M55.6,35.4c-2.1,1.9-3.9,3.9-5.5,6.1c-1.6-2.2-3.5-4.2-5.5-6.1c1.6-2.6,3.5-5.1,5.5-7.4
			C52.1,30.4,54,32.8,55.6,35.4z"/>
		<path class="st1" d="M60.9,47.2c-2.3,1.6-4.2,3.4-5.5,5.3c-0.7-2.6-1.7-5.1-3-7.4c1.6-1.9,3.4-3.7,5.5-5.5
			C59.1,42,60.1,44.5,60.9,47.2L60.9,47.2z"/>
		<g id="Base">
			<path class="st0" d="M72,117.4v2.9H56.2v-7.1c0-4.1,2.4-7.3,6.4-9.7v4.5C62.7,113.2,66.8,117.4,72,117.4L72,117.4z"/>
			<path class="st0" d="M43.9,113.2v7.1H28.1v-2.9c5.2,0,9.4-4.2,9.4-9.4v-4.5C41.5,105.9,43.9,109.1,43.9,113.2L43.9,113.2z"/>
		</g>
		<path class="st0" d="M48.4,100.7C48.4,100.7,48.4,100.8,48.4,100.7c-1.5,2-2.6,4.1-3.3,6.2C38.9,97,28.1,91.7,0,91.7v-7.1h22.2
			l0,0C33.1,88.8,42.8,94.1,48.4,100.7L48.4,100.7z"/>
		<path class="st0" d="M53.3,59.4v29.3c-1.4,0.7-2.6,1.7-3.2,3.4c-0.6-1.7-1.8-2.7-3.2-3.4V59.4c0-0.3,0-0.5,0-0.8
			c0-0.1,0-0.2,0-0.3c0-0.4,0-0.8,0.1-1.1v-0.1c0-0.1,0-0.1,0-0.2c0-0.1,0-0.2,0-0.3s0-0.2,0.1-0.4c0-0.1,0-0.1,0-0.2
			c0-0.3,0.1-0.6,0.2-0.9c0-0.1,0-0.2,0.1-0.3l0,0c0-0.1,0-0.1,0-0.2c0-0.2,0.1-0.3,0.1-0.5c0,0,0-0.1,0-0.2c0.3-1,0.6-1.9,1-2.8
			c0,0,0-0.1,0.1-0.2c0,0,0-0.1,0.1-0.2c0,0,0-0.1,0.1-0.2c0-0.1,0.1-0.1,0.1-0.2c0,0,0-0.1,0.1-0.2c0-0.1,0.1-0.2,0.2-0.3
			c0.1-0.1,0.1-0.2,0.2-0.3c0,0,0.1-0.1,0.1-0.2s0.1-0.1,0.1-0.2c0,0,0.1-0.1,0.1-0.2s0.1-0.1,0.1-0.2c0.1-0.2,0.2-0.3,0.3-0.5l0,0
			c0,0,0,0.1,0.1,0.1c0.1,0.1,0.1,0.2,0.2,0.3c0,0.1,0.1,0.2,0.2,0.3c0.1,0.2,0.2,0.5,0.4,0.7c0,0,0.1,0.1,0.1,0.2
			c0,0,0,0.1,0.1,0.1c0,0.1,0.1,0.1,0.1,0.2c0,0,0,0.1,0.1,0.2c0,0,0,0.1,0.1,0.2c0.1,0.2,0.2,0.5,0.3,0.7c0,0,0,0.1,0.1,0.2
			c0,0.1,0,0.1,0.1,0.2c0,0.1,0,0.1,0.1,0.2c0,0.1,0,0.1,0.1,0.2v0.1c0.2,0.6,0.4,1.2,0.6,1.8c0,0,0,0.1,0,0.2c0,0,0,0,0,0.1
			s0,0.2,0.1,0.3c0,0.1,0,0.1,0,0.2c0,0.1,0,0.1,0,0.2c0.1,0.4,0.2,0.8,0.3,1.2c0,0.1,0,0.1,0,0.2c0,0.1,0,0.2,0.1,0.4s0,0.2,0,0.3
			s0,0.1,0,0.2v0.1c0,0.4,0.1,0.8,0.1,1.1c0,0.1,0,0.2,0,0.3C53.3,58.9,53.3,59.1,53.3,59.4L53.3,59.4z"/>
		<path class="st0" d="M43.9,59.4v28.2c-2.2-0.7-4.5-1.3-6.4-2.9V59.4c0,0,0-0.1,0-0.2l0,0l0,0l0,0v-0.1l0,0c0,0,0,0,0-0.1
			s0-0.1,0-0.2l0,0c0,0,0,0,0-0.1v-0.1v-0.1l0,0l0,0l0,0c0,0,0,0,0-0.1c0,0,0,0,0-0.1s0-0.1-0.1-0.2c0,0,0,0,0-0.1
			c-0.1-0.1-0.2-0.3-0.2-0.4l0,0l0,0c0-0.1-0.1-0.1-0.1-0.2l0,0c-0.1-0.1-0.1-0.2-0.2-0.2l0,0l-0.1-0.1c0,0,0,0-0.1,0l0,0
			c0,0,0,0-0.1,0c0,0,0,0-0.1-0.1c0,0-0.1,0-0.1-0.1s0,0-0.1-0.1c0,0-0.1,0-0.1-0.1c0,0-0.1,0-0.1-0.1c0,0-0.1,0-0.1-0.1
			c0,0,0,0-0.1,0c0,0,0,0-0.1,0l0,0l0,0c0,0,0,0-0.1,0c0,0-0.1,0-0.1-0.1c0,0,0,0-0.1,0C35.1,56.1,35,56,34.8,56c0,0,0,0-0.1,0
			c0,0,0,0-0.1,0c-0.2-0.1-0.4-0.2-0.6-0.2c0,0,0,0-0.1,0s-0.2-0.1-0.3-0.1h-0.1c-0.3-0.1-0.6-0.2-0.8-0.3h-0.1c-0.1,0-0.1,0-0.2,0
			h-0.1c-0.1,0-0.1,0-0.2,0H32c-0.1,0-0.2,0-0.2-0.1h-0.1h-0.1h-0.1c-0.2,0-0.5-0.1-0.7-0.1c-0.1,0-0.1,0-0.2,0s-0.1,0-0.2,0
			s-0.1,0-0.2,0s-0.1,0-0.2,0c0,0-0.1,0-0.2,0s-0.1,0-0.2,0c-0.2,0-0.4-0.1-0.6-0.1c-0.1,0-0.1,0-0.2,0s-0.1,0-0.2,0s-0.2,0-0.3,0
			h-0.1h-0.1c-0.1,0-0.1,0-0.2,0c-0.2,0-0.4,0-0.6-0.1c-0.1,0-0.1,0-0.2,0l0,0c-0.1,0-0.1,0-0.2,0s-0.3,0-0.4,0s-0.1,0-0.2,0
			s-0.1,0-0.2,0c-0.3,0-0.6,0-0.9-0.1h-0.1c-0.2,0-0.4,0-0.7,0c-0.1,0-0.1,0-0.2,0c-0.2,0-0.5,0-0.7,0c-0.1,0-0.1,0-0.2,0
			c-0.2,0-0.5,0-0.7,0c-0.1,0-0.2,0-0.2,0c-0.2,0-0.4,0-0.6,0c-0.1,0-0.2,0-0.2,0c-0.1,0-0.2,0-0.3,0c-0.3,0-0.6,0-1,0
			c-0.1,0-0.1,0-0.2,0s-0.3,0-0.5,0c0,0,0,0-0.1,0s-0.1,0-0.2,0c-0.7,0-1.4,0-2.2,0c-0.1,0-0.2,0-0.3,0c-0.2,0-0.4,0-0.7,0
			c-0.1,0-0.2,0-0.3,0c-0.8,0-1.6,0-2.4,0.1c-0.2,0-0.5,0-0.7,0h-0.1c-4-0.9-8.3-0.6-12.6-0.2c0.1-2.6,0.4-5.1,1-7.6
			c0.4-1.8,1-3.5,1.7-5.2c4.1,0.5,8.3,1.1,12.3,1.8c0.1,0,0.1,0,0.1,0c0.2,0,0.3,0.1,0.5,0.1c0.1,0,0.3,0,0.4,0.1
			c0.5,0.1,0.9,0.2,1.4,0.3c0.2,0,0.5,0.1,0.7,0.2c0.2,0,0.4,0.1,0.6,0.1c0.1,0,0.2,0,0.3,0.1c0.6,0.1,1.2,0.3,1.8,0.4
			c0.1,0,0.3,0.1,0.4,0.1c0.2,0,0.4,0.1,0.6,0.1c0.1,0,0.2,0,0.3,0.1c0.4,0.1,0.7,0.2,1.1,0.3c0.1,0,0.1,0,0.2,0
			c0.3,0.1,0.7,0.2,1,0.3c0.1,0,0.1,0,0.2,0c0,0,0,0,0.1,0s0.1,0,0.2,0.1c0.7,0.2,1.4,0.4,2.1,0.6c0.1,0,0.3,0.1,0.4,0.1h0.1
			c0.1,0,0.1,0,0.2,0.1h0.1c0.1,0,0.1,0,0.2,0.1c0.1,0,0.2,0.1,0.3,0.1c0.1,0,0.2,0,0.3,0.1c0.1,0,0.2,0.1,0.3,0.1
			c0.2,0.1,0.4,0.1,0.6,0.2c0.1,0,0.1,0,0.2,0.1s0.1,0,0.2,0.1c0.1,0,0.2,0.1,0.3,0.1l0,0c0.1,0,0.1,0,0.2,0.1
			c0.8,0.3,1.6,0.6,2.4,0.9c0.1,0,0.1,0,0.2,0.1c0.1,0,0.1,0,0.2,0.1c0.1,0,0.1,0,0.2,0.1c0.1,0,0.3,0.1,0.4,0.2c0,0,0.1,0,0.2,0.1
			c0,0,0,0,0.1,0c0,0,0.1,0,0.2,0.1c0.1,0,0.1,0.1,0.2,0.1c0.1,0,0.1,0.1,0.2,0.1c0,0,0.1,0,0.2,0.1c0.1,0.1,0.3,0.1,0.4,0.2
			c0.1,0.1,0.2,0.1,0.3,0.2l0,0c0.1,0,0.1,0.1,0.2,0.1c0.2,0.1,0.4,0.2,0.6,0.3c0.1,0.1,0.2,0.1,0.4,0.2l0,0c0.1,0,0.1,0.1,0.2,0.1
			c0.1,0,0.1,0.1,0.2,0.1l0,0c0,0,0.1,0,0.1,0.1c0.1,0,0.1,0.1,0.2,0.1s0.1,0.1,0.2,0.1c0.1,0.1,0.2,0.1,0.4,0.2
			c0.1,0,0.1,0.1,0.2,0.1c0.1,0.1,0.2,0.1,0.3,0.2c0.2,0.2,0.5,0.3,0.7,0.4c0.1,0,0.2,0.1,0.2,0.2c0,0,0.1,0,0.1,0.1l0,0
			c0,0,0.1,0,0.1,0.1c0.1,0,0.2,0.1,0.2,0.2c0,0,0.1,0,0.1,0.1c0.1,0.1,0.2,0.2,0.3,0.2l0.1,0.1l0.1,0.1c0.1,0.1,0.1,0.1,0.2,0.2
			l0.1,0.1l0.1,0.1c0.1,0.1,0.2,0.2,0.3,0.3c0,0,0,0,0.1,0.1s0.1,0.1,0.2,0.2l0.1,0.1l0,0c0,0,0,0.1,0.1,0.1l0.1,0.1
			c0,0,0,0,0.1,0.1l0,0c0,0,0,0,0.1,0.1s0.1,0.1,0.2,0.2c0,0,0,0,0.1,0.1s0,0.1,0.1,0.1c0,0,0,0.1,0.1,0.1l0,0l0.1,0.1l0.1,0.1
			l0.1,0.1c0,0,0,0.1,0.1,0.1l0,0c0,0,0,0.1,0.1,0.1l0,0c0,0,0,0.1,0.1,0.1c0,0.1,0.1,0.1,0.1,0.2c0,0,0,0.1,0.1,0.1l0,0
			c0,0,0,0.1,0.1,0.1c0,0,0,0.1,0.1,0.1l0,0c0,0,0,0.1,0.1,0.1c0,0,0,0.1,0.1,0.1c0,0,0,0.1,0.1,0.1c0,0,0,0,0,0.1l0,0v0.1V57v0.1
			l0,0v0.1l0,0v0.1c0,0.1,0.1,0.2,0.1,0.2s0,0,0,0.1s0.1,0.2,0.1,0.3V58l0,0v0.1v0.1l0,0v0.1l0,0c0,0,0,0,0,0.1v0.1c0,0,0,0,0,0.1
			l0,0v0.1c0,0,0,0,0,0.1s0,0.2,0,0.2v0.1l0,0v0.1v0.1L43.9,59.4c0.1,0,0.1,0.1,0.1,0.2l0,0C43.9,59.3,43.9,59.3,43.9,59.4
			L43.9,59.4z"/>
		<path class="st0" d="M53.3,113.2v7.1h-6.4v-7.1c0-3.7,1.2-7.1,3.2-10.2l0,0l0,0C52.1,106.1,53.3,109.5,53.3,113.2z"/>
		<path class="st0" d="M100.1,84.6v7.1c-28.1,0-38.9,5.2-45,15.1c-0.8-2.1-1.9-4.1-3.3-6.1l0,0c5.6-6.7,15.3-12,26.2-16.1H100.1
			L100.1,84.6z"/>
	</g>
</g>
</svg>
