<?xml version="1.0" encoding="utf-8"?>
<!-- Generator: Adobe Illustrator 27.2.0, SVG Export Plug-In . SVG Version: 6.00 Build 0)  -->
<svg version="1.1" id="Layer_2_00000119085734506321813790000000514970871921720241_"
	 xmlns="http://www.w3.org/2000/svg" xmlns:xlink="http://www.w3.org/1999/xlink" x="0px" y="0px" viewBox="0 0 374.8 111.3"
	 style="enable-background:new 0 0 374.8 111.3;" xml:space="preserve">
<style type="text/css">
	.st0{fill:url(#SVGID_1_);}
	.st1{fill:url(#SVGID_00000067212309173808252300000011995578041085953417_);}
	.st2{fill:#FFFFFF;}
</style>
<g id="Layer_1-2">
	<g>
		<g>
			
				<linearGradient id="SVGID_1_" gradientUnits="userSpaceOnUse" x1="173.4484" y1="2.7078" x2="173.4484" y2="81.01" gradientTransform="matrix(1 0 0 -1 0 114)">
				<stop  offset="0.15" style="stop-color:#A1D2F2"/>
				<stop  offset="0.7" style="stop-color:#008ECE"/>
			</linearGradient>
			<path class="st0" d="M157.7,63.1c0-15.4,12.5-27.8,27.8-27.8c0.8,0,0.9-0.6,0.1-0.8c-2.1-0.5-7-1.5-11.6-1.5
				c-17.4,0-31,10.9-31,27.8c0,27.2,22.9,42.4,60,50.5c0.8,0.2,1.1-0.4,0.3-0.7C183,103.3,157.7,84.5,157.7,63.1L157.7,63.1z"/>
			
				<linearGradient id="SVGID_00000135680772954019367880000005892947566343253906_" gradientUnits="userSpaceOnUse" x1="201.1178" y1="16.81" x2="201.1178" y2="114.0214" gradientTransform="matrix(1 0 0 -1 0 114)">
				<stop  offset="0.1" style="stop-color:#006F32"/>
				<stop  offset="0.55" style="stop-color:#AEC90B"/>
			</linearGradient>
			<path style="fill:url(#SVGID_00000135680772954019367880000005892947566343253906_);" d="M201.2,0.3c-9.5,16.1-5.4,28.3,0.1,36.7
				c4.4,6.7,12,13.4,12,26c0,15.4-12.5,27.8-27.8,27.8c-4.4,0-8.1-1.1-10.5-2.1c-0.6-0.2-0.7,0.1-0.4,0.4c6.4,6.3,14.6,7.9,20.5,7.9
				c19.2,0,32.8-12.3,32.8-33.2c0-14.8-10.9-22.7-18.5-33.1c-5.3-7.2-10.7-14-7.4-30.4C202.1,0,201.6-0.2,201.2,0.3L201.2,0.3z"/>
		</g>
		<g>
			<path class="st2" d="M0,45c2.9-0.4,6.8-0.8,12.1-0.8c5.8,0,10,1,12.8,3c2.6,1.8,4.2,4.7,4.2,8.2s-1.3,6.4-3.7,8.4
				c-3.2,2.7-8.1,4-13.7,4c-1.5,0-2.8-0.1-3.9-0.3v14H0V45L0,45z M7.9,62.2c1,0.3,2.3,0.3,3.9,0.3c5.9,0,9.5-2.5,9.5-6.8
				c0-4.1-3.4-6.3-8.8-6.3c-2.2,0-3.7,0.2-4.6,0.3L7.9,62.2L7.9,62.2z"/>
			<path class="st2" d="M98.5,65.2H82.1v10.9h18.3v5.6H74.2V44.5h25.3v5.6H82.1v9.6h16.4L98.5,65.2L98.5,65.2z"/>
			<path class="st2" d="M265.8,74.2c2.5,1.3,6.4,2.4,10.5,2.4c5,0,7.9-2,7.9-5.1c0-2.8-2.2-4.5-7.7-6.2c-7.2-2.2-11.8-5.5-11.8-10.7
				c0-6.1,5.9-10.7,15.4-10.7c4.7,0,8.1,0.9,10.4,1.8l-1.9,5.5c-1.6-0.7-4.6-1.8-8.7-1.8c-5,0-7.1,2.3-7.1,4.5
				c0,2.9,2.5,4.2,8.3,6.1c7.5,2.5,11.1,5.7,11.1,11c0,6-5.3,11.1-16.4,11.1c-4.6,0-9.4-1.1-11.8-2.3L265.8,74.2L265.8,74.2z"/>
			<path class="st2" d="M348.5,71.1l-3.7,10.5h-8.2l13.9-37.1h10.1l14.1,37.1h-8.5l-3.9-10.5H348.5L348.5,71.1z M360.6,66l-3.4-9.1
				c-0.8-2.3-1.5-4.8-2.2-6.9h-0.1c-0.6,2.2-1.3,4.7-2.1,6.9l-3.4,9.1H360.6L360.6,66z"/>
			<path class="st2" d="M199.5,80.5c-1.9,0.8-6,1.7-11.3,1.7c-13.8,0-22.2-7.4-22.2-18.7c0-12.2,10-19.5,23.3-19.5
				c5.2,0,8.9,0.9,10.5,1.6l-1.7,5.4c-2.1-0.8-5-1.4-8.5-1.4c-8.8,0-15.2,4.7-15.2,13.6c0,8.2,5.5,13.3,15.1,13.3
				c3.2,0,6.5-0.6,8.6-1.3C198.2,75.2,199.5,80.5,199.5,80.5z"/>
		</g>
	</g>
</g>
</svg>
