<?xml version="1.0" encoding="utf-8"?>
<!-- Generator: Adobe Illustrator 27.6.1, SVG Export Plug-In . SVG Version: 6.00 Build 0)  -->
<svg version="1.1" id="Layer_2_00000106870294288549102810000017130519830755931552_"
	 xmlns="http://www.w3.org/2000/svg" xmlns:xlink="http://www.w3.org/1999/xlink" x="0px" y="0px" viewBox="0 0 498 498"
	 style="enable-background:new 0 0 498 498;" xml:space="preserve">
<style type="text/css">
	.st0{fill:#D2D6D6;}
	.st1{fill:#B31F24;}
</style>
<g id="Artwork_29_86_">
	<g>
		<polygon class="st0" points="225.2,429.6 68.3,429.6 68.3,68.2 223.3,68.2 223.3,88.8 88.9,88.8 88.9,409 225.2,409 		"/>
		<polygon class="st0" points="225.2,361.4 136.4,361.4 136.4,272.7 157.1,272.7 157.1,340.8 225.2,340.8 		"/>
		<polygon class="st0" points="225.2,327.4 170.5,327.4 170.5,272.7 191.1,272.7 191.1,306.7 225.2,306.7 		"/>
		<polygon class="st0" points="327.5,327.4 272.8,327.4 272.8,306.7 306.9,306.7 306.9,272.7 327.5,272.7 		"/>
		<rect x="204.6" y="272.7" class="st0" width="20.6" height="20.6"/>
		<rect x="272.8" y="272.7" class="st0" width="20.6" height="20.6"/>
		<rect x="204.6" y="204.5" class="st0" width="20.6" height="20.6"/>
		<rect x="272.8" y="204.5" class="st0" width="20.6" height="20.6"/>
		<rect x="102.7" y="272.7" class="st0" width="20.3" height="88.8"/>
		<rect x="375" y="136.3" class="st0" width="20.6" height="88.8"/>
		<polygon class="st0" points="429.7,429.6 272.8,429.6 272.8,409 409.1,409 409.1,88.8 272.8,88.8 272.8,68.2 429.7,68.2 		"/>
		<polygon class="st0" points="361.6,225.1 340.9,225.1 340.9,156.9 272.8,156.9 272.8,136.3 361.6,136.3 		"/>
		<polygon class="st0" points="157.1,225.1 136.4,225.1 136.4,136.3 225.2,136.3 225.2,156.9 157.1,156.9 		"/>
		<polygon class="st0" points="191.1,225.1 170.5,225.1 170.5,170.4 225.2,170.4 225.2,191 191.1,191 		"/>
		<polygon class="st0" points="327.5,225.1 306.9,225.1 306.9,191 272.8,191 272.8,170.4 327.5,170.4 		"/>
		<polygon class="st0" points="361.6,361.4 272.8,361.4 272.8,340.8 340.9,340.8 340.9,272.7 361.6,272.7 		"/>
		<polygon class="st0" points="54.8,443.1 54.8,102.2 34.2,102.2 34.2,463.7 225.2,463.7 225.2,443.1 		"/>
		<polygon class="st0" points="443.2,102.2 443.2,443.1 272.8,443.1 272.8,463.7 463.8,463.7 463.8,102.2 		"/>
		<path class="st0" d="M20.7,20.6h456.6v456.6H20.7V20.6z M0.1,497.8h497.8V0H0.1V497.8z"/>
		<rect x="238.7" y="272.7" class="st1" width="20.6" height="191"/>
		<polygon class="st1" points="34.2,34.1 34.2,88.8 54.8,88.8 54.8,54.7 238.7,54.7 238.7,225.1 259.3,225.1 259.3,54.7 443.2,54.7 
			443.2,88.8 463.8,88.8 463.8,34.1 		"/>
		<rect x="272.8" y="102.2" class="st1" width="122.9" height="20.6"/>
		<rect x="102.4" y="374.9" class="st1" width="122.9" height="20.6"/>
		<polygon class="st1" points="395.6,395.5 272.8,395.5 272.8,374.9 375,374.9 375,259.2 102.7,259.2 102.3,102.2 225.2,102.2 
			225.2,122.9 123,122.9 123.3,238.6 395.6,238.6 		"/>
	</g>
</g>
</svg>
