<?xml version="1.0" encoding="UTF-8"?>
<svg id="Layer_2" data-name="Layer 2" xmlns="http://www.w3.org/2000/svg" viewBox="0 0 117.26 120.21">
  <defs>
    <style>
      .cls-1 {
        fill: #13b9b2;
      }
    </style>
  </defs>
  <g id="Layer_1-2" data-name="Layer 1">
    <path class="cls-1" d="m80.74,6.28c-1.61-1.34-1.58-3.04-1.06-4.08.72-1.45,2.4-2.19,4.29-1.86,6.78,1.16,32.3,15.1,29.38,41.71-1.9,17.36-20.41,29.58-27.81,31.75-.44.13-.88.19-1.3.19-1.23,0-2.35-.53-3.02-1.5-.85-1.21-.74-2.82.25-4,6.27-7.41,13.1-16.28,14.81-27.76,2.55-17.19-7.65-27.9-15.54-34.46Zm34.51,76.03c-1.09-.5-2.85-.53-4.24,1.02-6.82,7.6-17.93,17.42-35.78,14.93-11.91-1.66-21.1-8.25-28.79-14.31-1.22-.96-2.89-1.06-4.15-.25-1.35.87-1.88,2.51-1.36,4.16,2.25,7.13,14.9,24.98,32.92,26.84,1.5.16,2.96.23,4.39.23,24.76,0,37.79-22.31,38.94-28.49.34-1.82-.42-3.44-1.92-4.13Zm-96.35-2.59c1.7-11.48,8.54-20.35,14.81-27.76,1-1.18,1.1-2.78.25-4-.9-1.3-2.6-1.81-4.32-1.3-7.4,2.17-25.91,14.39-27.81,31.75-2.92,26.62,22.6,40.56,29.38,41.71.3.05.59.08.88.08,1.52,0,2.81-.71,3.41-1.93.52-1.05.55-2.75-1.06-4.08-7.89-6.56-18.1-17.26-15.54-34.46ZM3.44,32.97c.91,0,1.93-.35,2.8-1.33,6.81-7.61,17.91-17.44,35.76-14.98,11.91,1.64,21.12,8.23,28.81,14.27,1.23.96,2.89,1.06,4.15.24,1.35-.87,1.88-2.51,1.35-4.16C74.07,19.88,61.38,2.05,43.37.22,15.75-2.56,1.28,22,.08,28.53c-.34,1.82.42,3.44,1.93,4.13.4.18.9.31,1.43.31Z"/>
  </g>
</svg>